G04 MADE WITH FRITZING*
G04 WWW.FRITZING.ORG*
G04 DOUBLE SIDED*
G04 HOLES PLATED*
G04 CONTOUR ON CENTER OF CONTOUR VECTOR*
%ASAXBY*%
%FSLAX23Y23*%
%MOIN*%
%OFA0B0*%
%SFA1.0B1.0*%
%ADD10C,0.039370*%
%ADD11C,0.078000*%
%ADD12C,0.062000*%
%ADD13C,0.075000*%
%ADD14C,0.133858*%
%ADD15C,0.070000*%
%ADD16C,0.062992*%
%ADD17C,0.074000*%
%ADD18C,0.082000*%
%ADD19R,0.062992X0.062992*%
%ADD20R,0.082000X0.082000*%
%ADD21C,0.024000*%
%ADD22C,0.016000*%
%ADD23C,0.032000*%
%ADD24R,0.001000X0.001000*%
%LNCOPPER0*%
G90*
G70*
G54D10*
X531Y1225D03*
X1106Y1325D03*
X1331Y1200D03*
X1031Y1225D03*
X2006Y1925D03*
X1405Y2049D03*
X1656Y2025D03*
X1706Y2075D03*
X780Y975D03*
G54D11*
X381Y925D03*
X281Y925D03*
X181Y925D03*
X81Y1950D03*
X81Y2050D03*
G54D10*
X306Y1149D03*
X1331Y1500D03*
X1281Y1775D03*
X806Y1175D03*
X106Y1150D03*
X381Y1425D03*
G54D12*
X1631Y1025D03*
X1531Y1025D03*
X1431Y1025D03*
X1331Y1025D03*
X1231Y1025D03*
X1131Y1025D03*
X1031Y1025D03*
X931Y1025D03*
X831Y1025D03*
X731Y1025D03*
X631Y1025D03*
X531Y1025D03*
X431Y1025D03*
X331Y1025D03*
X231Y1025D03*
X131Y1025D03*
X531Y1825D03*
X631Y1825D03*
X731Y1825D03*
X831Y1825D03*
X931Y1825D03*
X1031Y1825D03*
X1131Y1825D03*
X1231Y1825D03*
X1331Y1825D03*
X1431Y1825D03*
X1531Y1825D03*
X1631Y1825D03*
G54D10*
X1481Y1150D03*
X2055Y2199D03*
X2006Y2050D03*
X1180Y1299D03*
X982Y1073D03*
X956Y899D03*
X406Y474D03*
G54D11*
X2356Y1350D03*
X2356Y1450D03*
X2356Y1550D03*
X2356Y1650D03*
X2356Y1750D03*
X2356Y1850D03*
X2356Y1950D03*
X2356Y2050D03*
X2456Y1350D03*
X2456Y1450D03*
X2456Y1550D03*
X2456Y1650D03*
X2456Y1750D03*
X2456Y1850D03*
X2456Y1950D03*
X2456Y2050D03*
G54D10*
X1856Y2125D03*
X1606Y1975D03*
X1431Y1350D03*
X1431Y1199D03*
X1081Y1125D03*
G54D11*
X2256Y1350D03*
X2256Y1450D03*
X2256Y1550D03*
X2256Y1650D03*
X2256Y1750D03*
X2256Y1850D03*
X2256Y1950D03*
X2256Y2050D03*
G54D13*
X481Y900D03*
X481Y500D03*
G54D14*
X2356Y2225D03*
G54D11*
X2031Y900D03*
X1931Y900D03*
X1831Y900D03*
X1731Y900D03*
X1631Y900D03*
X1531Y900D03*
X1431Y900D03*
X1331Y900D03*
G54D10*
X1081Y1775D03*
G54D15*
X181Y500D03*
X81Y500D03*
G54D16*
X557Y500D03*
X656Y500D03*
G54D14*
X106Y2225D03*
G54D10*
X2056Y1100D03*
X1106Y1625D03*
G54D11*
X106Y225D03*
X206Y225D03*
X306Y225D03*
X406Y225D03*
G54D13*
X731Y450D03*
X731Y850D03*
G54D17*
X431Y1975D03*
X531Y1975D03*
X631Y1975D03*
G54D10*
X2256Y950D03*
G54D11*
X106Y125D03*
X206Y125D03*
X306Y125D03*
X406Y125D03*
G54D13*
X281Y1575D03*
X681Y1575D03*
G54D11*
X731Y125D03*
X731Y225D03*
X731Y325D03*
G54D10*
X2155Y1149D03*
G54D11*
X106Y325D03*
X206Y325D03*
X306Y325D03*
X406Y325D03*
G54D14*
X581Y100D03*
G54D10*
X1956Y1025D03*
G54D13*
X281Y1700D03*
X681Y1700D03*
G54D11*
X81Y800D03*
X181Y800D03*
X281Y800D03*
X381Y800D03*
G54D10*
X1706Y1600D03*
G54D11*
X2356Y700D03*
X2356Y800D03*
X2356Y900D03*
X2356Y1000D03*
X2356Y1100D03*
X2356Y1200D03*
G54D10*
X1606Y1699D03*
G54D15*
X1031Y1975D03*
X1131Y1975D03*
G54D18*
X829Y1425D03*
X531Y1425D03*
G54D10*
X131Y1375D03*
X356Y1775D03*
G54D19*
X557Y500D03*
G54D20*
X830Y1425D03*
G54D21*
X400Y1424D02*
X430Y1424D01*
G54D22*
D02*
X1132Y1200D02*
X1317Y1200D01*
D02*
X1106Y1225D02*
X1132Y1200D01*
D02*
X1106Y1311D02*
X1106Y1225D01*
D02*
X1031Y1048D02*
X1031Y1211D01*
G54D21*
D02*
X1506Y2025D02*
X1637Y2025D01*
D02*
X1423Y2044D02*
X1506Y2025D01*
G54D22*
D02*
X1706Y1925D02*
X1993Y1925D01*
D02*
X1706Y2061D02*
X1706Y1925D01*
G54D21*
D02*
X181Y974D02*
X181Y955D01*
D02*
X210Y1004D02*
X181Y974D01*
G54D22*
D02*
X1581Y975D02*
X1614Y1008D01*
D02*
X906Y975D02*
X1581Y975D01*
D02*
X481Y1050D02*
X506Y1075D01*
D02*
X881Y1050D02*
X881Y999D01*
D02*
X506Y1075D02*
X856Y1075D01*
D02*
X480Y975D02*
X481Y1050D01*
D02*
X856Y1075D02*
X881Y1050D01*
D02*
X881Y999D02*
X906Y975D01*
D02*
X403Y936D02*
X480Y975D01*
G54D21*
D02*
X306Y1524D02*
X306Y1168D01*
D02*
X294Y1549D02*
X306Y1524D01*
G54D22*
D02*
X1281Y1550D02*
X1321Y1509D01*
D02*
X1281Y1761D02*
X1281Y1550D01*
D02*
X1031Y1499D02*
X1031Y1801D01*
D02*
X813Y1186D02*
X1031Y1499D01*
D02*
X381Y675D02*
X481Y799D01*
D02*
X400Y487D02*
X381Y525D01*
D02*
X539Y488D02*
X556Y499D01*
D02*
X556Y499D02*
X504Y499D01*
D02*
X1706Y1199D02*
X1655Y1150D01*
D02*
X1706Y1586D02*
X1706Y1199D01*
G54D21*
D02*
X1931Y974D02*
X1947Y1007D01*
D02*
X1931Y930D02*
X1931Y974D01*
G54D22*
D02*
X942Y899D02*
X781Y899D01*
D02*
X2245Y958D02*
X2067Y1091D01*
G54D21*
D02*
X281Y1671D02*
X281Y1603D01*
D02*
X605Y426D02*
X205Y426D01*
D02*
X641Y477D02*
X605Y426D01*
G54D22*
D02*
X381Y525D02*
X381Y675D01*
D02*
X481Y799D02*
X481Y876D01*
D02*
X1655Y1150D02*
X1495Y1150D01*
D02*
X781Y899D02*
X747Y866D01*
G54D21*
D02*
X205Y426D02*
X189Y475D01*
D02*
X1425Y1181D02*
X1405Y1124D01*
D02*
X1405Y1124D02*
X1100Y1124D01*
G54D22*
D02*
X1418Y1350D02*
X1232Y1350D01*
D02*
X1232Y1350D02*
X1190Y1309D01*
D02*
X1100Y1637D02*
X1081Y1674D01*
D02*
X1081Y1674D02*
X1081Y1761D01*
G54D21*
D02*
X1456Y1974D02*
X1157Y1974D01*
G54D22*
D02*
X1955Y2200D02*
X2042Y2199D01*
D02*
X1867Y2133D02*
X1955Y2200D01*
G54D21*
D02*
X1456Y1974D02*
X1530Y1925D01*
D02*
X2305Y2124D02*
X2339Y2074D01*
D02*
X2207Y2124D02*
X2305Y2124D01*
D02*
X2020Y1939D02*
X2207Y2124D01*
D02*
X1530Y1925D02*
X1987Y1925D01*
D02*
X531Y224D02*
X429Y143D01*
D02*
X606Y224D02*
X531Y224D01*
D02*
X707Y143D02*
X606Y224D01*
D02*
X31Y175D02*
X81Y141D01*
D02*
X31Y399D02*
X31Y175D01*
D02*
X181Y475D02*
X31Y399D01*
D02*
X182Y473D02*
X181Y475D01*
D02*
X2455Y1249D02*
X2356Y1300D01*
D02*
X2356Y1300D02*
X2356Y1319D01*
D02*
X2455Y1149D02*
X2455Y1249D01*
D02*
X2383Y1113D02*
X2455Y1149D01*
G54D22*
D02*
X1956Y1649D02*
X1430Y1649D01*
D02*
X1430Y1649D02*
X1331Y1749D01*
D02*
X2105Y1499D02*
X1956Y1649D01*
D02*
X2106Y1250D02*
X2105Y1499D01*
D02*
X2281Y1000D02*
X2255Y1025D01*
D02*
X2255Y1150D02*
X2106Y1250D01*
D02*
X2255Y1025D02*
X2255Y1150D01*
D02*
X2331Y1000D02*
X2281Y1000D01*
D02*
X1481Y1699D02*
X1592Y1699D01*
D02*
X1430Y1749D02*
X1481Y1699D01*
G54D23*
D02*
X56Y974D02*
X160Y829D01*
D02*
X56Y1049D02*
X56Y974D01*
G54D22*
D02*
X731Y950D02*
X768Y969D01*
D02*
X381Y525D02*
X731Y950D01*
D02*
X400Y487D02*
X381Y525D01*
G54D23*
D02*
X356Y2024D02*
X356Y1899D01*
D02*
X430Y1825D02*
X430Y1424D01*
D02*
X356Y1899D02*
X430Y1825D01*
D02*
X405Y2049D02*
X356Y2024D01*
D02*
X1081Y2049D02*
X405Y2049D01*
D02*
X1113Y2001D02*
X1081Y2049D01*
G54D22*
D02*
X2255Y824D02*
X2255Y875D01*
D02*
X2255Y875D02*
X1956Y1100D01*
D02*
X2306Y799D02*
X2255Y824D01*
D02*
X1956Y1100D02*
X1506Y1100D01*
D02*
X2331Y799D02*
X2306Y799D01*
D02*
X1231Y1724D02*
X981Y1325D01*
D02*
X981Y1325D02*
X982Y1087D01*
D02*
X1431Y1801D02*
X1430Y1749D01*
D02*
X1331Y1749D02*
X1331Y1801D01*
D02*
X1231Y1801D02*
X1231Y1724D01*
G54D23*
D02*
X430Y1424D02*
X431Y1059D01*
D02*
X105Y1099D02*
X56Y1049D01*
D02*
X431Y1100D02*
X105Y1099D01*
D02*
X431Y1059D02*
X431Y1100D01*
G54D22*
D02*
X1506Y1100D02*
X1447Y1041D01*
G54D23*
D02*
X831Y1699D02*
X829Y1462D01*
D02*
X731Y1774D02*
X831Y1699D01*
D02*
X731Y1790D02*
X731Y1774D01*
D02*
X205Y1975D02*
X205Y1774D01*
D02*
X205Y1774D02*
X331Y1775D01*
D02*
X111Y2031D02*
X205Y1975D01*
G54D24*
X1027Y2010D02*
X1034Y2010D01*
X1127Y2010D02*
X1134Y2010D01*
X1022Y2009D02*
X1038Y2009D01*
X1122Y2009D02*
X1138Y2009D01*
X1019Y2008D02*
X1042Y2008D01*
X1119Y2008D02*
X1142Y2008D01*
X1016Y2007D02*
X1044Y2007D01*
X1116Y2007D02*
X1144Y2007D01*
X1014Y2006D02*
X1046Y2006D01*
X1114Y2006D02*
X1146Y2006D01*
X1012Y2005D02*
X1048Y2005D01*
X1112Y2005D02*
X1148Y2005D01*
X1011Y2004D02*
X1049Y2004D01*
X1111Y2004D02*
X1149Y2004D01*
X1009Y2003D02*
X1051Y2003D01*
X1109Y2003D02*
X1151Y2003D01*
X1008Y2002D02*
X1052Y2002D01*
X1108Y2002D02*
X1152Y2002D01*
X1007Y2001D02*
X1053Y2001D01*
X1107Y2001D02*
X1153Y2001D01*
X1006Y2000D02*
X1054Y2000D01*
X1106Y2000D02*
X1154Y2000D01*
X1005Y1999D02*
X1055Y1999D01*
X1105Y1999D02*
X1155Y1999D01*
X1004Y1998D02*
X1056Y1998D01*
X1104Y1998D02*
X1156Y1998D01*
X1003Y1997D02*
X1057Y1997D01*
X1103Y1997D02*
X1157Y1997D01*
X1003Y1996D02*
X1058Y1996D01*
X1103Y1996D02*
X1158Y1996D01*
X1002Y1995D02*
X1058Y1995D01*
X1102Y1995D02*
X1158Y1995D01*
X1001Y1994D02*
X1059Y1994D01*
X1101Y1994D02*
X1159Y1994D01*
X1001Y1993D02*
X1060Y1993D01*
X1101Y1993D02*
X1160Y1993D01*
X1000Y1992D02*
X1060Y1992D01*
X1100Y1992D02*
X1160Y1992D01*
X1000Y1991D02*
X1061Y1991D01*
X1100Y1991D02*
X1161Y1991D01*
X999Y1990D02*
X1026Y1990D01*
X1034Y1990D02*
X1061Y1990D01*
X1099Y1990D02*
X1126Y1990D01*
X1134Y1990D02*
X1161Y1990D01*
X999Y1989D02*
X1023Y1989D01*
X1037Y1989D02*
X1062Y1989D01*
X1099Y1989D02*
X1123Y1989D01*
X1137Y1989D02*
X1162Y1989D01*
X998Y1988D02*
X1021Y1988D01*
X1039Y1988D02*
X1062Y1988D01*
X1098Y1988D02*
X1121Y1988D01*
X1139Y1988D02*
X1162Y1988D01*
X998Y1987D02*
X1020Y1987D01*
X1040Y1987D02*
X1062Y1987D01*
X1098Y1987D02*
X1120Y1987D01*
X1140Y1987D02*
X1162Y1987D01*
X997Y1986D02*
X1019Y1986D01*
X1041Y1986D02*
X1063Y1986D01*
X1097Y1986D02*
X1119Y1986D01*
X1141Y1986D02*
X1163Y1986D01*
X997Y1985D02*
X1018Y1985D01*
X1042Y1985D02*
X1063Y1985D01*
X1097Y1985D02*
X1118Y1985D01*
X1142Y1985D02*
X1163Y1985D01*
X997Y1984D02*
X1017Y1984D01*
X1043Y1984D02*
X1063Y1984D01*
X1097Y1984D02*
X1117Y1984D01*
X1143Y1984D02*
X1163Y1984D01*
X997Y1983D02*
X1017Y1983D01*
X1044Y1983D02*
X1064Y1983D01*
X1097Y1983D02*
X1117Y1983D01*
X1144Y1983D02*
X1164Y1983D01*
X996Y1982D02*
X1016Y1982D01*
X1044Y1982D02*
X1064Y1982D01*
X1096Y1982D02*
X1116Y1982D01*
X1144Y1982D02*
X1164Y1982D01*
X996Y1981D02*
X1016Y1981D01*
X1045Y1981D02*
X1064Y1981D01*
X1096Y1981D02*
X1116Y1981D01*
X1145Y1981D02*
X1164Y1981D01*
X996Y1980D02*
X1015Y1980D01*
X1045Y1980D02*
X1064Y1980D01*
X1096Y1980D02*
X1115Y1980D01*
X1145Y1980D02*
X1164Y1980D01*
X996Y1979D02*
X1015Y1979D01*
X1045Y1979D02*
X1064Y1979D01*
X1096Y1979D02*
X1115Y1979D01*
X1145Y1979D02*
X1164Y1979D01*
X996Y1978D02*
X1015Y1978D01*
X1045Y1978D02*
X1064Y1978D01*
X1096Y1978D02*
X1115Y1978D01*
X1145Y1978D02*
X1164Y1978D01*
X996Y1977D02*
X1015Y1977D01*
X1045Y1977D02*
X1065Y1977D01*
X1096Y1977D02*
X1115Y1977D01*
X1145Y1977D02*
X1164Y1977D01*
X996Y1976D02*
X1015Y1976D01*
X1046Y1976D02*
X1065Y1976D01*
X1096Y1976D02*
X1115Y1976D01*
X1146Y1976D02*
X1165Y1976D01*
X996Y1975D02*
X1015Y1975D01*
X1046Y1975D02*
X1065Y1975D01*
X1096Y1975D02*
X1115Y1975D01*
X1146Y1975D02*
X1165Y1975D01*
X996Y1974D02*
X1015Y1974D01*
X1046Y1974D02*
X1065Y1974D01*
X1096Y1974D02*
X1115Y1974D01*
X1146Y1974D02*
X1165Y1974D01*
X996Y1973D02*
X1015Y1973D01*
X1045Y1973D02*
X1064Y1973D01*
X1096Y1973D02*
X1115Y1973D01*
X1145Y1973D02*
X1164Y1973D01*
X996Y1972D02*
X1015Y1972D01*
X1045Y1972D02*
X1064Y1972D01*
X1096Y1972D02*
X1115Y1972D01*
X1145Y1972D02*
X1164Y1972D01*
X996Y1971D02*
X1015Y1971D01*
X1045Y1971D02*
X1064Y1971D01*
X1096Y1971D02*
X1115Y1971D01*
X1145Y1971D02*
X1164Y1971D01*
X996Y1970D02*
X1015Y1970D01*
X1045Y1970D02*
X1064Y1970D01*
X1096Y1970D02*
X1115Y1970D01*
X1145Y1970D02*
X1164Y1970D01*
X996Y1969D02*
X1016Y1969D01*
X1044Y1969D02*
X1064Y1969D01*
X1096Y1969D02*
X1116Y1969D01*
X1144Y1969D02*
X1164Y1969D01*
X997Y1968D02*
X1016Y1968D01*
X1044Y1968D02*
X1064Y1968D01*
X1097Y1968D02*
X1116Y1968D01*
X1144Y1968D02*
X1164Y1968D01*
X997Y1967D02*
X1017Y1967D01*
X1043Y1967D02*
X1063Y1967D01*
X1097Y1967D02*
X1117Y1967D01*
X1143Y1967D02*
X1163Y1967D01*
X997Y1966D02*
X1018Y1966D01*
X1042Y1966D02*
X1063Y1966D01*
X1097Y1966D02*
X1118Y1966D01*
X1142Y1966D02*
X1163Y1966D01*
X997Y1965D02*
X1019Y1965D01*
X1041Y1965D02*
X1063Y1965D01*
X1097Y1965D02*
X1119Y1965D01*
X1141Y1965D02*
X1163Y1965D01*
X998Y1964D02*
X1020Y1964D01*
X1040Y1964D02*
X1063Y1964D01*
X1098Y1964D02*
X1120Y1964D01*
X1140Y1964D02*
X1162Y1964D01*
X998Y1963D02*
X1021Y1963D01*
X1039Y1963D02*
X1062Y1963D01*
X1098Y1963D02*
X1121Y1963D01*
X1139Y1963D02*
X1162Y1963D01*
X998Y1962D02*
X1023Y1962D01*
X1038Y1962D02*
X1062Y1962D01*
X1098Y1962D02*
X1123Y1962D01*
X1138Y1962D02*
X1162Y1962D01*
X999Y1961D02*
X1025Y1961D01*
X1035Y1961D02*
X1061Y1961D01*
X1099Y1961D02*
X1125Y1961D01*
X1135Y1961D02*
X1161Y1961D01*
X999Y1960D02*
X1061Y1960D01*
X1099Y1960D02*
X1161Y1960D01*
X1000Y1959D02*
X1060Y1959D01*
X1100Y1959D02*
X1160Y1959D01*
X1000Y1958D02*
X1060Y1958D01*
X1100Y1958D02*
X1160Y1958D01*
X1001Y1957D02*
X1059Y1957D01*
X1101Y1957D02*
X1159Y1957D01*
X1002Y1956D02*
X1059Y1956D01*
X1102Y1956D02*
X1159Y1956D01*
X1002Y1955D02*
X1058Y1955D01*
X1102Y1955D02*
X1158Y1955D01*
X1003Y1954D02*
X1057Y1954D01*
X1103Y1954D02*
X1157Y1954D01*
X1004Y1953D02*
X1057Y1953D01*
X1104Y1953D02*
X1156Y1953D01*
X1005Y1952D02*
X1056Y1952D01*
X1105Y1952D02*
X1156Y1952D01*
X1005Y1951D02*
X1055Y1951D01*
X1105Y1951D02*
X1155Y1951D01*
X1007Y1950D02*
X1054Y1950D01*
X1107Y1950D02*
X1154Y1950D01*
X1008Y1949D02*
X1053Y1949D01*
X1108Y1949D02*
X1153Y1949D01*
X1009Y1948D02*
X1051Y1948D01*
X1109Y1948D02*
X1151Y1948D01*
X1010Y1947D02*
X1050Y1947D01*
X1110Y1947D02*
X1150Y1947D01*
X1012Y1946D02*
X1048Y1946D01*
X1112Y1946D02*
X1148Y1946D01*
X1014Y1945D02*
X1047Y1945D01*
X1114Y1945D02*
X1147Y1945D01*
X1016Y1944D02*
X1045Y1944D01*
X1116Y1944D02*
X1145Y1944D01*
X1018Y1943D02*
X1042Y1943D01*
X1118Y1943D02*
X1142Y1943D01*
X1021Y1942D02*
X1040Y1942D01*
X1121Y1942D02*
X1140Y1942D01*
X1024Y1941D02*
X1036Y1941D01*
X1124Y1941D02*
X1136Y1941D01*
D02*
G04 End of Copper0*
M02*