G04 MADE WITH FRITZING*
G04 WWW.FRITZING.ORG*
G04 DOUBLE SIDED*
G04 HOLES PLATED*
G04 CONTOUR ON CENTER OF CONTOUR VECTOR*
%ASAXBY*%
%FSLAX23Y23*%
%MOIN*%
%OFA0B0*%
%SFA1.0B1.0*%
%ADD10C,0.049370*%
%ADD11C,0.088000*%
%ADD12C,0.072000*%
%ADD13C,0.085000*%
%ADD14C,0.143858*%
%ADD15C,0.080000*%
%ADD16C,0.072992*%
%ADD17C,0.084000*%
%ADD18C,0.092000*%
%ADD19R,0.088740X0.057244*%
%ADD20R,0.063150X0.033622*%
%ADD21R,0.057244X0.088740*%
%ADD22R,0.033622X0.063150*%
%ADD23R,0.090000X0.036000*%
%ADD24R,0.072992X0.072992*%
%ADD25R,0.092000X0.092000*%
%ADD26C,0.010000*%
%ADD27R,0.001000X0.001000*%
%LNMASK1*%
G90*
G70*
G54D10*
X531Y1225D03*
X1106Y1325D03*
X1331Y1200D03*
X1031Y1225D03*
X2006Y1925D03*
X1405Y2049D03*
X1656Y2025D03*
X1706Y2075D03*
X780Y975D03*
G54D11*
X381Y925D03*
X281Y925D03*
X181Y925D03*
X81Y1950D03*
X81Y2050D03*
G54D10*
X306Y1149D03*
X1331Y1500D03*
X1281Y1775D03*
X806Y1175D03*
X106Y1150D03*
X381Y1425D03*
G54D12*
X1631Y1025D03*
X1531Y1025D03*
X1431Y1025D03*
X1331Y1025D03*
X1231Y1025D03*
X1131Y1025D03*
X1031Y1025D03*
X931Y1025D03*
X831Y1025D03*
X731Y1025D03*
X631Y1025D03*
X531Y1025D03*
X431Y1025D03*
X331Y1025D03*
X231Y1025D03*
X131Y1025D03*
X531Y1825D03*
X631Y1825D03*
X731Y1825D03*
X831Y1825D03*
X931Y1825D03*
X1031Y1825D03*
X1131Y1825D03*
X1231Y1825D03*
X1331Y1825D03*
X1431Y1825D03*
X1531Y1825D03*
X1631Y1825D03*
G54D10*
X1481Y1150D03*
X2055Y2199D03*
X2006Y2050D03*
X1180Y1299D03*
X982Y1073D03*
X956Y899D03*
X406Y474D03*
G54D11*
X2356Y1350D03*
X2356Y1450D03*
X2356Y1550D03*
X2356Y1650D03*
X2356Y1750D03*
X2356Y1850D03*
X2356Y1950D03*
X2356Y2050D03*
X2456Y1350D03*
X2456Y1450D03*
X2456Y1550D03*
X2456Y1650D03*
X2456Y1750D03*
X2456Y1850D03*
X2456Y1950D03*
X2456Y2050D03*
G54D10*
X1856Y2125D03*
X1606Y1975D03*
X1431Y1350D03*
X1431Y1199D03*
X1081Y1125D03*
G54D11*
X2256Y1350D03*
X2256Y1450D03*
X2256Y1550D03*
X2256Y1650D03*
X2256Y1750D03*
X2256Y1850D03*
X2256Y1950D03*
X2256Y2050D03*
G54D13*
X481Y900D03*
X481Y500D03*
G54D14*
X2356Y2225D03*
G54D11*
X2031Y900D03*
X1931Y900D03*
X1831Y900D03*
X1731Y900D03*
X1631Y900D03*
X1531Y900D03*
X1431Y900D03*
X1331Y900D03*
G54D10*
X1081Y1775D03*
G54D15*
X181Y500D03*
X81Y500D03*
G54D16*
X557Y500D03*
X656Y500D03*
G54D14*
X106Y2225D03*
G54D10*
X2056Y1100D03*
X1106Y1625D03*
G54D11*
X106Y225D03*
X206Y225D03*
X306Y225D03*
X406Y225D03*
G54D13*
X731Y450D03*
X731Y850D03*
G54D17*
X431Y1975D03*
X531Y1975D03*
X631Y1975D03*
X431Y1975D03*
X531Y1975D03*
X631Y1975D03*
G54D10*
X2256Y950D03*
G54D11*
X106Y125D03*
X206Y125D03*
X306Y125D03*
X406Y125D03*
G54D13*
X281Y1575D03*
X681Y1575D03*
G54D11*
X731Y125D03*
X731Y225D03*
X731Y325D03*
G54D10*
X2155Y1149D03*
G54D11*
X106Y325D03*
X206Y325D03*
X306Y325D03*
X406Y325D03*
G54D14*
X581Y100D03*
G54D10*
X1956Y1025D03*
G54D13*
X281Y1700D03*
X681Y1700D03*
G54D11*
X81Y800D03*
X181Y800D03*
X281Y800D03*
X381Y800D03*
G54D10*
X1706Y1600D03*
G54D11*
X2356Y700D03*
X2356Y800D03*
X2356Y900D03*
X2356Y1000D03*
X2356Y1100D03*
X2356Y1200D03*
G54D10*
X1606Y1699D03*
G54D18*
X829Y1425D03*
X531Y1425D03*
G54D10*
X131Y1375D03*
X356Y1775D03*
G54D19*
X61Y1469D03*
X61Y1248D03*
G54D20*
X206Y1418D03*
X206Y1378D03*
X206Y1339D03*
X206Y1300D03*
G54D21*
X2157Y2269D03*
X1937Y2269D03*
G54D22*
X2106Y2125D03*
X2066Y2125D03*
X2027Y2125D03*
X1988Y2125D03*
G54D21*
X1757Y2269D03*
X1537Y2269D03*
G54D22*
X1706Y2125D03*
X1666Y2125D03*
X1627Y2125D03*
X1588Y2125D03*
G54D23*
X1731Y1450D03*
G54D24*
X557Y500D03*
G54D25*
X830Y1425D03*
G54D26*
G36*
X1691Y1213D02*
X1771Y1213D01*
X1771Y1187D01*
X1691Y1187D01*
X1691Y1213D01*
G37*
D02*
G36*
X1691Y1263D02*
X1771Y1263D01*
X1771Y1237D01*
X1691Y1237D01*
X1691Y1263D01*
G37*
D02*
G36*
X1691Y1313D02*
X1771Y1313D01*
X1771Y1287D01*
X1691Y1287D01*
X1691Y1313D01*
G37*
D02*
G36*
X1691Y1363D02*
X1771Y1363D01*
X1771Y1337D01*
X1691Y1337D01*
X1691Y1363D01*
G37*
D02*
G36*
X1691Y1413D02*
X1771Y1413D01*
X1771Y1387D01*
X1691Y1387D01*
X1691Y1413D01*
G37*
D02*
G36*
X1691Y1513D02*
X1771Y1513D01*
X1771Y1487D01*
X1691Y1487D01*
X1691Y1513D01*
G37*
D02*
G36*
X1691Y1563D02*
X1771Y1563D01*
X1771Y1537D01*
X1691Y1537D01*
X1691Y1563D01*
G37*
D02*
G36*
X1449Y1563D02*
X1529Y1563D01*
X1529Y1537D01*
X1449Y1537D01*
X1449Y1563D01*
G37*
D02*
G36*
X1449Y1513D02*
X1529Y1513D01*
X1529Y1487D01*
X1449Y1487D01*
X1449Y1513D01*
G37*
D02*
G36*
X1449Y1463D02*
X1529Y1463D01*
X1529Y1437D01*
X1449Y1437D01*
X1449Y1463D01*
G37*
D02*
G36*
X1449Y1413D02*
X1529Y1413D01*
X1529Y1387D01*
X1449Y1387D01*
X1449Y1413D01*
G37*
D02*
G36*
X1449Y1363D02*
X1529Y1363D01*
X1529Y1337D01*
X1449Y1337D01*
X1449Y1363D01*
G37*
D02*
G36*
X1449Y1313D02*
X1529Y1313D01*
X1529Y1287D01*
X1449Y1287D01*
X1449Y1313D01*
G37*
D02*
G36*
X1449Y1263D02*
X1529Y1263D01*
X1529Y1237D01*
X1449Y1237D01*
X1449Y1263D01*
G37*
D02*
G36*
X1449Y1213D02*
X1529Y1213D01*
X1529Y1187D01*
X1449Y1187D01*
X1449Y1213D01*
G37*
D02*
G54D27*
X1026Y2015D02*
X1034Y2015D01*
X1126Y2015D02*
X1134Y2015D01*
X1021Y2014D02*
X1039Y2014D01*
X1121Y2014D02*
X1139Y2014D01*
X1017Y2013D02*
X1043Y2013D01*
X1117Y2013D02*
X1143Y2013D01*
X1015Y2012D02*
X1046Y2012D01*
X1115Y2012D02*
X1145Y2012D01*
X1013Y2011D02*
X1048Y2011D01*
X1113Y2011D02*
X1148Y2011D01*
X1011Y2010D02*
X1049Y2010D01*
X1111Y2010D02*
X1149Y2010D01*
X1009Y2009D02*
X1051Y2009D01*
X1109Y2009D02*
X1151Y2009D01*
X1008Y2008D02*
X1053Y2008D01*
X1108Y2008D02*
X1152Y2008D01*
X1006Y2007D02*
X1054Y2007D01*
X1106Y2007D02*
X1154Y2007D01*
X1005Y2006D02*
X1055Y2006D01*
X1105Y2006D02*
X1155Y2006D01*
X1004Y2005D02*
X1056Y2005D01*
X1104Y2005D02*
X1156Y2005D01*
X1003Y2004D02*
X1057Y2004D01*
X1103Y2004D02*
X1157Y2004D01*
X1002Y2003D02*
X1058Y2003D01*
X1102Y2003D02*
X1158Y2003D01*
X1001Y2002D02*
X1059Y2002D01*
X1101Y2002D02*
X1159Y2002D01*
X1000Y2001D02*
X1060Y2001D01*
X1100Y2001D02*
X1160Y2001D01*
X999Y2000D02*
X1061Y2000D01*
X1099Y2000D02*
X1161Y2000D01*
X999Y1999D02*
X1062Y1999D01*
X1099Y1999D02*
X1162Y1999D01*
X998Y1998D02*
X1062Y1998D01*
X1098Y1998D02*
X1162Y1998D01*
X997Y1997D02*
X1063Y1997D01*
X1097Y1997D02*
X1163Y1997D01*
X997Y1996D02*
X1064Y1996D01*
X1096Y1996D02*
X1164Y1996D01*
X996Y1995D02*
X1064Y1995D01*
X1096Y1995D02*
X1164Y1995D01*
X995Y1994D02*
X1065Y1994D01*
X1095Y1994D02*
X1165Y1994D01*
X995Y1993D02*
X1065Y1993D01*
X1095Y1993D02*
X1165Y1993D01*
X994Y1992D02*
X1066Y1992D01*
X1094Y1992D02*
X1166Y1992D01*
X994Y1991D02*
X1066Y1991D01*
X1094Y1991D02*
X1166Y1991D01*
X993Y1990D02*
X1067Y1990D01*
X1093Y1990D02*
X1167Y1990D01*
X993Y1989D02*
X1067Y1989D01*
X1093Y1989D02*
X1167Y1989D01*
X993Y1988D02*
X1068Y1988D01*
X1093Y1988D02*
X1167Y1988D01*
X992Y1987D02*
X1068Y1987D01*
X1092Y1987D02*
X1168Y1987D01*
X992Y1986D02*
X1068Y1986D01*
X1092Y1986D02*
X1168Y1986D01*
X992Y1985D02*
X1068Y1985D01*
X1092Y1985D02*
X1168Y1985D01*
X992Y1984D02*
X1069Y1984D01*
X1092Y1984D02*
X1169Y1984D01*
X991Y1983D02*
X1069Y1983D01*
X1091Y1983D02*
X1169Y1983D01*
X991Y1982D02*
X1069Y1982D01*
X1091Y1982D02*
X1169Y1982D01*
X991Y1981D02*
X1069Y1981D01*
X1091Y1981D02*
X1169Y1981D01*
X991Y1980D02*
X1069Y1980D01*
X1091Y1980D02*
X1169Y1980D01*
X991Y1979D02*
X1069Y1979D01*
X1091Y1979D02*
X1169Y1979D01*
X991Y1978D02*
X1069Y1978D01*
X1091Y1978D02*
X1169Y1978D01*
X991Y1977D02*
X1070Y1977D01*
X1091Y1977D02*
X1169Y1977D01*
X991Y1976D02*
X1070Y1976D01*
X1091Y1976D02*
X1170Y1976D01*
X991Y1975D02*
X1070Y1975D01*
X1091Y1975D02*
X1170Y1975D01*
X991Y1974D02*
X1070Y1974D01*
X1091Y1974D02*
X1170Y1974D01*
X991Y1973D02*
X1069Y1973D01*
X1091Y1973D02*
X1169Y1973D01*
X991Y1972D02*
X1069Y1972D01*
X1091Y1972D02*
X1169Y1972D01*
X991Y1971D02*
X1069Y1971D01*
X1091Y1971D02*
X1169Y1971D01*
X991Y1970D02*
X1069Y1970D01*
X1091Y1970D02*
X1169Y1970D01*
X991Y1969D02*
X1069Y1969D01*
X1091Y1969D02*
X1169Y1969D01*
X991Y1968D02*
X1069Y1968D01*
X1091Y1968D02*
X1169Y1968D01*
X992Y1967D02*
X1069Y1967D01*
X1092Y1967D02*
X1169Y1967D01*
X992Y1966D02*
X1068Y1966D01*
X1092Y1966D02*
X1168Y1966D01*
X992Y1965D02*
X1068Y1965D01*
X1092Y1965D02*
X1168Y1965D01*
X992Y1964D02*
X1068Y1964D01*
X1092Y1964D02*
X1168Y1964D01*
X993Y1963D02*
X1068Y1963D01*
X1093Y1963D02*
X1168Y1963D01*
X993Y1962D02*
X1067Y1962D01*
X1093Y1962D02*
X1167Y1962D01*
X993Y1961D02*
X1067Y1961D01*
X1093Y1961D02*
X1167Y1961D01*
X994Y1960D02*
X1067Y1960D01*
X1094Y1960D02*
X1167Y1960D01*
X994Y1959D02*
X1066Y1959D01*
X1094Y1959D02*
X1166Y1959D01*
X995Y1958D02*
X1066Y1958D01*
X1095Y1958D02*
X1166Y1958D01*
X995Y1957D02*
X1065Y1957D01*
X1095Y1957D02*
X1165Y1957D01*
X996Y1956D02*
X1065Y1956D01*
X1096Y1956D02*
X1165Y1956D01*
X996Y1955D02*
X1064Y1955D01*
X1096Y1955D02*
X1164Y1955D01*
X997Y1954D02*
X1063Y1954D01*
X1097Y1954D02*
X1163Y1954D01*
X998Y1953D02*
X1063Y1953D01*
X1098Y1953D02*
X1163Y1953D01*
X998Y1952D02*
X1062Y1952D01*
X1098Y1952D02*
X1162Y1952D01*
X999Y1951D02*
X1061Y1951D01*
X1099Y1951D02*
X1161Y1951D01*
X1000Y1950D02*
X1061Y1950D01*
X1100Y1950D02*
X1160Y1950D01*
X1001Y1949D02*
X1060Y1949D01*
X1101Y1949D02*
X1160Y1949D01*
X1001Y1948D02*
X1059Y1948D01*
X1101Y1948D02*
X1159Y1948D01*
X1002Y1947D02*
X1058Y1947D01*
X1102Y1947D02*
X1158Y1947D01*
X1004Y1946D02*
X1057Y1946D01*
X1103Y1946D02*
X1157Y1946D01*
X1005Y1945D02*
X1056Y1945D01*
X1105Y1945D02*
X1156Y1945D01*
X1006Y1944D02*
X1054Y1944D01*
X1106Y1944D02*
X1154Y1944D01*
X1007Y1943D02*
X1053Y1943D01*
X1107Y1943D02*
X1153Y1943D01*
X1009Y1942D02*
X1052Y1942D01*
X1109Y1942D02*
X1152Y1942D01*
X1010Y1941D02*
X1050Y1941D01*
X1110Y1941D02*
X1150Y1941D01*
X1012Y1940D02*
X1048Y1940D01*
X1112Y1940D02*
X1148Y1940D01*
X1014Y1939D02*
X1046Y1939D01*
X1114Y1939D02*
X1146Y1939D01*
X1016Y1938D02*
X1044Y1938D01*
X1116Y1938D02*
X1144Y1938D01*
X1019Y1937D02*
X1041Y1937D01*
X1119Y1937D02*
X1141Y1937D01*
X1024Y1936D02*
X1036Y1936D01*
X1124Y1936D02*
X1136Y1936D01*
D02*
G04 End of Mask1*
M02*