; NON-PLATED HOLES START AT T1
; THROUGH (PLATED) HOLES START AT T100
M48
INCH
T100C0.015748
T101C0.031497
T102C0.030000
T103C0.094488
T104C0.040000
T105C0.035000
T106C0.038000
T107C0.042000
T108C0.035433
%
T100
X019558Y010245
X014310Y011986
X007801Y009750
X008058Y011745
X013307Y012002
X011058Y016245
X016058Y019745
X003808Y014245
X005308Y012245
X020058Y020495
X012808Y017748
X014310Y013504
X014813Y011495
X020558Y010995
X001308Y013745
X017063Y015997
X021552Y011492
X014049Y020488
X010808Y017745
X016558Y020245
X011058Y013245
X016057Y016992
X017057Y020745
X013308Y014995
X010808Y011245
X004056Y004744
X011804Y012992
X018558Y021245
X003558Y017745
X001058Y011495
X020064Y019252
X009556Y008987
X009821Y010733
X020553Y021991
X003062Y011492
X022558Y009495
X010311Y012245
T101
X005573Y004995
X006558Y004995
T102
X011308Y019745
X000808Y004995
X001808Y004995
X010308Y019745
T103
X005808Y000995
X001058Y022245
X023558Y022245
T104
X006308Y019745
X005308Y019745
X004308Y019745
T105
X006808Y016995
X007308Y004495
X004808Y004995
X006808Y015745
X004808Y008995
X002808Y016995
X002808Y015745
X007308Y008495
T106
X024558Y020495
X022558Y015495
X004058Y003245
X023558Y011995
X022558Y013495
X004058Y001245
X004058Y002245
X002808Y007995
X002058Y002245
X023558Y016495
X024558Y019495
X002058Y001245
X023558Y014495
X003058Y003245
X002058Y003245
X023558Y013495
X007308Y002245
X023558Y008995
X022558Y020495
X022558Y019495
X024558Y018495
X024558Y017495
X002808Y009245
X023558Y009995
X023558Y019495
X024558Y013495
X023558Y020495
X003808Y009245
X015308Y008995
X001808Y007995
X023558Y015495
X022558Y016495
X024558Y015495
X023558Y006995
X014308Y008995
X024558Y014495
X000808Y020495
X001808Y009245
X001058Y001245
X023558Y017495
X003058Y001245
X003808Y007995
X000808Y019495
X007308Y003245
X001058Y002245
X016308Y008995
X013308Y008995
X020308Y008995
X023558Y007995
X022558Y014495
X003058Y002245
X022558Y018495
X024558Y016495
X019308Y008995
X023558Y010995
X000808Y007995
X023558Y018495
X017308Y008995
X001058Y003245
X022558Y017495
X007308Y001245
X018308Y008995
T107
X008288Y014245
X005308Y014245
T108
X007308Y010245
X010308Y010245
X007308Y018245
X014308Y010245
X010308Y018245
X016308Y018245
X013308Y010245
X011308Y018245
X006308Y010245
X013308Y018245
X006308Y018245
X015308Y010245
X015308Y018245
X008308Y010245
X005308Y018245
X012308Y018245
X014308Y018245
X008308Y018245
X003308Y010245
X001308Y010245
X009307Y010245
X004308Y010245
X012308Y010245
X005308Y010245
X002308Y010245
X011308Y010245
X016308Y010245
X009307Y018245
T00
M30
