%TF.GenerationSoftware,KiCad,Pcbnew,9.0.1*%
%TF.CreationDate,2025-04-18T18:57:09+02:00*%
%TF.ProjectId,hexapod2_cli,68657861-706f-4643-925f-636c692e6b69,rev?*%
%TF.SameCoordinates,Original*%
%TF.FileFunction,Legend,Bot*%
%TF.FilePolarity,Positive*%
%FSLAX46Y46*%
G04 Gerber Fmt 4.6, Leading zero omitted, Abs format (unit mm)*
G04 Created by KiCad (PCBNEW 9.0.1) date 2025-04-18 18:57:09*
%MOMM*%
%LPD*%
G01*
G04 APERTURE LIST*
%ADD10C,0.150000*%
%ADD11C,0.120000*%
G04 APERTURE END LIST*
D10*
X97107333Y-111976819D02*
X97107333Y-112691104D01*
X97107333Y-112691104D02*
X97154952Y-112833961D01*
X97154952Y-112833961D02*
X97250190Y-112929200D01*
X97250190Y-112929200D02*
X97393047Y-112976819D01*
X97393047Y-112976819D02*
X97488285Y-112976819D01*
X96726380Y-111976819D02*
X96107333Y-111976819D01*
X96107333Y-111976819D02*
X96440666Y-112357771D01*
X96440666Y-112357771D02*
X96297809Y-112357771D01*
X96297809Y-112357771D02*
X96202571Y-112405390D01*
X96202571Y-112405390D02*
X96154952Y-112453009D01*
X96154952Y-112453009D02*
X96107333Y-112548247D01*
X96107333Y-112548247D02*
X96107333Y-112786342D01*
X96107333Y-112786342D02*
X96154952Y-112881580D01*
X96154952Y-112881580D02*
X96202571Y-112929200D01*
X96202571Y-112929200D02*
X96297809Y-112976819D01*
X96297809Y-112976819D02*
X96583523Y-112976819D01*
X96583523Y-112976819D02*
X96678761Y-112929200D01*
X96678761Y-112929200D02*
X96726380Y-112881580D01*
D11*
%TO.C,J3*%
X85658000Y-86742000D02*
X85658000Y-87502000D01*
X85658000Y-87502000D02*
X91658000Y-87502000D01*
X85658000Y-89282000D02*
X85658000Y-90042000D01*
X85658000Y-90042000D02*
X91658000Y-90042000D01*
X85658000Y-91822000D02*
X85658000Y-92582000D01*
X85658000Y-92582000D02*
X91658000Y-92582000D01*
X85658000Y-94362000D02*
X85658000Y-95122000D01*
X85658000Y-95122000D02*
X91658000Y-95122000D01*
X85658000Y-96902000D02*
X85658000Y-97662000D01*
X85658000Y-97662000D02*
X91658000Y-97662000D01*
X85658000Y-99442000D02*
X85658000Y-100202000D01*
X85658000Y-100202000D02*
X91658000Y-100202000D01*
X85658000Y-101982000D02*
X85658000Y-102742000D01*
X85658000Y-102742000D02*
X91658000Y-102742000D01*
X85658000Y-104522000D02*
X85658000Y-105282000D01*
X85658000Y-105282000D02*
X91658000Y-105282000D01*
X85658000Y-107062000D02*
X85658000Y-107822000D01*
X85658000Y-107822000D02*
X91658000Y-107822000D01*
X85658000Y-109602000D02*
X85658000Y-110362000D01*
X85658000Y-110362000D02*
X91658000Y-110362000D01*
X91658000Y-85792000D02*
X94318000Y-85792000D01*
X91658000Y-86742000D02*
X85658000Y-86742000D01*
X91658000Y-86802000D02*
X85658000Y-86802000D01*
X91658000Y-86922000D02*
X85658000Y-86922000D01*
X91658000Y-87042000D02*
X85658000Y-87042000D01*
X91658000Y-87162000D02*
X85658000Y-87162000D01*
X91658000Y-87282000D02*
X85658000Y-87282000D01*
X91658000Y-87402000D02*
X85658000Y-87402000D01*
X91658000Y-89282000D02*
X85658000Y-89282000D01*
X91658000Y-91822000D02*
X85658000Y-91822000D01*
X91658000Y-94362000D02*
X85658000Y-94362000D01*
X91658000Y-96902000D02*
X85658000Y-96902000D01*
X91658000Y-99442000D02*
X85658000Y-99442000D01*
X91658000Y-101982000D02*
X85658000Y-101982000D01*
X91658000Y-104522000D02*
X85658000Y-104522000D01*
X91658000Y-107062000D02*
X85658000Y-107062000D01*
X91658000Y-109602000D02*
X85658000Y-109602000D01*
X91658000Y-111312000D02*
X91658000Y-85792000D01*
X94318000Y-85792000D02*
X94318000Y-111312000D01*
X94318000Y-88392000D02*
X91658000Y-88392000D01*
X94318000Y-90932000D02*
X91658000Y-90932000D01*
X94318000Y-93472000D02*
X91658000Y-93472000D01*
X94318000Y-96012000D02*
X91658000Y-96012000D01*
X94318000Y-98552000D02*
X91658000Y-98552000D01*
X94318000Y-101092000D02*
X91658000Y-101092000D01*
X94318000Y-103632000D02*
X91658000Y-103632000D01*
X94318000Y-106172000D02*
X91658000Y-106172000D01*
X94318000Y-108712000D02*
X91658000Y-108712000D01*
X94318000Y-111312000D02*
X91658000Y-111312000D01*
X94715071Y-86742000D02*
X94318000Y-86742000D01*
X94715071Y-87502000D02*
X94318000Y-87502000D01*
X94715071Y-89282000D02*
X94318000Y-89282000D01*
X94715071Y-90042000D02*
X94318000Y-90042000D01*
X94715071Y-91822000D02*
X94318000Y-91822000D01*
X94715071Y-92582000D02*
X94318000Y-92582000D01*
X94715071Y-94362000D02*
X94318000Y-94362000D01*
X94715071Y-95122000D02*
X94318000Y-95122000D01*
X94715071Y-96902000D02*
X94318000Y-96902000D01*
X94715071Y-97662000D02*
X94318000Y-97662000D01*
X94715071Y-99442000D02*
X94318000Y-99442000D01*
X94715071Y-100202000D02*
X94318000Y-100202000D01*
X94715071Y-101982000D02*
X94318000Y-101982000D01*
X94715071Y-102742000D02*
X94318000Y-102742000D01*
X94715071Y-104522000D02*
X94318000Y-104522000D01*
X94715071Y-105282000D02*
X94318000Y-105282000D01*
X94715071Y-107062000D02*
X94318000Y-107062000D01*
X94715071Y-107822000D02*
X94318000Y-107822000D01*
X94715071Y-109602000D02*
X94318000Y-109602000D01*
X94715071Y-110362000D02*
X94318000Y-110362000D01*
X97188000Y-86742000D02*
X96800929Y-86742000D01*
X97188000Y-87502000D02*
X96800929Y-87502000D01*
X97255071Y-89282000D02*
X96800929Y-89282000D01*
X97255071Y-90042000D02*
X96800929Y-90042000D01*
X97255071Y-91822000D02*
X96800929Y-91822000D01*
X97255071Y-92582000D02*
X96800929Y-92582000D01*
X97255071Y-94362000D02*
X96800929Y-94362000D01*
X97255071Y-95122000D02*
X96800929Y-95122000D01*
X97255071Y-96902000D02*
X96800929Y-96902000D01*
X97255071Y-97662000D02*
X96800929Y-97662000D01*
X97255071Y-99442000D02*
X96800929Y-99442000D01*
X97255071Y-100202000D02*
X96800929Y-100202000D01*
X97255071Y-101982000D02*
X96800929Y-101982000D01*
X97255071Y-102742000D02*
X96800929Y-102742000D01*
X97255071Y-104522000D02*
X96800929Y-104522000D01*
X97255071Y-105282000D02*
X96800929Y-105282000D01*
X97255071Y-107062000D02*
X96800929Y-107062000D01*
X97255071Y-107822000D02*
X96800929Y-107822000D01*
X97255071Y-109602000D02*
X96800929Y-109602000D01*
X97255071Y-110362000D02*
X96800929Y-110362000D01*
X99568000Y-85852000D02*
X98298000Y-85852000D01*
X99568000Y-87122000D02*
X99568000Y-85852000D01*
%TD*%
M02*
