%TF.GenerationSoftware,KiCad,Pcbnew,9.0.1*%
%TF.CreationDate,2025-04-18T18:57:09+02:00*%
%TF.ProjectId,hexapod2_cli,68657861-706f-4643-925f-636c692e6b69,rev?*%
%TF.SameCoordinates,Original*%
%TF.FileFunction,Copper,L1,Top*%
%TF.FilePolarity,Positive*%
%FSLAX46Y46*%
G04 Gerber Fmt 4.6, Leading zero omitted, Abs format (unit mm)*
G04 Created by KiCad (PCBNEW 9.0.1) date 2025-04-18 18:57:09*
%MOMM*%
%LPD*%
G01*
G04 APERTURE LIST*
G04 Aperture macros list*
%AMRoundRect*
0 Rectangle with rounded corners*
0 $1 Rounding radius*
0 $2 $3 $4 $5 $6 $7 $8 $9 X,Y pos of 4 corners*
0 Add a 4 corners polygon primitive as box body*
4,1,4,$2,$3,$4,$5,$6,$7,$8,$9,$2,$3,0*
0 Add four circle primitives for the rounded corners*
1,1,$1+$1,$2,$3*
1,1,$1+$1,$4,$5*
1,1,$1+$1,$6,$7*
1,1,$1+$1,$8,$9*
0 Add four rect primitives between the rounded corners*
20,1,$1+$1,$2,$3,$4,$5,0*
20,1,$1+$1,$4,$5,$6,$7,0*
20,1,$1+$1,$6,$7,$8,$9,0*
20,1,$1+$1,$8,$9,$2,$3,0*%
%AMOutline5P*
0 Free polygon, 5 corners , with rotation*
0 The origin of the aperture is its center*
0 number of corners: always 5*
0 $1 to $10 corner X, Y*
0 $11 Rotation angle, in degrees counterclockwise*
0 create outline with 5 corners*
4,1,5,$1,$2,$3,$4,$5,$6,$7,$8,$9,$10,$1,$2,$11*%
%AMOutline6P*
0 Free polygon, 6 corners , with rotation*
0 The origin of the aperture is its center*
0 number of corners: always 6*
0 $1 to $12 corner X, Y*
0 $13 Rotation angle, in degrees counterclockwise*
0 create outline with 6 corners*
4,1,6,$1,$2,$3,$4,$5,$6,$7,$8,$9,$10,$11,$12,$1,$2,$13*%
%AMOutline7P*
0 Free polygon, 7 corners , with rotation*
0 The origin of the aperture is its center*
0 number of corners: always 7*
0 $1 to $14 corner X, Y*
0 $15 Rotation angle, in degrees counterclockwise*
0 create outline with 7 corners*
4,1,7,$1,$2,$3,$4,$5,$6,$7,$8,$9,$10,$11,$12,$13,$14,$1,$2,$15*%
%AMOutline8P*
0 Free polygon, 8 corners , with rotation*
0 The origin of the aperture is its center*
0 number of corners: always 8*
0 $1 to $16 corner X, Y*
0 $17 Rotation angle, in degrees counterclockwise*
0 create outline with 8 corners*
4,1,8,$1,$2,$3,$4,$5,$6,$7,$8,$9,$10,$11,$12,$13,$14,$15,$16,$1,$2,$17*%
G04 Aperture macros list end*
%TA.AperFunction,ComponentPad*%
%ADD10R,1.700000X1.700000*%
%TD*%
%TA.AperFunction,ComponentPad*%
%ADD11O,1.700000X1.700000*%
%TD*%
%TA.AperFunction,SMDPad,CuDef*%
%ADD12RoundRect,0.150000X-0.512500X-0.150000X0.512500X-0.150000X0.512500X0.150000X-0.512500X0.150000X0*%
%TD*%
%TA.AperFunction,SMDPad,CuDef*%
%ADD13RoundRect,0.237500X0.250000X0.237500X-0.250000X0.237500X-0.250000X-0.237500X0.250000X-0.237500X0*%
%TD*%
%TA.AperFunction,ComponentPad*%
%ADD14RoundRect,0.425000X0.425000X-0.425000X0.425000X0.425000X-0.425000X0.425000X-0.425000X-0.425000X0*%
%TD*%
%TA.AperFunction,SMDPad,CuDef*%
%ADD15RoundRect,0.237500X-0.250000X-0.237500X0.250000X-0.237500X0.250000X0.237500X-0.250000X0.237500X0*%
%TD*%
%TA.AperFunction,SMDPad,CuDef*%
%ADD16R,1.000000X0.750000*%
%TD*%
%TA.AperFunction,SMDPad,CuDef*%
%ADD17R,0.700000X0.510000*%
%TD*%
%TA.AperFunction,ComponentPad*%
%ADD18C,1.700000*%
%TD*%
%TA.AperFunction,SMDPad,CuDef*%
%ADD19RoundRect,0.250000X0.325000X0.450000X-0.325000X0.450000X-0.325000X-0.450000X0.325000X-0.450000X0*%
%TD*%
%TA.AperFunction,SMDPad,CuDef*%
%ADD20RoundRect,0.250000X-0.325000X-0.450000X0.325000X-0.450000X0.325000X0.450000X-0.325000X0.450000X0*%
%TD*%
%TA.AperFunction,SMDPad,CuDef*%
%ADD21RoundRect,0.250000X-0.412500X-0.650000X0.412500X-0.650000X0.412500X0.650000X-0.412500X0.650000X0*%
%TD*%
%TA.AperFunction,SMDPad,CuDef*%
%ADD22R,1.000000X0.600000*%
%TD*%
%TA.AperFunction,SMDPad,CuDef*%
%ADD23RoundRect,0.150000X0.425000X-0.150000X0.425000X0.150000X-0.425000X0.150000X-0.425000X-0.150000X0*%
%TD*%
%TA.AperFunction,SMDPad,CuDef*%
%ADD24RoundRect,0.075000X0.500000X-0.075000X0.500000X0.075000X-0.500000X0.075000X-0.500000X-0.075000X0*%
%TD*%
%TA.AperFunction,HeatsinkPad*%
%ADD25O,2.100000X1.000000*%
%TD*%
%TA.AperFunction,HeatsinkPad*%
%ADD26O,1.800000X1.000000*%
%TD*%
%TA.AperFunction,ComponentPad*%
%ADD27RoundRect,0.250000X-0.600000X-0.600000X0.600000X-0.600000X0.600000X0.600000X-0.600000X0.600000X0*%
%TD*%
%TA.AperFunction,ComponentPad*%
%ADD28Outline5P,-0.850000X0.510000X-0.510000X0.850000X0.850000X0.850000X0.850000X-0.850000X-0.850000X-0.850000X0.000000*%
%TD*%
%TA.AperFunction,SMDPad,CuDef*%
%ADD29RoundRect,0.250000X0.412500X0.650000X-0.412500X0.650000X-0.412500X-0.650000X0.412500X-0.650000X0*%
%TD*%
%TA.AperFunction,ComponentPad*%
%ADD30RoundRect,0.425000X0.425000X0.425000X-0.425000X0.425000X-0.425000X-0.425000X0.425000X-0.425000X0*%
%TD*%
%TA.AperFunction,ViaPad*%
%ADD31C,3.500000*%
%TD*%
%TA.AperFunction,ViaPad*%
%ADD32C,0.800000*%
%TD*%
%TA.AperFunction,Conductor*%
%ADD33C,0.254000*%
%TD*%
%TA.AperFunction,Conductor*%
%ADD34C,1.270000*%
%TD*%
%TA.AperFunction,Conductor*%
%ADD35C,0.250000*%
%TD*%
%TA.AperFunction,Conductor*%
%ADD36C,0.381000*%
%TD*%
%TA.AperFunction,Conductor*%
%ADD37C,0.508000*%
%TD*%
%TA.AperFunction,Conductor*%
%ADD38C,0.635000*%
%TD*%
G04 APERTURE END LIST*
D10*
%TO.P,J2,1,Pin_1*%
%TO.N,unconnected-(J2-Pin_1-Pad1)*%
X131764000Y-109113400D03*
D11*
%TO.P,J2,2,Pin_2*%
%TO.N,unconnected-(J2-Pin_2-Pad2)*%
X134304000Y-109113400D03*
%TO.P,J2,3,Pin_3*%
%TO.N,/V_S_bat*%
X136844000Y-109113400D03*
%TO.P,J2,4,Pin_4*%
%TO.N,/V_pot*%
X139384000Y-109113400D03*
%TO.P,J2,5,Pin_5*%
%TO.N,/TX_SC*%
X141924000Y-109113400D03*
%TO.P,J2,6,Pin_6*%
%TO.N,/RX_SC*%
X144464000Y-109113400D03*
%TO.P,J2,7,Pin_7*%
%TO.N,/SPI_CS_3280*%
X147004000Y-109113400D03*
%TO.P,J2,8,Pin_8*%
%TO.N,/SPI_CLK_3280*%
X149544000Y-109113400D03*
%TO.P,J2,9,Pin_9*%
%TO.N,/SPI_RX_3280*%
X152084000Y-109113400D03*
%TO.P,J2,10,Pin_10*%
%TO.N,/SPI_TX_3280*%
X154624000Y-109113400D03*
%TD*%
D12*
%TO.P,U2,1,STAT*%
%TO.N,/STAT*%
X164089500Y-89347000D03*
%TO.P,U2,2,V_{SS}*%
%TO.N,GND1*%
X164089500Y-90297000D03*
%TO.P,U2,3,V_{BAT}*%
%TO.N,/Bat*%
X164089500Y-91247000D03*
%TO.P,U2,4,V_{DD}*%
%TO.N,Net-(D6-A)*%
X166364500Y-91247000D03*
%TO.P,U2,5,PROG*%
%TO.N,Net-(U2-PROG)*%
X166364500Y-89347000D03*
%TD*%
D13*
%TO.P,R5,1*%
%TO.N,/ADC0*%
X152019000Y-113284000D03*
%TO.P,R5,2*%
%TO.N,GND*%
X150194000Y-113284000D03*
%TD*%
D11*
%TO.P,U1,1,GPIO0*%
%TO.N,/RX_Cl*%
X174880000Y-100330000D03*
%TO.P,U1,2,GPIO1*%
%TO.N,/TX_Cl*%
X172340000Y-100330000D03*
D10*
%TO.P,U1,3,GND*%
%TO.N,GND1*%
X169800000Y-100330000D03*
D11*
%TO.P,U1,4,GPIO2*%
%TO.N,Net-(U1-GPIO2)*%
X167260000Y-100330000D03*
%TO.P,U1,5,GPIO3*%
%TO.N,Net-(U1-GPIO3)*%
X164720000Y-100330000D03*
%TO.P,U1,6,GPIO4*%
%TO.N,unconnected-(U1-GPIO4-Pad6)*%
X162180000Y-100330000D03*
%TO.P,U1,7,GPIO5*%
%TO.N,unconnected-(U1-GPIO5-Pad7)*%
X159640000Y-100330000D03*
D10*
%TO.P,U1,8,GND*%
%TO.N,unconnected-(U1-GND-Pad8)*%
X157100000Y-100330000D03*
D11*
%TO.P,U1,9,GPIO6*%
%TO.N,unconnected-(U1-GPIO6-Pad9)*%
X154560000Y-100330000D03*
%TO.P,U1,10,GPIO7*%
%TO.N,unconnected-(U1-GPIO7-Pad10)*%
X152020000Y-100330000D03*
%TO.P,U1,11,GPIO8*%
%TO.N,/_TX*%
X149480000Y-100330000D03*
%TO.P,U1,12,GPIO9*%
%TO.N,/_RX*%
X146940000Y-100330000D03*
D10*
%TO.P,U1,13,GND*%
%TO.N,unconnected-(U1-GND-Pad13)*%
X144400000Y-100330000D03*
D11*
%TO.P,U1,14,GPIO10*%
%TO.N,unconnected-(U1-GPIO10-Pad14)*%
X141860000Y-100330000D03*
%TO.P,U1,15,GPIO11*%
%TO.N,/_D2*%
X139320000Y-100330000D03*
%TO.P,U1,16,GPIO12*%
%TO.N,/_SDA*%
X136780000Y-100330000D03*
%TO.P,U1,17,GPIO13*%
%TO.N,/_SCL*%
X134240000Y-100330000D03*
D10*
%TO.P,U1,18,GND*%
%TO.N,unconnected-(U1-GND-Pad18)*%
X131700000Y-100330000D03*
D11*
%TO.P,U1,19,GPIO14*%
%TO.N,/TFT_BL*%
X129160000Y-100330000D03*
%TO.P,U1,20,GPIO15*%
%TO.N,unconnected-(U1-GPIO15-Pad20)*%
X126620000Y-100330000D03*
%TO.P,U1,21,GPIO16*%
%TO.N,/SPI_RX*%
X126620000Y-118110000D03*
%TO.P,U1,22,GPIO17*%
%TO.N,/TFT_CS*%
X129160000Y-118110000D03*
D10*
%TO.P,U1,23,GND*%
%TO.N,GND*%
X131700000Y-118110000D03*
D11*
%TO.P,U1,24,GPIO18*%
%TO.N,/TFT_CLK*%
X134240000Y-118110000D03*
%TO.P,U1,25,GPIO19*%
%TO.N,/TFT_TX*%
X136780000Y-118110000D03*
%TO.P,U1,26,GPIO20*%
%TO.N,/_D0*%
X139320000Y-118110000D03*
%TO.P,U1,27,GPIO21*%
%TO.N,/_D1*%
X141860000Y-118110000D03*
D10*
%TO.P,U1,28,GND*%
%TO.N,unconnected-(U1-GND-Pad28)*%
X144400000Y-118110000D03*
D11*
%TO.P,U1,29,GPIO22*%
%TO.N,/TFT_DC*%
X146940000Y-118110000D03*
%TO.P,U1,30,RUN*%
%TO.N,unconnected-(U1-RUN-Pad30)*%
X149480000Y-118110000D03*
%TO.P,U1,31,GPIO26_ADC0*%
%TO.N,/ADC0*%
X152020000Y-118110000D03*
%TO.P,U1,32,GPIO27_ADC1*%
%TO.N,/ADC1*%
X154560000Y-118110000D03*
D10*
%TO.P,U1,33,AGND*%
%TO.N,unconnected-(U1-AGND-Pad33)*%
X157100000Y-118110000D03*
D11*
%TO.P,U1,34,GPIO28_ADC2*%
%TO.N,/V_pot*%
X159640000Y-118110000D03*
%TO.P,U1,35,ADC_VREF*%
%TO.N,unconnected-(U1-ADC_VREF-Pad35)*%
X162180000Y-118110000D03*
%TO.P,U1,36,3V3*%
%TO.N,+3.3VA*%
X164720000Y-118110000D03*
%TO.P,U1,37,3V3_EN*%
%TO.N,unconnected-(U1-3V3_EN-Pad37)*%
X167260000Y-118110000D03*
D10*
%TO.P,U1,38,GND*%
%TO.N,unconnected-(U1-GND-Pad38)*%
X169800000Y-118110000D03*
D11*
%TO.P,U1,39,VSYS*%
%TO.N,Net-(Q1-S)*%
X172340000Y-118110000D03*
%TO.P,U1,40,VBUS*%
%TO.N,Net-(J8-Pin_2)*%
X174880000Y-118110000D03*
%TD*%
D10*
%TO.P,J1,1,Pin_1*%
%TO.N,/SCL1*%
X131764000Y-124353400D03*
D11*
%TO.P,J1,2,Pin_2*%
%TO.N,/SDA1*%
X134304000Y-124353400D03*
%TO.P,J1,3,Pin_3*%
%TO.N,/LED_y*%
X136844000Y-124353400D03*
%TO.P,J1,4,Pin_4*%
%TO.N,/buzzer*%
X139384000Y-124353400D03*
%TO.P,J1,5,Pin_5*%
%TO.N,unconnected-(J1-Pin_5-Pad5)*%
X141924000Y-124353400D03*
%TO.P,J1,6,Pin_6*%
%TO.N,unconnected-(J1-Pin_6-Pad6)*%
X144464000Y-124353400D03*
%TO.P,J1,7,Pin_7*%
%TO.N,+3.3VA*%
X147004000Y-124353400D03*
%TO.P,J1,8,Pin_8*%
%TO.N,unconnected-(J1-Pin_8-Pad8)*%
X149544000Y-124353400D03*
D14*
%TO.P,J1,9,Pin_9*%
%TO.N,GND*%
X152084000Y-124353400D03*
D11*
%TO.P,J1,10,Pin_10*%
%TO.N,/Bat*%
X154624000Y-124353400D03*
%TD*%
D15*
%TO.P,R11,1*%
%TO.N,Net-(J7-Pin_2)*%
X105386500Y-122174000D03*
%TO.P,R11,2*%
%TO.N,/TX_Cl*%
X107211500Y-122174000D03*
%TD*%
D16*
%TO.P,SW2,1,1*%
%TO.N,GND*%
X105585000Y-84358000D03*
X111585000Y-84358000D03*
%TO.P,SW2,2,2*%
%TO.N,/Run*%
X105585000Y-88108000D03*
X111585000Y-88108000D03*
%TD*%
D17*
%TO.P,Q1,1,D*%
%TO.N,+5V*%
X169511000Y-110749000D03*
%TO.P,Q1,2,D*%
X169511000Y-111699000D03*
%TO.P,Q1,3,G*%
%TO.N,Net-(J8-Pin_2)*%
X169511000Y-112649000D03*
%TO.P,Q1,4,S*%
%TO.N,Net-(Q1-S)*%
X171831000Y-112649000D03*
%TO.P,Q1,5,D*%
%TO.N,+5V*%
X171831000Y-111699000D03*
%TO.P,Q1,6,D*%
X171831000Y-110749000D03*
%TD*%
D10*
%TO.P,J7,1,Pin_1*%
%TO.N,+3.3VA*%
X105283000Y-119253000D03*
D18*
%TO.P,J7,2,Pin_2*%
%TO.N,Net-(J7-Pin_2)*%
X105283000Y-116713000D03*
%TO.P,J7,3,Pin_3*%
%TO.N,/TX_Cl*%
X107823000Y-119253000D03*
%TO.P,J7,4,Pin_4*%
%TO.N,/RX_Cl*%
X107823000Y-116713000D03*
%TO.P,J7,5,Pin_5*%
%TO.N,/TX_Srv*%
X110363000Y-119253000D03*
%TO.P,J7,6,Pin_6*%
%TO.N,/RX_Srv*%
X110363000Y-116713000D03*
%TO.P,J7,7,Pin_7*%
%TO.N,/RX_Cl*%
X112903000Y-119253000D03*
%TO.P,J7,8,Pin_8*%
%TO.N,/TX_Cl*%
X112903000Y-116713000D03*
%TD*%
D10*
%TO.P,J5,1,Pin_1*%
%TO.N,+5V*%
X121666000Y-90932000D03*
D18*
%TO.P,J5,2,Pin_2*%
%TO.N,/TFT_CS*%
X121666000Y-93472000D03*
%TO.P,J5,3,Pin_3*%
%TO.N,/TFT_CLK*%
X121666000Y-96012000D03*
%TO.P,J5,4,Pin_4*%
%TO.N,/TFT_TX*%
X121666000Y-98552000D03*
%TO.P,J5,5,Pin_5*%
%TO.N,/TFT_DC*%
X121666000Y-101092000D03*
%TO.P,J5,6,Pin_6*%
%TO.N,/TFT_BL*%
X121666000Y-103632000D03*
%TO.P,J5,7,Pin_7*%
%TO.N,GND*%
X121666000Y-106172000D03*
%TD*%
D13*
%TO.P,R16,1*%
%TO.N,Net-(J6-CC1)*%
X166497000Y-87122000D03*
%TO.P,R16,2*%
%TO.N,GND1*%
X164672000Y-87122000D03*
%TD*%
D15*
%TO.P,R14,1*%
%TO.N,Net-(D6-K)*%
X152630500Y-91821000D03*
%TO.P,R14,2*%
%TO.N,/STAT*%
X154455500Y-91821000D03*
%TD*%
%TO.P,R10,1*%
%TO.N,Net-(U3-GP7)*%
X116134500Y-75946000D03*
%TO.P,R10,2*%
%TO.N,Net-(D4-A)*%
X117959500Y-75946000D03*
%TD*%
%TO.P,R12,1*%
%TO.N,Net-(J7-Pin_2)*%
X111990500Y-122174000D03*
%TO.P,R12,2*%
%TO.N,/RX_Cl*%
X113815500Y-122174000D03*
%TD*%
D13*
%TO.P,R15,1*%
%TO.N,Net-(J6-CC2)*%
X166544000Y-85344000D03*
%TO.P,R15,2*%
%TO.N,GND1*%
X164719000Y-85344000D03*
%TD*%
D19*
%TO.P,D5,1,K*%
%TO.N,GND1*%
X158378000Y-94361000D03*
%TO.P,D5,2,A*%
%TO.N,Net-(D5-A)*%
X156328000Y-94361000D03*
%TD*%
D15*
%TO.P,R3,1*%
%TO.N,/ADC0*%
X144733000Y-113284000D03*
%TO.P,R3,2*%
%TO.N,/_Ai0*%
X146558000Y-113284000D03*
%TD*%
D20*
%TO.P,D6,1,K*%
%TO.N,Net-(D6-K)*%
X156328000Y-90551000D03*
%TO.P,D6,2,A*%
%TO.N,Net-(D6-A)*%
X158378000Y-90551000D03*
%TD*%
D15*
%TO.P,R2,1*%
%TO.N,/V_L_bat*%
X157607000Y-123825000D03*
%TO.P,R2,2*%
%TO.N,GND*%
X159432000Y-123825000D03*
%TD*%
%TO.P,R18,1*%
%TO.N,GND1*%
X164672000Y-95504000D03*
%TO.P,R18,2*%
%TO.N,Net-(U2-PROG)*%
X166497000Y-95504000D03*
%TD*%
D20*
%TO.P,D4,1,K*%
%TO.N,GND*%
X110345000Y-77089000D03*
%TO.P,D4,2,A*%
%TO.N,Net-(D4-A)*%
X112395000Y-77089000D03*
%TD*%
D15*
%TO.P,R7,1*%
%TO.N,Net-(U3-GP8)*%
X116134500Y-73787000D03*
%TO.P,R7,2*%
%TO.N,Net-(U1-GPIO3)*%
X117959500Y-73787000D03*
%TD*%
D21*
%TO.P,C2,1*%
%TO.N,Net-(D6-A)*%
X156552500Y-86995000D03*
%TO.P,C2,2*%
%TO.N,GND1*%
X159677500Y-86995000D03*
%TD*%
D15*
%TO.P,R4,1*%
%TO.N,/_Ai1*%
X139018000Y-113284000D03*
%TO.P,R4,2*%
%TO.N,/ADC1*%
X140843000Y-113284000D03*
%TD*%
D10*
%TO.P,J8,1,Pin_1*%
%TO.N,+5V*%
X163322000Y-124587000D03*
D18*
%TO.P,J8,2,Pin_2*%
%TO.N,Net-(J8-Pin_2)*%
X165862000Y-124587000D03*
%TD*%
D21*
%TO.P,C3,1*%
%TO.N,/Bat*%
X162902500Y-93472000D03*
%TO.P,C3,2*%
%TO.N,GND1*%
X166027500Y-93472000D03*
%TD*%
D10*
%TO.P,J4,1,Pin_1*%
%TO.N,+5V*%
X103200200Y-107848400D03*
D14*
%TO.P,J4,2,Pin_2*%
%TO.N,GND*%
X105740200Y-107848400D03*
D11*
%TO.P,J4,3,Pin_3*%
%TO.N,unconnected-(J4-Pin_3-Pad3)*%
X108280200Y-107848400D03*
%TO.P,J4,4,Pin_4*%
%TO.N,unconnected-(J4-Pin_4-Pad4)*%
X110820200Y-107848400D03*
%TD*%
D15*
%TO.P,R1,1*%
%TO.N,/Bat*%
X157560000Y-125476000D03*
%TO.P,R1,2*%
%TO.N,/V_L_bat*%
X159385000Y-125476000D03*
%TD*%
D16*
%TO.P,SW1,1,1*%
%TO.N,GND*%
X115920000Y-61879000D03*
X121920000Y-61879000D03*
%TO.P,SW1,2,2*%
%TO.N,/BootSel*%
X115920000Y-65629000D03*
X121920000Y-65629000D03*
%TD*%
D15*
%TO.P,R8,1*%
%TO.N,Net-(U3-GP7)*%
X119737500Y-75946000D03*
%TO.P,R8,2*%
%TO.N,Net-(U1-GPIO2)*%
X121562500Y-75946000D03*
%TD*%
D22*
%TO.P,D2,1,DOUT*%
%TO.N,unconnected-(D2-DOUT-Pad1)*%
X110522000Y-66772000D03*
%TO.P,D2,2,VSS*%
%TO.N,GND*%
X110522000Y-68072000D03*
%TO.P,D2,3,DIN*%
%TO.N,Net-(D1-DOUT)*%
X112522000Y-68072000D03*
%TO.P,D2,4,VDD*%
%TO.N,+3.3V*%
X112522000Y-66772000D03*
%TD*%
D23*
%TO.P,J6,A1,GND*%
%TO.N,GND1*%
X169167000Y-93497000D03*
%TO.P,J6,A4,VBUS*%
%TO.N,Net-(D6-A)*%
X169167000Y-92697000D03*
D24*
%TO.P,J6,A5,CC1*%
%TO.N,Net-(J6-CC1)*%
X169167000Y-91547000D03*
%TO.P,J6,A6,D+*%
%TO.N,/DP*%
X169167000Y-90547000D03*
%TO.P,J6,A7,D-*%
%TO.N,/DM*%
X169167000Y-90047000D03*
%TO.P,J6,A8,SBU1*%
%TO.N,unconnected-(J6-SBU1-PadA8)*%
X169167000Y-89047000D03*
D23*
%TO.P,J6,A9,VBUS*%
%TO.N,Net-(D6-A)*%
X169167000Y-87897000D03*
%TO.P,J6,A12,GND*%
%TO.N,GND1*%
X169167000Y-87097000D03*
%TO.P,J6,B1,GND*%
X169167000Y-87097000D03*
%TO.P,J6,B4,VBUS*%
%TO.N,Net-(D6-A)*%
X169167000Y-87897000D03*
D24*
%TO.P,J6,B5,CC2*%
%TO.N,Net-(J6-CC2)*%
X169167000Y-88547000D03*
%TO.P,J6,B6,D+*%
%TO.N,/DP*%
X169167000Y-89547000D03*
%TO.P,J6,B7,D-*%
%TO.N,/DM*%
X169167000Y-91047000D03*
%TO.P,J6,B8,SBU2*%
%TO.N,unconnected-(J6-SBU2-PadB8)*%
X169167000Y-92047000D03*
D23*
%TO.P,J6,B9,VBUS*%
%TO.N,Net-(D6-A)*%
X169167000Y-92697000D03*
%TO.P,J6,B12,GND*%
%TO.N,GND1*%
X169167000Y-93497000D03*
D25*
%TO.P,J6,S1,SHIELD*%
%TO.N,unconnected-(J6-SHIELD-PadS1)_1*%
X169742000Y-94617000D03*
D26*
%TO.N,unconnected-(J6-SHIELD-PadS1)*%
X173922000Y-94617000D03*
D25*
%TO.N,unconnected-(J6-SHIELD-PadS1)_2*%
X169742000Y-85977000D03*
D26*
%TO.N,unconnected-(J6-SHIELD-PadS1)_3*%
X173922000Y-85977000D03*
%TD*%
D27*
%TO.P,U3,-0*%
%TO.N,N/C*%
X127254000Y-64516000D03*
%TO.P,U3,-1*%
X150114000Y-64516000D03*
%TO.P,U3,-2*%
X129794000Y-67056000D03*
%TO.P,U3,-3*%
X147574000Y-67056000D03*
%TO.P,U3,-4,GND*%
%TO.N,GND*%
X127254000Y-87376000D03*
%TO.P,U3,-5*%
%TO.N,N/C*%
X150114000Y-87376000D03*
D11*
%TO.P,U3,0,GP0*%
%TO.N,/RX_Srv*%
X132334000Y-67056000D03*
%TO.P,U3,1,GP1*%
%TO.N,/TX_Srv*%
X129794000Y-64516000D03*
%TO.P,U3,2,GP2*%
%TO.N,/LED_y*%
X127254000Y-67056000D03*
%TO.P,U3,3,GP3*%
%TO.N,/NPix1*%
X129794000Y-69596000D03*
%TO.P,U3,3E,3V3_EN*%
%TO.N,unconnected-(U3-3V3_EN-Pad3E)*%
X134874000Y-64516000D03*
%TO.P,U3,3V,3V3*%
%TO.N,+3.3V*%
X134874000Y-67056000D03*
%TO.P,U3,4,GP4*%
%TO.N,/TX_SC*%
X127254000Y-69596000D03*
%TO.P,U3,5,GP5*%
%TO.N,/RX_SC*%
X129794000Y-72136000D03*
%TO.P,U3,6,GP6*%
%TO.N,/buzzer*%
X127254000Y-72136000D03*
%TO.P,U3,7,GP7*%
%TO.N,Net-(U3-GP7)*%
X129794000Y-74676000D03*
%TO.P,U3,8,GP8*%
%TO.N,Net-(U3-GP8)*%
X127254000Y-74676000D03*
%TO.P,U3,9,GP9*%
%TO.N,unconnected-(U3-GP9-Pad9)*%
X129794000Y-77216000D03*
%TO.P,U3,10,GP10*%
%TO.N,/SPI_CLK_3280*%
X127254000Y-77216000D03*
%TO.P,U3,11,GP11*%
%TO.N,/SPI_TX_3280*%
X129794000Y-79756000D03*
%TO.P,U3,12,GP12*%
%TO.N,/SPI_RX_3280*%
X127254000Y-79756000D03*
%TO.P,U3,13,GP13*%
%TO.N,/SPI_CS_3280*%
X129794000Y-82296000D03*
%TO.P,U3,14,GP14*%
%TO.N,unconnected-(U3-GP14-Pad14)*%
X127254000Y-82296000D03*
%TO.P,U3,15,GP15*%
%TO.N,unconnected-(U3-GP15-Pad15)*%
X129794000Y-84836000D03*
%TO.P,U3,16,GP16*%
%TO.N,unconnected-(U3-GP16-Pad16)*%
X127254000Y-84836000D03*
%TO.P,U3,17,GP17*%
%TO.N,unconnected-(U3-GP17-Pad17)*%
X129794000Y-87376000D03*
%TO.P,U3,18,GP18*%
%TO.N,/SDA1*%
X132334000Y-87376000D03*
%TO.P,U3,19,GP19*%
%TO.N,/SCL1*%
X132334000Y-84836000D03*
%TO.P,U3,20,GP20*%
%TO.N,unconnected-(U3-GP20-Pad20)*%
X134874000Y-87376000D03*
%TO.P,U3,21,GP21*%
%TO.N,unconnected-(U3-GP21-Pad21)*%
X134874000Y-84836000D03*
%TO.P,U3,22,GP22*%
%TO.N,unconnected-(U3-GP22-Pad22)*%
X137414000Y-87376000D03*
%TO.P,U3,23,GP23*%
%TO.N,unconnected-(U3-GP23-Pad23)*%
X137414000Y-84836000D03*
%TO.P,U3,24,GP24*%
%TO.N,unconnected-(U3-GP24-Pad24)*%
X139954000Y-87376000D03*
%TO.P,U3,25,GP25*%
%TO.N,unconnected-(U3-GP25-Pad25)*%
X139954000Y-84836000D03*
%TO.P,U3,26,GP26*%
%TO.N,unconnected-(U3-GP26-Pad26)*%
X142494000Y-87376000D03*
%TO.P,U3,27,GP27*%
%TO.N,unconnected-(U3-GP27-Pad27)*%
X142494000Y-84836000D03*
%TO.P,U3,28,GP28*%
%TO.N,unconnected-(U3-GP28-Pad28)*%
X145034000Y-87376000D03*
%TO.P,U3,29,GP29*%
%TO.N,unconnected-(U3-GP29-Pad29)*%
X145034000Y-84836000D03*
%TO.P,U3,30,GP30*%
%TO.N,unconnected-(U3-GP30-Pad30)*%
X147574000Y-87376000D03*
%TO.P,U3,31,GP31*%
%TO.N,unconnected-(U3-GP31-Pad31)*%
X147574000Y-84836000D03*
%TO.P,U3,32,GP32*%
%TO.N,unconnected-(U3-GP32-Pad32)*%
X150114000Y-84836000D03*
%TO.P,U3,33,GP33*%
%TO.N,unconnected-(U3-GP33-Pad33)*%
X147574000Y-82296000D03*
%TO.P,U3,34,GP34*%
%TO.N,unconnected-(U3-GP34-Pad34)*%
X150114000Y-82296000D03*
%TO.P,U3,35,GP35*%
%TO.N,unconnected-(U3-GP35-Pad35)*%
X147574000Y-79756000D03*
%TO.P,U3,36,GP36*%
%TO.N,unconnected-(U3-GP36-Pad36)*%
X150114000Y-79756000D03*
%TO.P,U3,37,GP37*%
%TO.N,unconnected-(U3-GP37-Pad37)*%
X147574000Y-77216000D03*
%TO.P,U3,38,GP38*%
%TO.N,unconnected-(U3-GP38-Pad38)*%
X150114000Y-77216000D03*
%TO.P,U3,39,GP39*%
%TO.N,unconnected-(U3-GP39-Pad39)*%
X147574000Y-74676000D03*
%TO.P,U3,40,GP40*%
%TO.N,unconnected-(U3-GP40-Pad40)*%
X150114000Y-74676000D03*
%TO.P,U3,41,GP41*%
%TO.N,/V_L_bat*%
X147574000Y-72136000D03*
%TO.P,U3,42,GP24*%
%TO.N,/V_S_bat*%
X150114000Y-72136000D03*
%TO.P,U3,43,GP43*%
%TO.N,unconnected-(U3-GP43-Pad43)*%
X147574000Y-69596000D03*
%TO.P,U3,44,GP44*%
%TO.N,unconnected-(U3-GP44-Pad44)*%
X150114000Y-69596000D03*
%TO.P,U3,45,GP45*%
%TO.N,unconnected-(U3-GP45-Pad45)*%
X150114000Y-67056000D03*
%TO.P,U3,46,GP46*%
%TO.N,unconnected-(U3-GP46-Pad46)*%
X147574000Y-64516000D03*
%TO.P,U3,47,GP47*%
%TO.N,unconnected-(U3-GP47-Pad47)*%
X145034000Y-67056000D03*
%TO.P,U3,AV,ADC_REF*%
%TO.N,unconnected-(U3-ADC_REF-PadAV)*%
X137414000Y-67056000D03*
%TO.P,U3,BS,BOOT_SEL*%
%TO.N,/BootSel*%
X145034000Y-64516000D03*
%TO.P,U3,RU,RUN*%
%TO.N,/Run*%
X137414000Y-64516000D03*
%TO.P,U3,SC,SWCLK*%
%TO.N,unconnected-(U3-SWCLK-PadSC)*%
X139954000Y-67056000D03*
%TO.P,U3,SD,SWDIO*%
%TO.N,unconnected-(U3-SWDIO-PadSD)*%
X142494000Y-67056000D03*
%TO.P,U3,U+,USB_DP*%
%TO.N,/DP*%
X139954000Y-64516000D03*
%TO.P,U3,U-,USB_DM*%
%TO.N,/DM*%
X142494000Y-64516000D03*
D28*
%TO.P,U3,VB,VBUS*%
%TO.N,+5V*%
X132334000Y-64516000D03*
%TD*%
D22*
%TO.P,D1,1,DOUT*%
%TO.N,Net-(D1-DOUT)*%
X110522000Y-69947000D03*
%TO.P,D1,2,VSS*%
%TO.N,GND*%
X110522000Y-71247000D03*
%TO.P,D1,3,DIN*%
%TO.N,/NPix1*%
X112522000Y-71247000D03*
%TO.P,D1,4,VDD*%
%TO.N,+3.3V*%
X112522000Y-69947000D03*
%TD*%
D29*
%TO.P,C1,1*%
%TO.N,+3.3V*%
X119507000Y-70485000D03*
%TO.P,C1,2*%
%TO.N,GND*%
X116382000Y-70485000D03*
%TD*%
D13*
%TO.P,R6,1*%
%TO.N,/ADC1*%
X135278500Y-113284000D03*
%TO.P,R6,2*%
%TO.N,GND*%
X133453500Y-113284000D03*
%TD*%
D15*
%TO.P,R9,1*%
%TO.N,Net-(U3-GP8)*%
X119761000Y-73787000D03*
%TO.P,R9,2*%
%TO.N,Net-(D3-A)*%
X121586000Y-73787000D03*
%TD*%
D13*
%TO.P,R17,1*%
%TO.N,Net-(D5-A)*%
X154455500Y-93726000D03*
%TO.P,R17,2*%
%TO.N,/STAT*%
X152630500Y-93726000D03*
%TD*%
D20*
%TO.P,D3,1,K*%
%TO.N,GND*%
X110345000Y-74930000D03*
%TO.P,D3,2,A*%
%TO.N,Net-(D3-A)*%
X112395000Y-74930000D03*
%TD*%
D10*
%TO.P,J3,1,Pin_1*%
%TO.N,/_SDA*%
X98298000Y-87122000D03*
D11*
%TO.P,J3,2,Pin_2*%
%TO.N,/_TX*%
X95758000Y-87122000D03*
%TO.P,J3,3,Pin_3*%
%TO.N,/_SCL*%
X98298000Y-89662000D03*
%TO.P,J3,4,Pin_4*%
%TO.N,/_RX*%
X95758000Y-89662000D03*
%TO.P,J3,5,Pin_5*%
%TO.N,+3.3V*%
X98298000Y-92202000D03*
%TO.P,J3,6,Pin_6*%
%TO.N,/_D1*%
X95758000Y-92202000D03*
D30*
%TO.P,J3,7,Pin_7*%
%TO.N,GND*%
X98298000Y-94742000D03*
%TO.P,J3,8,Pin_8*%
X95758000Y-94742000D03*
D11*
%TO.P,J3,9,Pin_9*%
%TO.N,/_Ai1*%
X98298000Y-97282000D03*
%TO.P,J3,10,Pin_10*%
%TO.N,/_Ai0*%
X95758000Y-97282000D03*
%TO.P,J3,11,Pin_11*%
%TO.N,+5V*%
X98298000Y-99822000D03*
%TO.P,J3,12,Pin_12*%
X95758000Y-99822000D03*
D30*
%TO.P,J3,13,Pin_13*%
%TO.N,GND*%
X98298000Y-102362000D03*
%TO.P,J3,14,Pin_14*%
X95758000Y-102362000D03*
D11*
%TO.P,J3,15,Pin_15*%
%TO.N,/_D2*%
X98298000Y-104902000D03*
%TO.P,J3,16,Pin_16*%
%TO.N,/_D0*%
X95758000Y-104902000D03*
%TO.P,J3,17,Pin_17*%
%TO.N,+5V*%
X98298000Y-107442000D03*
%TO.P,J3,18,Pin_18*%
X95758000Y-107442000D03*
D30*
%TO.P,J3,19,Pin_19*%
%TO.N,GND*%
X98298000Y-109982000D03*
%TO.P,J3,20,Pin_20*%
X95758000Y-109982000D03*
%TD*%
D31*
%TO.N,*%
X160999400Y-114828400D03*
X115914400Y-125598000D03*
X103824000Y-71648400D03*
X160974000Y-71648400D03*
D32*
%TO.N,/LED_y*%
X123571000Y-70612000D03*
%TO.N,/_SDA*%
X123190000Y-100965000D03*
X112395000Y-92837000D03*
%TO.N,/_SCL*%
X114427000Y-92202000D03*
X128651000Y-96572000D03*
X123190000Y-97188000D03*
%TO.N,/_D2*%
X123317000Y-110998000D03*
X111439681Y-104714319D03*
X128524000Y-111977000D03*
X104267000Y-104714319D03*
X138811000Y-103341000D03*
X128905000Y-104140000D03*
%TO.N,+3.3V*%
X120523000Y-68326000D03*
X115443000Y-68326000D03*
X108585000Y-68326000D03*
%TO.N,/V_S_bat*%
X155738000Y-105247000D03*
%TO.N,/SPI_RX_3280*%
X143117939Y-94743073D03*
X145796000Y-94147067D03*
%TO.N,/SPI_TX_3280*%
X147828000Y-94996000D03*
X144392933Y-94875067D03*
%TO.N,+5V*%
X173228000Y-111760000D03*
%TO.N,/RX_Cl*%
X127889000Y-107188000D03*
X127508000Y-113030000D03*
X123317000Y-113665000D03*
%TO.N,/TX_Cl*%
X126873000Y-106299000D03*
X123352000Y-112522000D03*
X126457000Y-112704000D03*
%TO.N,/SCL1*%
X125720265Y-94751357D03*
%TO.N,/SDA1*%
X126111000Y-95758000D03*
%TO.N,/_D0*%
X133350000Y-121920000D03*
X96774000Y-111633000D03*
%TO.N,/_TX*%
X123190000Y-102743000D03*
X111252000Y-92837000D03*
%TO.N,/V_L_bat*%
X156464000Y-122901000D03*
%TO.N,/NPix1*%
X123698000Y-69116500D03*
X119339368Y-68481500D03*
%TO.N,+3.3VA*%
X122809000Y-122809000D03*
X152908000Y-121412000D03*
%TO.N,/TFT_CS*%
X115406000Y-104775000D03*
X117348000Y-107823000D03*
X131572000Y-120396000D03*
%TO.N,/TFT_CLK*%
X132455933Y-116325933D03*
X116459000Y-104775000D03*
X120269000Y-115951000D03*
X123190000Y-115951000D03*
X118618000Y-107823000D03*
%TO.N,/TFT_TX*%
X117602000Y-104775000D03*
X123190000Y-114935000D03*
X120269000Y-114950997D03*
X132334000Y-115316000D03*
X119888000Y-107823000D03*
%TO.N,/TFT_DC*%
X144399000Y-101891000D03*
%TO.N,/TFT_BL*%
X126746000Y-104394000D03*
%TO.N,/_RX*%
X123190000Y-99568000D03*
X113572076Y-92802923D03*
%TO.N,/_D1*%
X110236000Y-92837000D03*
X123317000Y-105791000D03*
X129667000Y-109765000D03*
%TO.N,/_Ai0*%
X109474000Y-98552000D03*
X146558000Y-111252000D03*
X123317000Y-109855000D03*
X147828000Y-113208000D03*
%TO.N,/_Ai1*%
X137541000Y-113284000D03*
X109474000Y-97282000D03*
X123317000Y-108854997D03*
X135382000Y-110490000D03*
%TO.N,/ADC0*%
X152019000Y-114681000D03*
%TO.N,/Run*%
X111506000Y-63754000D03*
X104394000Y-86741000D03*
X136207500Y-61785500D03*
%TO.N,Net-(U1-GPIO3)*%
X122428000Y-86141000D03*
X125024726Y-93161274D03*
%TO.N,Net-(U1-GPIO2)*%
X123053945Y-85361129D03*
X125025726Y-92134142D03*
%TO.N,Net-(D6-A)*%
X167894000Y-87884000D03*
X167954342Y-92009483D03*
X159632933Y-90798933D03*
X165011136Y-92025642D03*
%TO.N,/STAT*%
X162687000Y-89347000D03*
X155702000Y-91821000D03*
%TO.N,Net-(U2-PROG)*%
X167513000Y-94834000D03*
X167501120Y-93126000D03*
%TO.N,GND1*%
X165735000Y-97028000D03*
X159893000Y-94488000D03*
%TO.N,Net-(J8-Pin_2)*%
X170815000Y-116205000D03*
X169164000Y-121285000D03*
%TD*%
D33*
%TO.N,/LED_y*%
X124728952Y-67056000D02*
X122970000Y-68814952D01*
X122970000Y-70011000D02*
X123571000Y-70612000D01*
X122970000Y-68814952D02*
X122970000Y-70011000D01*
X123571000Y-70612000D02*
X123698000Y-70739000D01*
X127254000Y-67056000D02*
X124728952Y-67056000D01*
%TO.N,GND*%
X110522000Y-68072000D02*
X109694000Y-68900000D01*
X111150000Y-71875000D02*
X114992000Y-71875000D01*
X111077500Y-71802500D02*
X110345000Y-72535000D01*
D34*
X128144000Y-121666000D02*
X131700000Y-118110000D01*
D33*
X142939820Y-114087000D02*
X140878820Y-112026000D01*
X110345000Y-74930000D02*
X110345000Y-77089000D01*
D34*
X94488000Y-94742000D02*
X92964000Y-96266000D01*
D33*
X110345000Y-77789000D02*
X119932000Y-87376000D01*
D34*
X98298000Y-109982000D02*
X95758000Y-109982000D01*
D33*
X110522000Y-74753000D02*
X110345000Y-74930000D01*
X110345000Y-77107000D02*
X105585000Y-81867000D01*
D34*
X92964000Y-99060000D02*
X92964000Y-100838000D01*
X92964000Y-100838000D02*
X94488000Y-102362000D01*
D33*
X109694000Y-70419000D02*
X110522000Y-71247000D01*
D34*
X121304704Y-87376000D02*
X127254000Y-87376000D01*
D33*
X111350000Y-66196000D02*
X115697000Y-61849000D01*
X119932000Y-87376000D02*
X121304704Y-87376000D01*
X110522000Y-68072000D02*
X111350000Y-67244000D01*
D34*
X131700000Y-118110000D02*
X135129000Y-121539000D01*
D33*
X140878820Y-112026000D02*
X134227000Y-112026000D01*
D34*
X98298000Y-94742000D02*
X113938704Y-94742000D01*
D33*
X110345000Y-77089000D02*
X110345000Y-77789000D01*
D34*
X94488000Y-109982000D02*
X92964000Y-108458000D01*
D33*
X121521000Y-61849000D02*
X121551000Y-61879000D01*
D34*
X95758000Y-94742000D02*
X98298000Y-94742000D01*
X113938704Y-94742000D02*
X121304704Y-87376000D01*
D33*
X134227000Y-112026000D02*
X133453500Y-112799500D01*
X110345000Y-72535000D02*
X110345000Y-74930000D01*
D34*
X95758000Y-94742000D02*
X94488000Y-94742000D01*
D33*
X157781000Y-122174000D02*
X157480000Y-122174000D01*
X133453500Y-116356500D02*
X131700000Y-118110000D01*
X159432000Y-123825000D02*
X157781000Y-122174000D01*
D34*
X152084000Y-123382000D02*
X152084000Y-124353400D01*
D33*
X150194000Y-113284000D02*
X149391000Y-114087000D01*
D34*
X95758000Y-102362000D02*
X98298000Y-102362000D01*
D33*
X105585000Y-84358000D02*
X111585000Y-84358000D01*
X115697000Y-61849000D02*
X121521000Y-61849000D01*
D34*
X125984000Y-121666000D02*
X128144000Y-121666000D01*
D33*
X157480000Y-122174000D02*
X154263400Y-122174000D01*
X133453500Y-112799500D02*
X133453500Y-113284000D01*
X111350000Y-67244000D02*
X111350000Y-66196000D01*
D34*
X107061000Y-106045000D02*
X121539000Y-106045000D01*
X121539000Y-106045000D02*
X121666000Y-106172000D01*
D33*
X133453500Y-113284000D02*
X133453500Y-116356500D01*
X154263400Y-122174000D02*
X152084000Y-124353400D01*
D34*
X95758000Y-109982000D02*
X94488000Y-109982000D01*
D33*
X110345000Y-77089000D02*
X110345000Y-77107000D01*
D34*
X121666000Y-106172000D02*
X121666000Y-117348000D01*
X135129000Y-121539000D02*
X150241000Y-121539000D01*
D33*
X110522000Y-71247000D02*
X111077500Y-71802500D01*
D34*
X92964000Y-108458000D02*
X92964000Y-99060000D01*
X98298000Y-109982000D02*
X104456599Y-109982000D01*
X105740200Y-107848400D02*
X105740200Y-107365800D01*
D33*
X111077500Y-71802500D02*
X111150000Y-71875000D01*
D34*
X105740200Y-107365800D02*
X107061000Y-106045000D01*
X104456599Y-109982000D02*
X105740200Y-108698399D01*
D33*
X149391000Y-114087000D02*
X142939820Y-114087000D01*
D34*
X150241000Y-121539000D02*
X152084000Y-123382000D01*
X92964000Y-96266000D02*
X92964000Y-99060000D01*
D33*
X105585000Y-81867000D02*
X105585000Y-84358000D01*
D34*
X121666000Y-117348000D02*
X125984000Y-121666000D01*
D33*
X114992000Y-71875000D02*
X116382000Y-70485000D01*
X121551000Y-61879000D02*
X121920000Y-61879000D01*
D34*
X94488000Y-102362000D02*
X95758000Y-102362000D01*
D33*
X109694000Y-68900000D02*
X109694000Y-70419000D01*
D34*
X105740200Y-108698399D02*
X105740200Y-107848400D01*
D35*
%TO.N,/_SDA*%
X110614190Y-89916000D02*
X112268000Y-91569810D01*
X98298000Y-87122000D02*
X99023000Y-87847000D01*
X123825000Y-101600000D02*
X135510000Y-101600000D01*
X123190000Y-100965000D02*
X123825000Y-101600000D01*
X103502190Y-89916000D02*
X110614190Y-89916000D01*
X112268000Y-91569810D02*
X112268000Y-92710000D01*
X112268000Y-92710000D02*
X112395000Y-92837000D01*
X99023000Y-87847000D02*
X101433190Y-87847000D01*
X135510000Y-101600000D02*
X136780000Y-100330000D01*
X101433190Y-87847000D02*
X103502190Y-89916000D01*
%TO.N,/_SCL*%
X94582000Y-90149116D02*
X94582000Y-89174884D01*
X123190000Y-97188000D02*
X127729000Y-97188000D01*
X96934000Y-90149116D02*
X96245116Y-90838000D01*
X98298000Y-89662000D02*
X97419701Y-89662000D01*
X100197850Y-85336040D02*
X103875810Y-89014000D01*
X103875810Y-89014000D02*
X110987810Y-89014000D01*
X128345000Y-96572000D02*
X128651000Y-96572000D01*
X127729000Y-97188000D02*
X128345000Y-96572000D01*
X96245116Y-90838000D02*
X95270884Y-90838000D01*
X94132000Y-88673810D02*
X94132000Y-86448489D01*
X96934000Y-90147701D02*
X96934000Y-90149116D01*
X95270884Y-90838000D02*
X94582000Y-90149116D01*
X95244449Y-85336040D02*
X100197850Y-85336040D01*
X94607537Y-89149347D02*
X94132000Y-88673810D01*
X94582000Y-89174884D02*
X94607537Y-89149347D01*
X114175810Y-92202000D02*
X114427000Y-92202000D01*
X97419701Y-89662000D02*
X96934000Y-90147701D01*
X94132000Y-86448489D02*
X95244449Y-85336040D01*
X110987810Y-89014000D02*
X114175810Y-92202000D01*
D33*
%TO.N,/_D2*%
X138012000Y-104140000D02*
X138811000Y-103341000D01*
X128524000Y-111977000D02*
X124296000Y-111977000D01*
X128905000Y-104140000D02*
X138012000Y-104140000D01*
X124296000Y-111977000D02*
X123317000Y-110998000D01*
X104267000Y-104714319D02*
X111439681Y-104714319D01*
%TO.N,+3.3V*%
X119507000Y-70485000D02*
X119507000Y-69342000D01*
D36*
X102108000Y-72960939D02*
X101682500Y-72535439D01*
X94758460Y-84819540D02*
X101743460Y-84819540D01*
D33*
X112522000Y-66772000D02*
X113350000Y-67600000D01*
D36*
X101682500Y-70761361D02*
X104117861Y-68326000D01*
X98298000Y-92202000D02*
X97056500Y-93443500D01*
X95243753Y-93443500D02*
X93345000Y-91544747D01*
X119888000Y-67691000D02*
X120523000Y-68326000D01*
X101682500Y-72535439D02*
X101682500Y-70761361D01*
X97056500Y-93443500D02*
X95243753Y-93443500D01*
D33*
X113350000Y-67600000D02*
X113350000Y-69119000D01*
D36*
X93345000Y-86233000D02*
X94758460Y-84819540D01*
X93345000Y-91544747D02*
X93345000Y-86233000D01*
X102108000Y-84455000D02*
X102108000Y-72960939D01*
D33*
X113314000Y-67564000D02*
X114681000Y-67564000D01*
X112522000Y-66772000D02*
X113314000Y-67564000D01*
X113350000Y-69119000D02*
X112522000Y-69947000D01*
D36*
X116078000Y-67691000D02*
X119888000Y-67691000D01*
D33*
X114681000Y-67564000D02*
X115443000Y-68326000D01*
X119507000Y-69342000D02*
X120523000Y-68326000D01*
D36*
X115443000Y-68326000D02*
X116078000Y-67691000D01*
X104117861Y-68326000D02*
X108585000Y-68326000D01*
X101743460Y-84819540D02*
X102108000Y-84455000D01*
D37*
%TO.N,/Bat*%
X162941000Y-96012000D02*
X165100000Y-98171000D01*
X176530000Y-99060000D02*
X176530000Y-120523000D01*
X158830000Y-126746000D02*
X157560000Y-125476000D01*
X160655000Y-126746000D02*
X158830000Y-126746000D01*
X165100000Y-98171000D02*
X175641000Y-98171000D01*
X162687000Y-122555000D02*
X161544000Y-123698000D01*
X162941000Y-93814500D02*
X162941000Y-96012000D01*
X161544000Y-123698000D02*
X161544000Y-125857000D01*
D38*
X154624000Y-124353400D02*
X156437400Y-124353400D01*
X162902500Y-91782500D02*
X162902500Y-93472000D01*
D37*
X175641000Y-98171000D02*
X176530000Y-99060000D01*
X174498000Y-122555000D02*
X162687000Y-122555000D01*
D38*
X163261000Y-91247000D02*
X162902500Y-91605500D01*
D37*
X176530000Y-120523000D02*
X174498000Y-122555000D01*
X163283500Y-93472000D02*
X162941000Y-93814500D01*
D38*
X162902500Y-91605500D02*
X162902500Y-91782500D01*
X164089500Y-91247000D02*
X163261000Y-91247000D01*
D37*
X161544000Y-125857000D02*
X160655000Y-126746000D01*
D38*
X156437400Y-124353400D02*
X157560000Y-125476000D01*
D33*
%TO.N,/V_S_bat*%
X140710400Y-105247000D02*
X136844000Y-109113400D01*
X155738000Y-105247000D02*
X140710400Y-105247000D01*
%TO.N,/V_pot*%
X146952548Y-110617000D02*
X152147000Y-110617000D01*
X152147000Y-110617000D02*
X159640000Y-118110000D01*
X146859548Y-110524000D02*
X146952548Y-110617000D01*
X140887600Y-110617000D02*
X146163452Y-110617000D01*
X146256452Y-110524000D02*
X146859548Y-110524000D01*
X139384000Y-109113400D02*
X140887600Y-110617000D01*
X146163452Y-110617000D02*
X146256452Y-110524000D01*
%TO.N,/SPI_RX_3280*%
X145796000Y-94147067D02*
X143713945Y-94147067D01*
X143713945Y-94147067D02*
X143117939Y-94743073D01*
%TO.N,/SPI_TX_3280*%
X144392933Y-94875067D02*
X144640866Y-95123000D01*
X147701000Y-95123000D02*
X147828000Y-94996000D01*
X144640866Y-95123000D02*
X147701000Y-95123000D01*
D38*
%TO.N,+5V*%
X98298000Y-99822000D02*
X103200200Y-104724200D01*
X169511000Y-110749000D02*
X169511000Y-111699000D01*
X171831000Y-110749000D02*
X171831000Y-111699000D01*
X119380000Y-90932000D02*
X121666000Y-90932000D01*
X110490000Y-99822000D02*
X119380000Y-90932000D01*
X98298000Y-107442000D02*
X102793800Y-107442000D01*
X95758000Y-99822000D02*
X98298000Y-99822000D01*
X103200200Y-104724200D02*
X103200200Y-107848400D01*
X102793800Y-107442000D02*
X103200200Y-107848400D01*
D37*
X173228000Y-111760000D02*
X171892000Y-111760000D01*
X171892000Y-111760000D02*
X171831000Y-111699000D01*
D38*
X169511000Y-110749000D02*
X171831000Y-110749000D01*
X98298000Y-99822000D02*
X110490000Y-99822000D01*
X95758000Y-107442000D02*
X98298000Y-107442000D01*
D33*
%TO.N,/RX_Cl*%
X112903000Y-119253000D02*
X113815500Y-120165500D01*
X111541000Y-117891000D02*
X112903000Y-119253000D01*
X113815500Y-120165500D02*
X113815500Y-122174000D01*
X140081000Y-104140000D02*
X171070000Y-104140000D01*
X123317000Y-113665000D02*
X126873000Y-113665000D01*
X129667000Y-105410000D02*
X138811000Y-105410000D01*
X138811000Y-105410000D02*
X140081000Y-104140000D01*
X171070000Y-104140000D02*
X174880000Y-100330000D01*
X107823000Y-116713000D02*
X109001000Y-117891000D01*
X127889000Y-107188000D02*
X129667000Y-105410000D01*
X109001000Y-117891000D02*
X111541000Y-117891000D01*
X126873000Y-113665000D02*
X127508000Y-113030000D01*
%TO.N,/TX_Cl*%
X169165000Y-103505000D02*
X172340000Y-100330000D01*
X123352000Y-112522000D02*
X123606000Y-112776000D01*
X126385000Y-112776000D02*
X126457000Y-112704000D01*
X139676548Y-103505000D02*
X169165000Y-103505000D01*
X123606000Y-112776000D02*
X126385000Y-112776000D01*
X126873000Y-106299000D02*
X128270000Y-104902000D01*
X107823000Y-121562500D02*
X107823000Y-119253000D01*
X138279548Y-104902000D02*
X139676548Y-103505000D01*
X128270000Y-104902000D02*
X138279548Y-104902000D01*
X107211500Y-122174000D02*
X107823000Y-121562500D01*
%TO.N,/SCL1*%
X125589781Y-94620873D02*
X125589781Y-94881841D01*
X126595320Y-89535000D02*
X124297726Y-91832594D01*
X125589781Y-94881841D02*
X125720265Y-94751357D01*
X124296726Y-92859726D02*
X124296726Y-93462822D01*
X131840944Y-89535000D02*
X126595320Y-89535000D01*
X133512000Y-87863944D02*
X131840944Y-89535000D01*
X124296726Y-93462822D02*
X124723178Y-93889274D01*
X124297726Y-92858726D02*
X124296726Y-92859726D01*
X124723178Y-93889274D02*
X124858182Y-93889274D01*
X133512000Y-86014000D02*
X133512000Y-87863944D01*
X132334000Y-84836000D02*
X133512000Y-86014000D01*
X124297726Y-91832594D02*
X124297726Y-92858726D01*
X124858182Y-93889274D02*
X125589781Y-94620873D01*
%TO.N,/SDA1*%
X126111000Y-95758000D02*
X125697360Y-95758000D01*
X130683000Y-89027000D02*
X132334000Y-87376000D01*
X125697360Y-95758000D02*
X123842726Y-93903366D01*
X123842726Y-93903366D02*
X123842726Y-91422274D01*
X123842726Y-91422274D02*
X126238000Y-89027000D01*
X126238000Y-89027000D02*
X130683000Y-89027000D01*
%TO.N,/_D0*%
X96774000Y-111633000D02*
X113283999Y-111633000D01*
X124826400Y-123175400D02*
X132094600Y-123175400D01*
X132094600Y-123175400D02*
X133350000Y-121920000D01*
X113283999Y-111633000D02*
X124826400Y-123175400D01*
D35*
%TO.N,/_TX*%
X111394997Y-91334617D02*
X110427380Y-90367000D01*
X110427380Y-90367000D02*
X103315380Y-90367000D01*
X125603000Y-103378000D02*
X137747280Y-103378000D01*
X147194000Y-102616000D02*
X149480000Y-100330000D01*
X97122000Y-88297000D02*
X96933000Y-88297000D01*
X137747280Y-103378000D02*
X138510280Y-102615000D01*
X124968000Y-102743000D02*
X125603000Y-103378000D01*
X139112720Y-102616000D02*
X147194000Y-102616000D01*
X139111720Y-102615000D02*
X139112720Y-102616000D01*
X101246380Y-88298000D02*
X97122000Y-88298000D01*
X96933000Y-88297000D02*
X95758000Y-87122000D01*
X111252000Y-92837000D02*
X111394997Y-92694003D01*
X123190000Y-102743000D02*
X124968000Y-102743000D01*
X138510280Y-102615000D02*
X139111720Y-102615000D01*
X111394997Y-92694003D02*
X111394997Y-91334617D01*
X103315380Y-90367000D02*
X101246380Y-88298000D01*
X97122000Y-88298000D02*
X97122000Y-88297000D01*
D38*
%TO.N,Net-(Q1-S)*%
X171831000Y-117601000D02*
X172340000Y-118110000D01*
X171831000Y-112649000D02*
X171831000Y-117601000D01*
D33*
%TO.N,Net-(D1-DOUT)*%
X112522000Y-68072000D02*
X110647000Y-69947000D01*
X110647000Y-69947000D02*
X110522000Y-69947000D01*
%TO.N,/V_L_bat*%
X157607000Y-123825000D02*
X157734000Y-123825000D01*
X157388000Y-123825000D02*
X156464000Y-122901000D01*
X157607000Y-123825000D02*
X157388000Y-123825000D01*
X157734000Y-123825000D02*
X159385000Y-125476000D01*
%TO.N,/NPix1*%
X115316000Y-69054000D02*
X115316000Y-69088000D01*
X113194000Y-70575000D02*
X112522000Y-71247000D01*
X115316000Y-69088000D02*
X113829000Y-70575000D01*
X128524000Y-68326000D02*
X129794000Y-69596000D01*
X124488500Y-68326000D02*
X128524000Y-68326000D01*
X123698000Y-69116500D02*
X124488500Y-68326000D01*
X116317048Y-68481500D02*
X115744548Y-69054000D01*
X113829000Y-70575000D02*
X113194000Y-70575000D01*
X115744548Y-69054000D02*
X115316000Y-69054000D01*
X119339368Y-68481500D02*
X116317048Y-68481500D01*
D37*
%TO.N,+3.3VA*%
X161418000Y-121412000D02*
X152908000Y-121412000D01*
D33*
X123816532Y-122809000D02*
X126538932Y-125531400D01*
X122809000Y-122809000D02*
X123816532Y-122809000D01*
X145826000Y-125531400D02*
X147004000Y-124353400D01*
D37*
X164720000Y-118110000D02*
X161418000Y-121412000D01*
D33*
X126538932Y-125531400D02*
X145826000Y-125531400D01*
%TO.N,/TFT_CS*%
X129339000Y-122629000D02*
X131572000Y-120396000D01*
X120015000Y-93472000D02*
X121666000Y-93472000D01*
X125585112Y-122629000D02*
X129339000Y-122629000D01*
X117348000Y-114391888D02*
X125585112Y-122629000D01*
X117348000Y-107823000D02*
X117348000Y-114391888D01*
X115406000Y-98081000D02*
X120015000Y-93472000D01*
X115406000Y-104775000D02*
X115406000Y-98081000D01*
%TO.N,/TFT_CLK*%
X132327933Y-116325933D02*
X131953000Y-115951000D01*
X116459000Y-104775000D02*
X116205000Y-104521000D01*
X131953000Y-115951000D02*
X123190000Y-115951000D01*
X132455933Y-116325933D02*
X132327933Y-116325933D01*
X118745000Y-96012000D02*
X121666000Y-96012000D01*
X120269000Y-115951000D02*
X120015000Y-115951000D01*
X116205000Y-104521000D02*
X116205000Y-98552000D01*
X120015000Y-115951000D02*
X118110000Y-114046000D01*
X116205000Y-98552000D02*
X118745000Y-96012000D01*
X118110000Y-108331000D02*
X118618000Y-107823000D01*
X118110000Y-114046000D02*
X118110000Y-108331000D01*
%TO.N,/TFT_TX*%
X119888000Y-107823000D02*
X118745000Y-108966000D01*
X118745000Y-113426997D02*
X120269000Y-114950997D01*
X123571000Y-115316000D02*
X132334000Y-115316000D01*
X116967000Y-104140000D02*
X117602000Y-104775000D01*
X123190000Y-114935000D02*
X123571000Y-115316000D01*
X121666000Y-98552000D02*
X117856000Y-98552000D01*
X116967000Y-99441000D02*
X116967000Y-104140000D01*
X118745000Y-108966000D02*
X118745000Y-113426997D01*
X117856000Y-98552000D02*
X116967000Y-99441000D01*
%TO.N,/TFT_DC*%
X123545455Y-101961093D02*
X123692362Y-102108000D01*
X122535093Y-101961093D02*
X123545455Y-101961093D01*
X144182000Y-102108000D02*
X144399000Y-101891000D01*
X123692362Y-102108000D02*
X144182000Y-102108000D01*
X121666000Y-101092000D02*
X122535093Y-101961093D01*
%TO.N,/TFT_BL*%
X121666000Y-103632000D02*
X122428000Y-104394000D01*
X122428000Y-104394000D02*
X126746000Y-104394000D01*
D35*
%TO.N,/_RX*%
X100011040Y-85787040D02*
X95431259Y-85787040D01*
X113594947Y-92780053D02*
X113121000Y-92780053D01*
X110801000Y-89465000D02*
X103689000Y-89465000D01*
X103689000Y-89465000D02*
X100011040Y-85787040D01*
X94583000Y-88487000D02*
X95758000Y-89662000D01*
X112719000Y-92134280D02*
X112719000Y-91383000D01*
X95431259Y-85787040D02*
X94583000Y-86635299D01*
X112719000Y-91383000D02*
X110801000Y-89465000D01*
X125119000Y-97639000D02*
X127915038Y-97639000D01*
X128257038Y-97297000D02*
X143907000Y-97297000D01*
X143907000Y-97297000D02*
X146940000Y-100330000D01*
X113121000Y-92780053D02*
X113121000Y-92536280D01*
X113572076Y-92802923D02*
X113594947Y-92780053D01*
X127915038Y-97639000D02*
X128257038Y-97297000D01*
X113121000Y-92536280D02*
X112719000Y-92134280D01*
X123190000Y-99568000D02*
X125119000Y-97639000D01*
X94583000Y-86635299D02*
X94583000Y-88487000D01*
%TO.N,/_D1*%
X96933000Y-91027000D02*
X107347000Y-91027000D01*
X108426000Y-91027000D02*
X110236000Y-92837000D01*
X129667000Y-109765000D02*
X125259000Y-109765000D01*
X125259000Y-109765000D02*
X123317000Y-107823000D01*
X95758000Y-92202000D02*
X96933000Y-91027000D01*
X123317000Y-107823000D02*
X123317000Y-105791000D01*
X107347000Y-91027000D02*
X108426000Y-91027000D01*
%TO.N,/_Ai0*%
X124714000Y-111252000D02*
X123317000Y-109855000D01*
X146558000Y-111252000D02*
X124714000Y-111252000D01*
X95758000Y-97282000D02*
X97028000Y-98552000D01*
X147828000Y-113208000D02*
X146634000Y-113208000D01*
X97028000Y-98552000D02*
X109474000Y-98552000D01*
X146634000Y-113208000D02*
X146558000Y-113284000D01*
%TO.N,/_Ai1*%
X98298000Y-97282000D02*
X109474000Y-97282000D01*
X124978720Y-110490000D02*
X135382000Y-110490000D01*
X123317000Y-108854997D02*
X123343717Y-108854997D01*
X123343717Y-108854997D02*
X124978720Y-110490000D01*
X137541000Y-113284000D02*
X139018000Y-113284000D01*
D33*
%TO.N,/ADC0*%
X151216000Y-112481000D02*
X152019000Y-113284000D01*
X152019000Y-113284000D02*
X152019000Y-114681000D01*
X144733000Y-113284000D02*
X145536000Y-112481000D01*
X145536000Y-112481000D02*
X151216000Y-112481000D01*
X152019000Y-118109000D02*
X152020000Y-118110000D01*
%TO.N,/ADC1*%
X136081500Y-112481000D02*
X140040000Y-112481000D01*
X140040000Y-112481000D02*
X140843000Y-113284000D01*
X142968000Y-115409000D02*
X151859000Y-115409000D01*
X135278500Y-113284000D02*
X136081500Y-112481000D01*
X140843000Y-113284000D02*
X142968000Y-115409000D01*
X151859000Y-115409000D02*
X154560000Y-118110000D01*
%TO.N,/BootSel*%
X122204000Y-65629000D02*
X124495000Y-63338000D01*
X143856000Y-63338000D02*
X145034000Y-64516000D01*
X115920000Y-65629000D02*
X121920000Y-65629000D01*
X121920000Y-65629000D02*
X122204000Y-65629000D01*
X124495000Y-63338000D02*
X143856000Y-63338000D01*
%TO.N,/Run*%
X114084000Y-61176000D02*
X111506000Y-63754000D01*
X105585000Y-88108000D02*
X111585000Y-88108000D01*
X135598000Y-61176000D02*
X114084000Y-61176000D01*
X105585000Y-88108000D02*
X105585000Y-87932000D01*
X105585000Y-87932000D02*
X104394000Y-86741000D01*
X136207500Y-61785500D02*
X135598000Y-61176000D01*
%TO.N,Net-(U1-GPIO3)*%
X111492000Y-77785342D02*
X111492000Y-76392658D01*
X113780000Y-75958000D02*
X115148000Y-74590000D01*
X129540000Y-96393000D02*
X160783000Y-96393000D01*
X160783000Y-96393000D02*
X164720000Y-100330000D01*
X111926658Y-75958000D02*
X113780000Y-75958000D01*
X119847658Y-86141000D02*
X111492000Y-77785342D01*
X115148000Y-74590000D02*
X117156500Y-74590000D01*
X122428000Y-86141000D02*
X119847658Y-86141000D01*
X117156500Y-74590000D02*
X117959500Y-73787000D01*
X125024726Y-93161274D02*
X126308274Y-93161274D01*
X111492000Y-76392658D02*
X111926658Y-75958000D01*
X126308274Y-93161274D02*
X129540000Y-96393000D01*
%TO.N,Net-(U1-GPIO2)*%
X123053945Y-85361129D02*
X123053945Y-84572945D01*
X125025726Y-92134142D02*
X126043142Y-92134142D01*
X123053945Y-84572945D02*
X122809000Y-84328000D01*
X161290000Y-95885000D02*
X164465000Y-99060000D01*
X165990000Y-99060000D02*
X167260000Y-100330000D01*
X122809000Y-77677000D02*
X121562500Y-76430500D01*
X126043142Y-92134142D02*
X129794000Y-95885000D01*
X122809000Y-84328000D02*
X122809000Y-77677000D01*
X129794000Y-95885000D02*
X161290000Y-95885000D01*
X164465000Y-99060000D02*
X165990000Y-99060000D01*
X121562500Y-76430500D02*
X121562500Y-75946000D01*
%TO.N,Net-(D3-A)*%
X114808000Y-72517000D02*
X120316000Y-72517000D01*
X120316000Y-72517000D02*
X121586000Y-73787000D01*
X112395000Y-74930000D02*
X114808000Y-72517000D01*
%TO.N,Net-(D4-A)*%
X115357000Y-75143000D02*
X117156500Y-75143000D01*
X112395000Y-77089000D02*
X113411000Y-77089000D01*
X117156500Y-75143000D02*
X117959500Y-75946000D01*
X113411000Y-77089000D02*
X115357000Y-75143000D01*
%TO.N,Net-(U3-GP8)*%
X119761000Y-73787000D02*
X120650000Y-74676000D01*
X120650000Y-74676000D02*
X127254000Y-74676000D01*
X116134500Y-73787000D02*
X116937500Y-72984000D01*
X116937500Y-72984000D02*
X118958000Y-72984000D01*
X118958000Y-72984000D02*
X119761000Y-73787000D01*
%TO.N,Net-(U3-GP7)*%
X126766056Y-75854000D02*
X128616000Y-75854000D01*
X126055056Y-75143000D02*
X126766056Y-75854000D01*
X119737500Y-75946000D02*
X120540500Y-75143000D01*
X128616000Y-75854000D02*
X129794000Y-74676000D01*
X119888000Y-76026000D02*
X119808000Y-75946000D01*
X118934500Y-76749000D02*
X119737500Y-75946000D01*
X120540500Y-75143000D02*
X126055056Y-75143000D01*
X116937500Y-76749000D02*
X118934500Y-76749000D01*
X116134500Y-75946000D02*
X116937500Y-76749000D01*
%TO.N,Net-(J7-Pin_2)*%
X105386500Y-122174000D02*
X106189500Y-122977000D01*
X104105000Y-117891000D02*
X104105000Y-120892500D01*
X105283000Y-116713000D02*
X104105000Y-117891000D01*
X106189500Y-122977000D02*
X111187500Y-122977000D01*
X104105000Y-120892500D02*
X105386500Y-122174000D01*
X111187500Y-122977000D02*
X111990500Y-122174000D01*
D37*
%TO.N,Net-(D6-A)*%
X168340723Y-92697000D02*
X169167000Y-92697000D01*
D33*
X158378000Y-90551000D02*
X159385000Y-90551000D01*
D37*
X169154000Y-87884000D02*
X169167000Y-87897000D01*
D33*
X158378000Y-89544000D02*
X158378000Y-90551000D01*
D37*
X166364500Y-91247000D02*
X165789778Y-91247000D01*
X167954342Y-92310619D02*
X168340723Y-92697000D01*
D33*
X156552500Y-86995000D02*
X156552500Y-87718500D01*
D37*
X167954342Y-92009483D02*
X167954342Y-92310619D01*
X167894000Y-87884000D02*
X169154000Y-87884000D01*
D33*
X159385000Y-90551000D02*
X159632933Y-90798933D01*
X156552500Y-87718500D02*
X158378000Y-89544000D01*
D37*
X165789778Y-91247000D02*
X165011136Y-92025642D01*
D33*
%TO.N,Net-(D5-A)*%
X155693000Y-93726000D02*
X156328000Y-94361000D01*
X154455500Y-93726000D02*
X155693000Y-93726000D01*
%TO.N,Net-(D6-K)*%
X153900500Y-90551000D02*
X156328000Y-90551000D01*
X152630500Y-91821000D02*
X153900500Y-90551000D01*
%TO.N,Net-(J6-CC1)*%
X166497000Y-87516548D02*
X167809000Y-88828548D01*
X166497000Y-87122000D02*
X166497000Y-87516548D01*
X168519992Y-91547000D02*
X169167000Y-91547000D01*
X167809000Y-88828548D02*
X167809000Y-90836008D01*
X167809000Y-90836008D02*
X168519992Y-91547000D01*
%TO.N,/DP*%
X141316000Y-77703944D02*
X141316000Y-65878000D01*
X171630000Y-88584532D02*
X171630000Y-85278468D01*
X171630000Y-85278468D02*
X170754532Y-84403000D01*
X169167000Y-89547000D02*
X168519992Y-89547000D01*
X168264000Y-89802992D02*
X168264000Y-90291008D01*
X170667532Y-89547000D02*
X171630000Y-88584532D01*
X168264000Y-90291008D02*
X168519992Y-90547000D01*
X147086056Y-83474000D02*
X141316000Y-77703944D01*
X150601944Y-83474000D02*
X147086056Y-83474000D01*
X168519992Y-89547000D02*
X168264000Y-89802992D01*
X168519992Y-90547000D02*
X169167000Y-90547000D01*
X170754532Y-84403000D02*
X151530944Y-84403000D01*
X151530944Y-84403000D02*
X150601944Y-83474000D01*
X169167000Y-89547000D02*
X170667532Y-89547000D01*
X141316000Y-65878000D02*
X139954000Y-64516000D01*
%TO.N,Net-(J6-CC2)*%
X171120000Y-85634031D02*
X170634969Y-85149000D01*
X170634969Y-85149000D02*
X166739000Y-85149000D01*
X166739000Y-85149000D02*
X166544000Y-85344000D01*
X169167000Y-88547000D02*
X170787000Y-88547000D01*
X170787000Y-88547000D02*
X171120000Y-88214000D01*
X171120000Y-88214000D02*
X171120000Y-85634031D01*
%TO.N,/DM*%
X172085000Y-88773000D02*
X172085000Y-85090000D01*
X143672000Y-78394000D02*
X143672000Y-65694000D01*
X170180000Y-90805000D02*
X169938000Y-91047000D01*
X170943000Y-83948000D02*
X153431944Y-83948000D01*
X172085000Y-85090000D02*
X170943000Y-83948000D01*
X169167000Y-90047000D02*
X169930000Y-90047000D01*
X143672000Y-65694000D02*
X142494000Y-64516000D01*
X146212000Y-80934000D02*
X143672000Y-78394000D01*
X169930000Y-90047000D02*
X170180000Y-90297000D01*
X169938000Y-91047000D02*
X169167000Y-91047000D01*
X153431944Y-83948000D02*
X150417944Y-80934000D01*
X170180000Y-90297000D02*
X170180000Y-90678000D01*
X170180000Y-90678000D02*
X170180000Y-90805000D01*
X170180000Y-90678000D02*
X172085000Y-88773000D01*
X150417944Y-80934000D02*
X146212000Y-80934000D01*
%TO.N,/STAT*%
X154455500Y-91821000D02*
X154455500Y-91901000D01*
X155702000Y-91821000D02*
X154455500Y-91821000D01*
X164089500Y-89347000D02*
X162687000Y-89347000D01*
X154455500Y-91901000D02*
X152630500Y-93726000D01*
%TO.N,Net-(U2-PROG)*%
X167132000Y-91821000D02*
X167132000Y-92837000D01*
X167355000Y-91598000D02*
X167132000Y-91821000D01*
X167421000Y-93126000D02*
X167501120Y-93126000D01*
X167513000Y-94834000D02*
X167513000Y-94996000D01*
X167005000Y-95504000D02*
X166497000Y-95504000D01*
X167132000Y-92837000D02*
X167421000Y-93126000D01*
X167513000Y-94996000D02*
X167005000Y-95504000D01*
X167355000Y-90337500D02*
X167355000Y-91598000D01*
X166364500Y-89347000D02*
X167355000Y-90337500D01*
D37*
%TO.N,GND1*%
X158505000Y-94488000D02*
X158378000Y-94361000D01*
X164672000Y-95965000D02*
X165735000Y-97028000D01*
X164672000Y-86233000D02*
X164672000Y-85391000D01*
X164672000Y-95504000D02*
X164672000Y-95965000D01*
X164751999Y-90297000D02*
X164089500Y-90297000D01*
X168478426Y-93980000D02*
X168796426Y-93662000D01*
D36*
X168631000Y-87097000D02*
X167767000Y-86233000D01*
D37*
X164672000Y-87122000D02*
X164672000Y-86233000D01*
X165207000Y-87657000D02*
X165207000Y-89841999D01*
X169167000Y-87097000D02*
X168961426Y-87097000D01*
X159893000Y-94488000D02*
X158505000Y-94488000D01*
X166325750Y-93389250D02*
X166916500Y-93980000D01*
X159677500Y-87922500D02*
X160655000Y-88900000D01*
X164672000Y-85391000D02*
X164719000Y-85344000D01*
X164672000Y-87122000D02*
X165207000Y-87657000D01*
X160655000Y-92084000D02*
X158378000Y-94361000D01*
X164672000Y-95043000D02*
X166325750Y-93389250D01*
X166916500Y-93980000D02*
X168478426Y-93980000D01*
X160655000Y-88900000D02*
X160655000Y-92084000D01*
X164545000Y-86995000D02*
X159677500Y-86995000D01*
D36*
X167767000Y-86233000D02*
X164672000Y-86233000D01*
D37*
X164672000Y-87122000D02*
X164545000Y-86995000D01*
X159677500Y-86995000D02*
X159677500Y-87922500D01*
X169167000Y-93497000D02*
X169164000Y-93500000D01*
X165207000Y-89841999D02*
X164751999Y-90297000D01*
D36*
X169167000Y-87097000D02*
X168631000Y-87097000D01*
D37*
X164672000Y-95504000D02*
X164672000Y-95043000D01*
D38*
%TO.N,Net-(J8-Pin_2)*%
X173511500Y-119478500D02*
X174880000Y-118110000D01*
D33*
X170815000Y-113953000D02*
X170815000Y-116205000D01*
X169511000Y-112649000D02*
X170815000Y-113953000D01*
D38*
X169164000Y-121285000D02*
X170970500Y-119478500D01*
X170970500Y-119478500D02*
X173511500Y-119478500D01*
%TD*%
M02*
