%TF.GenerationSoftware,KiCad,Pcbnew,9.0.1*%
%TF.CreationDate,2025-04-18T18:57:09+02:00*%
%TF.ProjectId,hexapod2_cli,68657861-706f-4643-925f-636c692e6b69,rev?*%
%TF.SameCoordinates,Original*%
%TF.FileFunction,Soldermask,Bot*%
%TF.FilePolarity,Negative*%
%FSLAX46Y46*%
G04 Gerber Fmt 4.6, Leading zero omitted, Abs format (unit mm)*
G04 Created by KiCad (PCBNEW 9.0.1) date 2025-04-18 18:57:09*
%MOMM*%
%LPD*%
G01*
G04 APERTURE LIST*
G04 Aperture macros list*
%AMRoundRect*
0 Rectangle with rounded corners*
0 $1 Rounding radius*
0 $2 $3 $4 $5 $6 $7 $8 $9 X,Y pos of 4 corners*
0 Add a 4 corners polygon primitive as box body*
4,1,4,$2,$3,$4,$5,$6,$7,$8,$9,$2,$3,0*
0 Add four circle primitives for the rounded corners*
1,1,$1+$1,$2,$3*
1,1,$1+$1,$4,$5*
1,1,$1+$1,$6,$7*
1,1,$1+$1,$8,$9*
0 Add four rect primitives between the rounded corners*
20,1,$1+$1,$2,$3,$4,$5,0*
20,1,$1+$1,$4,$5,$6,$7,0*
20,1,$1+$1,$6,$7,$8,$9,0*
20,1,$1+$1,$8,$9,$2,$3,0*%
%AMOutline5P*
0 Free polygon, 5 corners , with rotation*
0 The origin of the aperture is its center*
0 number of corners: always 5*
0 $1 to $10 corner X, Y*
0 $11 Rotation angle, in degrees counterclockwise*
0 create outline with 5 corners*
4,1,5,$1,$2,$3,$4,$5,$6,$7,$8,$9,$10,$1,$2,$11*%
%AMOutline6P*
0 Free polygon, 6 corners , with rotation*
0 The origin of the aperture is its center*
0 number of corners: always 6*
0 $1 to $12 corner X, Y*
0 $13 Rotation angle, in degrees counterclockwise*
0 create outline with 6 corners*
4,1,6,$1,$2,$3,$4,$5,$6,$7,$8,$9,$10,$11,$12,$1,$2,$13*%
%AMOutline7P*
0 Free polygon, 7 corners , with rotation*
0 The origin of the aperture is its center*
0 number of corners: always 7*
0 $1 to $14 corner X, Y*
0 $15 Rotation angle, in degrees counterclockwise*
0 create outline with 7 corners*
4,1,7,$1,$2,$3,$4,$5,$6,$7,$8,$9,$10,$11,$12,$13,$14,$1,$2,$15*%
%AMOutline8P*
0 Free polygon, 8 corners , with rotation*
0 The origin of the aperture is its center*
0 number of corners: always 8*
0 $1 to $16 corner X, Y*
0 $17 Rotation angle, in degrees counterclockwise*
0 create outline with 8 corners*
4,1,8,$1,$2,$3,$4,$5,$6,$7,$8,$9,$10,$11,$12,$13,$14,$15,$16,$1,$2,$17*%
G04 Aperture macros list end*
%ADD10R,1.700000X1.700000*%
%ADD11O,1.700000X1.700000*%
%ADD12RoundRect,0.425000X0.425000X-0.425000X0.425000X0.425000X-0.425000X0.425000X-0.425000X-0.425000X0*%
%ADD13C,1.700000*%
%ADD14C,0.650000*%
%ADD15O,2.100000X1.000000*%
%ADD16O,1.800000X1.000000*%
%ADD17RoundRect,0.250000X-0.600000X-0.600000X0.600000X-0.600000X0.600000X0.600000X-0.600000X0.600000X0*%
%ADD18Outline5P,-0.850000X0.510000X-0.510000X0.850000X0.850000X0.850000X0.850000X-0.850000X-0.850000X-0.850000X0.000000*%
%ADD19RoundRect,0.425000X0.425000X0.425000X-0.425000X0.425000X-0.425000X-0.425000X0.425000X-0.425000X0*%
G04 APERTURE END LIST*
D10*
%TO.C,J2*%
X131764000Y-109113400D03*
D11*
X134304000Y-109113400D03*
X136844000Y-109113400D03*
X139384000Y-109113400D03*
X141924000Y-109113400D03*
X144464000Y-109113400D03*
X147004000Y-109113400D03*
X149544000Y-109113400D03*
X152084000Y-109113400D03*
X154624000Y-109113400D03*
%TD*%
%TO.C,U1*%
X174880000Y-100330000D03*
X172340000Y-100330000D03*
D10*
X169800000Y-100330000D03*
D11*
X167260000Y-100330000D03*
X164720000Y-100330000D03*
X162180000Y-100330000D03*
X159640000Y-100330000D03*
D10*
X157100000Y-100330000D03*
D11*
X154560000Y-100330000D03*
X152020000Y-100330000D03*
X149480000Y-100330000D03*
X146940000Y-100330000D03*
D10*
X144400000Y-100330000D03*
D11*
X141860000Y-100330000D03*
X139320000Y-100330000D03*
X136780000Y-100330000D03*
X134240000Y-100330000D03*
D10*
X131700000Y-100330000D03*
D11*
X129160000Y-100330000D03*
X126620000Y-100330000D03*
X126620000Y-118110000D03*
X129160000Y-118110000D03*
D10*
X131700000Y-118110000D03*
D11*
X134240000Y-118110000D03*
X136780000Y-118110000D03*
X139320000Y-118110000D03*
X141860000Y-118110000D03*
D10*
X144400000Y-118110000D03*
D11*
X146940000Y-118110000D03*
X149480000Y-118110000D03*
X152020000Y-118110000D03*
X154560000Y-118110000D03*
D10*
X157100000Y-118110000D03*
D11*
X159640000Y-118110000D03*
X162180000Y-118110000D03*
X164720000Y-118110000D03*
X167260000Y-118110000D03*
D10*
X169800000Y-118110000D03*
D11*
X172340000Y-118110000D03*
X174880000Y-118110000D03*
%TD*%
D10*
%TO.C,J1*%
X131764000Y-124353400D03*
D11*
X134304000Y-124353400D03*
X136844000Y-124353400D03*
X139384000Y-124353400D03*
X141924000Y-124353400D03*
X144464000Y-124353400D03*
X147004000Y-124353400D03*
X149544000Y-124353400D03*
D12*
X152084000Y-124353400D03*
D11*
X154624000Y-124353400D03*
%TD*%
D10*
%TO.C,J7*%
X105283000Y-119253000D03*
D13*
X105283000Y-116713000D03*
X107823000Y-119253000D03*
X107823000Y-116713000D03*
X110363000Y-119253000D03*
X110363000Y-116713000D03*
X112903000Y-119253000D03*
X112903000Y-116713000D03*
%TD*%
D10*
%TO.C,J5*%
X121666000Y-90932000D03*
D13*
X121666000Y-93472000D03*
X121666000Y-96012000D03*
X121666000Y-98552000D03*
X121666000Y-101092000D03*
X121666000Y-103632000D03*
X121666000Y-106172000D03*
%TD*%
D10*
%TO.C,J8*%
X163322000Y-124587000D03*
D13*
X165862000Y-124587000D03*
%TD*%
D10*
%TO.C,J4*%
X103200200Y-107848400D03*
D12*
X105740200Y-107848400D03*
D11*
X108280200Y-107848400D03*
X110820200Y-107848400D03*
%TD*%
D14*
%TO.C,J6*%
X170242000Y-93187000D03*
X170242000Y-87407000D03*
D15*
X169742000Y-94617000D03*
D16*
X173922000Y-94617000D03*
D15*
X169742000Y-85977000D03*
D16*
X173922000Y-85977000D03*
%TD*%
D17*
%TO.C,U3*%
X127254000Y-64516000D03*
X150114000Y-64516000D03*
X129794000Y-67056000D03*
X147574000Y-67056000D03*
X127254000Y-87376000D03*
X150114000Y-87376000D03*
D11*
X132334000Y-67056000D03*
X129794000Y-64516000D03*
X127254000Y-67056000D03*
X129794000Y-69596000D03*
X134874000Y-64516000D03*
X134874000Y-67056000D03*
X127254000Y-69596000D03*
X129794000Y-72136000D03*
X127254000Y-72136000D03*
X129794000Y-74676000D03*
X127254000Y-74676000D03*
X129794000Y-77216000D03*
X127254000Y-77216000D03*
X129794000Y-79756000D03*
X127254000Y-79756000D03*
X129794000Y-82296000D03*
X127254000Y-82296000D03*
X129794000Y-84836000D03*
X127254000Y-84836000D03*
X129794000Y-87376000D03*
X132334000Y-87376000D03*
X132334000Y-84836000D03*
X134874000Y-87376000D03*
X134874000Y-84836000D03*
X137414000Y-87376000D03*
X137414000Y-84836000D03*
X139954000Y-87376000D03*
X139954000Y-84836000D03*
X142494000Y-87376000D03*
X142494000Y-84836000D03*
X145034000Y-87376000D03*
X145034000Y-84836000D03*
X147574000Y-87376000D03*
X147574000Y-84836000D03*
X150114000Y-84836000D03*
X147574000Y-82296000D03*
X150114000Y-82296000D03*
X147574000Y-79756000D03*
X150114000Y-79756000D03*
X147574000Y-77216000D03*
X150114000Y-77216000D03*
X147574000Y-74676000D03*
X150114000Y-74676000D03*
X147574000Y-72136000D03*
X150114000Y-72136000D03*
X147574000Y-69596000D03*
X150114000Y-69596000D03*
X150114000Y-67056000D03*
X147574000Y-64516000D03*
X145034000Y-67056000D03*
X137414000Y-67056000D03*
X145034000Y-64516000D03*
X137414000Y-64516000D03*
X139954000Y-67056000D03*
X142494000Y-67056000D03*
X139954000Y-64516000D03*
X142494000Y-64516000D03*
D18*
X132334000Y-64516000D03*
%TD*%
D10*
%TO.C,J3*%
X98298000Y-87122000D03*
D11*
X95758000Y-87122000D03*
X98298000Y-89662000D03*
X95758000Y-89662000D03*
X98298000Y-92202000D03*
X95758000Y-92202000D03*
D19*
X98298000Y-94742000D03*
X95758000Y-94742000D03*
D11*
X98298000Y-97282000D03*
X95758000Y-97282000D03*
X98298000Y-99822000D03*
X95758000Y-99822000D03*
D19*
X98298000Y-102362000D03*
X95758000Y-102362000D03*
D11*
X98298000Y-104902000D03*
X95758000Y-104902000D03*
X98298000Y-107442000D03*
X95758000Y-107442000D03*
D19*
X98298000Y-109982000D03*
X95758000Y-109982000D03*
%TD*%
M02*
