G04 MADE WITH FRITZING*
G04 WWW.FRITZING.ORG*
G04 DOUBLE SIDED*
G04 HOLES PLATED*
G04 CONTOUR ON CENTER OF CONTOUR VECTOR*
%ASAXBY*%
%FSLAX23Y23*%
%MOIN*%
%OFA0B0*%
%SFA1.0B1.0*%
%ADD10C,0.008*%
%LNCONTOUR*%
G90*
G70*
G54D10*
X4Y2327D02*
X4Y2326D01*
X4Y6D01*
X5Y6D01*
X6Y6D01*
X7Y6D01*
X8Y6D01*
X9Y6D01*
X10Y6D01*
X11Y6D01*
X12Y6D01*
X13Y6D01*
X14Y6D01*
X15Y6D01*
X16Y6D01*
X17Y6D01*
X18Y6D01*
X19Y6D01*
X20Y6D01*
X21Y6D01*
X22Y6D01*
X23Y6D01*
X24Y6D01*
X25Y6D01*
X26Y6D01*
X27Y6D01*
X28Y6D01*
X29Y6D01*
X30Y6D01*
X31Y6D01*
X32Y6D01*
X33Y6D01*
X34Y6D01*
X35Y6D01*
X36Y6D01*
X37Y6D01*
X38Y6D01*
X39Y6D01*
X40Y6D01*
X41Y6D01*
X42Y6D01*
X43Y6D01*
X44Y6D01*
X45Y6D01*
X46Y6D01*
X47Y6D01*
X48Y6D01*
X49Y6D01*
X50Y6D01*
X51Y6D01*
X52Y6D01*
X53Y6D01*
X54Y6D01*
X55Y6D01*
X56Y6D01*
X57Y6D01*
X58Y6D01*
X59Y6D01*
X60Y6D01*
X61Y6D01*
X62Y6D01*
X63Y6D01*
X64Y6D01*
X65Y6D01*
X66Y6D01*
X67Y6D01*
X68Y6D01*
X69Y6D01*
X70Y6D01*
X71Y6D01*
X72Y6D01*
X73Y6D01*
X74Y6D01*
X75Y6D01*
X76Y6D01*
X77Y6D01*
X78Y6D01*
X79Y6D01*
X80Y6D01*
X81Y6D01*
X82Y6D01*
X83Y6D01*
X84Y6D01*
X85Y6D01*
X86Y6D01*
X87Y6D01*
X88Y6D01*
X89Y6D01*
X90Y6D01*
X91Y6D01*
X92Y6D01*
X93Y6D01*
X94Y6D01*
X95Y6D01*
X96Y6D01*
X97Y6D01*
X98Y6D01*
X99Y6D01*
X100Y6D01*
X101Y6D01*
X102Y6D01*
X103Y6D01*
X104Y6D01*
X105Y6D01*
X106Y6D01*
X107Y6D01*
X108Y6D01*
X109Y6D01*
X110Y6D01*
X111Y6D01*
X112Y6D01*
X113Y6D01*
X114Y6D01*
X115Y6D01*
X116Y6D01*
X117Y6D01*
X118Y6D01*
X119Y6D01*
X120Y6D01*
X121Y6D01*
X122Y6D01*
X123Y6D01*
X124Y6D01*
X125Y6D01*
X126Y6D01*
X127Y6D01*
X128Y6D01*
X129Y6D01*
X130Y6D01*
X131Y6D01*
X132Y6D01*
X133Y6D01*
X134Y6D01*
X135Y6D01*
X136Y6D01*
X137Y6D01*
X138Y6D01*
X139Y6D01*
X140Y6D01*
X141Y6D01*
X142Y6D01*
X143Y6D01*
X144Y6D01*
X145Y6D01*
X146Y6D01*
X147Y6D01*
X148Y6D01*
X149Y6D01*
X150Y6D01*
X151Y6D01*
X152Y6D01*
X153Y6D01*
X154Y6D01*
X155Y6D01*
X156Y6D01*
X157Y6D01*
X158Y6D01*
X159Y6D01*
X160Y6D01*
X161Y6D01*
X162Y6D01*
X163Y6D01*
X164Y6D01*
X165Y6D01*
X166Y6D01*
X167Y6D01*
X168Y6D01*
X169Y6D01*
X170Y6D01*
X171Y6D01*
X172Y6D01*
X173Y6D01*
X174Y6D01*
X175Y6D01*
X176Y6D01*
X177Y6D01*
X178Y6D01*
X179Y6D01*
X180Y6D01*
X181Y6D01*
X182Y6D01*
X183Y6D01*
X184Y6D01*
X185Y6D01*
X186Y6D01*
X187Y6D01*
X188Y6D01*
X189Y6D01*
X190Y6D01*
X191Y6D01*
X192Y6D01*
X193Y6D01*
X194Y6D01*
X195Y6D01*
X196Y6D01*
X197Y6D01*
X198Y6D01*
X199Y6D01*
X200Y6D01*
X201Y6D01*
X202Y6D01*
X203Y6D01*
X204Y6D01*
X205Y6D01*
X206Y6D01*
X207Y6D01*
X208Y6D01*
X209Y6D01*
X210Y6D01*
X211Y6D01*
X212Y6D01*
X213Y6D01*
X214Y6D01*
X215Y6D01*
X216Y6D01*
X217Y6D01*
X218Y6D01*
X219Y6D01*
X220Y6D01*
X221Y6D01*
X222Y6D01*
X223Y6D01*
X224Y6D01*
X225Y6D01*
X226Y6D01*
X227Y6D01*
X228Y6D01*
X229Y6D01*
X230Y6D01*
X231Y6D01*
X232Y6D01*
X233Y6D01*
X234Y6D01*
X235Y6D01*
X236Y6D01*
X237Y6D01*
X238Y6D01*
X239Y6D01*
X240Y6D01*
X241Y6D01*
X242Y6D01*
X243Y6D01*
X244Y6D01*
X245Y6D01*
X246Y6D01*
X247Y6D01*
X248Y6D01*
X249Y6D01*
X250Y6D01*
X251Y6D01*
X252Y6D01*
X253Y6D01*
X254Y6D01*
X255Y6D01*
X256Y6D01*
X257Y6D01*
X258Y6D01*
X259Y6D01*
X260Y6D01*
X261Y6D01*
X262Y6D01*
X263Y6D01*
X264Y6D01*
X265Y6D01*
X266Y6D01*
X267Y6D01*
X268Y6D01*
X269Y6D01*
X270Y6D01*
X271Y6D01*
X272Y6D01*
X273Y6D01*
X274Y6D01*
X275Y6D01*
X276Y6D01*
X277Y6D01*
X278Y6D01*
X279Y6D01*
X280Y6D01*
X281Y6D01*
X282Y6D01*
X283Y6D01*
X284Y6D01*
X285Y6D01*
X286Y6D01*
X287Y6D01*
X288Y6D01*
X289Y6D01*
X290Y6D01*
X291Y6D01*
X292Y6D01*
X293Y6D01*
X294Y6D01*
X295Y6D01*
X296Y6D01*
X297Y6D01*
X298Y6D01*
X299Y6D01*
X300Y6D01*
X301Y6D01*
X302Y6D01*
X303Y6D01*
X304Y6D01*
X305Y6D01*
X306Y6D01*
X307Y6D01*
X308Y6D01*
X309Y6D01*
X310Y6D01*
X311Y6D01*
X312Y6D01*
X313Y6D01*
X314Y6D01*
X315Y6D01*
X316Y6D01*
X317Y6D01*
X318Y6D01*
X319Y6D01*
X320Y6D01*
X321Y6D01*
X322Y6D01*
X323Y6D01*
X324Y6D01*
X325Y6D01*
X326Y6D01*
X327Y6D01*
X328Y6D01*
X329Y6D01*
X330Y6D01*
X331Y6D01*
X332Y6D01*
X333Y6D01*
X334Y6D01*
X335Y6D01*
X336Y6D01*
X337Y6D01*
X338Y6D01*
X339Y6D01*
X340Y6D01*
X341Y6D01*
X342Y6D01*
X343Y6D01*
X344Y6D01*
X345Y6D01*
X346Y6D01*
X347Y6D01*
X348Y6D01*
X349Y6D01*
X350Y6D01*
X351Y6D01*
X352Y6D01*
X353Y6D01*
X354Y6D01*
X355Y6D01*
X356Y6D01*
X357Y6D01*
X358Y6D01*
X359Y6D01*
X360Y6D01*
X361Y6D01*
X362Y6D01*
X363Y6D01*
X364Y6D01*
X365Y6D01*
X366Y6D01*
X367Y6D01*
X368Y6D01*
X369Y6D01*
X370Y6D01*
X371Y6D01*
X372Y6D01*
X373Y6D01*
X374Y6D01*
X375Y6D01*
X376Y6D01*
X377Y6D01*
X378Y6D01*
X379Y6D01*
X380Y6D01*
X381Y6D01*
X382Y6D01*
X383Y6D01*
X384Y6D01*
X385Y6D01*
X386Y6D01*
X387Y6D01*
X388Y6D01*
X389Y6D01*
X390Y6D01*
X391Y6D01*
X392Y6D01*
X393Y6D01*
X394Y6D01*
X395Y6D01*
X396Y6D01*
X397Y6D01*
X398Y6D01*
X399Y6D01*
X400Y6D01*
X401Y6D01*
X402Y6D01*
X403Y6D01*
X404Y6D01*
X405Y6D01*
X406Y6D01*
X407Y6D01*
X408Y6D01*
X409Y6D01*
X410Y6D01*
X411Y6D01*
X412Y6D01*
X413Y6D01*
X414Y6D01*
X415Y6D01*
X416Y6D01*
X417Y6D01*
X418Y6D01*
X419Y6D01*
X420Y6D01*
X421Y6D01*
X422Y6D01*
X423Y6D01*
X424Y6D01*
X425Y6D01*
X426Y6D01*
X427Y6D01*
X428Y6D01*
X429Y6D01*
X430Y6D01*
X431Y6D01*
X432Y6D01*
X433Y6D01*
X434Y6D01*
X435Y6D01*
X436Y6D01*
X437Y6D01*
X438Y6D01*
X439Y6D01*
X440Y6D01*
X441Y6D01*
X442Y6D01*
X443Y6D01*
X444Y6D01*
X445Y6D01*
X446Y6D01*
X447Y6D01*
X448Y6D01*
X449Y6D01*
X450Y6D01*
X451Y6D01*
X452Y6D01*
X453Y6D01*
X454Y6D01*
X455Y6D01*
X456Y6D01*
X457Y6D01*
X458Y6D01*
X459Y6D01*
X460Y6D01*
X461Y6D01*
X462Y6D01*
X463Y6D01*
X464Y6D01*
X465Y6D01*
X466Y6D01*
X467Y6D01*
X468Y6D01*
X469Y6D01*
X470Y6D01*
X471Y6D01*
X472Y6D01*
X473Y6D01*
X474Y6D01*
X475Y6D01*
X476Y6D01*
X477Y6D01*
X478Y6D01*
X479Y6D01*
X480Y6D01*
X481Y6D01*
X482Y6D01*
X483Y6D01*
X484Y6D01*
X485Y6D01*
X486Y6D01*
X487Y6D01*
X488Y6D01*
X489Y6D01*
X490Y6D01*
X491Y6D01*
X492Y6D01*
X493Y6D01*
X494Y6D01*
X495Y6D01*
X496Y6D01*
X497Y6D01*
X498Y6D01*
X499Y6D01*
X500Y6D01*
X501Y6D01*
X502Y6D01*
X503Y6D01*
X504Y6D01*
X505Y6D01*
X506Y6D01*
X507Y6D01*
X508Y6D01*
X509Y6D01*
X510Y6D01*
X511Y6D01*
X512Y6D01*
X513Y6D01*
X514Y6D01*
X515Y6D01*
X516Y6D01*
X517Y6D01*
X518Y6D01*
X519Y6D01*
X520Y6D01*
X521Y6D01*
X522Y6D01*
X523Y6D01*
X524Y6D01*
X525Y6D01*
X526Y6D01*
X527Y6D01*
X528Y6D01*
X529Y6D01*
X530Y6D01*
X531Y6D01*
X532Y6D01*
X533Y6D01*
X534Y6D01*
X535Y6D01*
X536Y6D01*
X537Y6D01*
X538Y6D01*
X539Y6D01*
X540Y6D01*
X541Y6D01*
X542Y6D01*
X543Y6D01*
X544Y6D01*
X545Y6D01*
X546Y6D01*
X547Y6D01*
X548Y6D01*
X549Y6D01*
X550Y6D01*
X551Y6D01*
X552Y6D01*
X553Y6D01*
X554Y6D01*
X555Y6D01*
X556Y6D01*
X557Y6D01*
X558Y6D01*
X559Y6D01*
X560Y6D01*
X561Y6D01*
X562Y6D01*
X563Y6D01*
X564Y6D01*
X565Y6D01*
X566Y6D01*
X567Y6D01*
X568Y6D01*
X569Y6D01*
X570Y6D01*
X571Y6D01*
X572Y6D01*
X573Y6D01*
X574Y6D01*
X575Y6D01*
X576Y6D01*
X577Y6D01*
X578Y6D01*
X579Y6D01*
X580Y6D01*
X581Y6D01*
X582Y6D01*
X583Y6D01*
X584Y6D01*
X585Y6D01*
X586Y6D01*
X587Y6D01*
X588Y6D01*
X589Y6D01*
X590Y6D01*
X591Y6D01*
X592Y6D01*
X593Y6D01*
X594Y6D01*
X595Y6D01*
X596Y6D01*
X597Y6D01*
X598Y6D01*
X599Y6D01*
X600Y6D01*
X601Y6D01*
X602Y6D01*
X603Y6D01*
X604Y6D01*
X605Y6D01*
X606Y6D01*
X607Y6D01*
X608Y6D01*
X609Y6D01*
X610Y6D01*
X611Y6D01*
X612Y6D01*
X613Y6D01*
X614Y6D01*
X615Y6D01*
X616Y6D01*
X617Y6D01*
X618Y6D01*
X619Y6D01*
X620Y6D01*
X621Y6D01*
X622Y6D01*
X623Y6D01*
X624Y6D01*
X625Y6D01*
X626Y6D01*
X627Y6D01*
X628Y6D01*
X629Y6D01*
X630Y6D01*
X631Y6D01*
X632Y6D01*
X633Y6D01*
X634Y6D01*
X635Y6D01*
X636Y6D01*
X637Y6D01*
X638Y6D01*
X639Y6D01*
X640Y6D01*
X641Y6D01*
X642Y6D01*
X643Y6D01*
X644Y6D01*
X645Y6D01*
X646Y6D01*
X647Y6D01*
X648Y6D01*
X649Y6D01*
X650Y6D01*
X651Y6D01*
X652Y6D01*
X653Y6D01*
X654Y6D01*
X655Y6D01*
X656Y6D01*
X657Y6D01*
X658Y6D01*
X659Y6D01*
X660Y6D01*
X661Y6D01*
X662Y6D01*
X663Y6D01*
X664Y6D01*
X665Y6D01*
X666Y6D01*
X667Y6D01*
X668Y6D01*
X669Y6D01*
X670Y6D01*
X671Y6D01*
X672Y6D01*
X673Y6D01*
X674Y6D01*
X675Y6D01*
X676Y6D01*
X677Y6D01*
X678Y6D01*
X679Y6D01*
X680Y6D01*
X681Y6D01*
X682Y6D01*
X683Y6D01*
X684Y6D01*
X685Y6D01*
X686Y6D01*
X687Y6D01*
X688Y6D01*
X689Y6D01*
X690Y6D01*
X691Y6D01*
X692Y6D01*
X693Y6D01*
X694Y6D01*
X695Y6D01*
X696Y6D01*
X697Y6D01*
X698Y6D01*
X699Y6D01*
X700Y6D01*
X701Y6D01*
X702Y6D01*
X703Y6D01*
X704Y6D01*
X705Y6D01*
X706Y6D01*
X707Y6D01*
X708Y6D01*
X709Y6D01*
X710Y6D01*
X711Y6D01*
X712Y6D01*
X713Y6D01*
X714Y6D01*
X715Y6D01*
X716Y6D01*
X717Y6D01*
X718Y6D01*
X719Y6D01*
X720Y6D01*
X721Y6D01*
X722Y6D01*
X723Y6D01*
X724Y6D01*
X725Y6D01*
X726Y6D01*
X727Y6D01*
X728Y6D01*
X729Y6D01*
X730Y6D01*
X731Y6D01*
X732Y6D01*
X733Y6D01*
X734Y6D01*
X735Y6D01*
X736Y6D01*
X737Y6D01*
X738Y6D01*
X739Y6D01*
X740Y6D01*
X741Y6D01*
X742Y6D01*
X743Y6D01*
X744Y6D01*
X745Y6D01*
X746Y6D01*
X747Y6D01*
X748Y6D01*
X749Y6D01*
X750Y6D01*
X751Y6D01*
X752Y6D01*
X753Y6D01*
X754Y6D01*
X755Y6D01*
X756Y6D01*
X757Y6D01*
X758Y6D01*
X759Y6D01*
X760Y6D01*
X761Y6D01*
X762Y6D01*
X763Y6D01*
X764Y6D01*
X765Y6D01*
X766Y6D01*
X767Y6D01*
X768Y6D01*
X769Y6D01*
X770Y6D01*
X771Y6D01*
X772Y6D01*
X773Y6D01*
X774Y6D01*
X775Y6D01*
X776Y6D01*
X777Y6D01*
X778Y6D01*
X779Y6D01*
X780Y6D01*
X781Y6D01*
X782Y6D01*
X783Y6D01*
X784Y6D01*
X785Y6D01*
X786Y6D01*
X787Y6D01*
X788Y6D01*
X789Y6D01*
X790Y6D01*
X790Y850D01*
X791Y851D01*
X792Y851D01*
X793Y851D01*
X794Y851D01*
X795Y851D01*
X796Y851D01*
X797Y851D01*
X798Y851D01*
X799Y851D01*
X800Y851D01*
X801Y851D01*
X802Y851D01*
X803Y851D01*
X804Y851D01*
X805Y851D01*
X806Y851D01*
X807Y851D01*
X808Y851D01*
X809Y851D01*
X810Y851D01*
X811Y851D01*
X812Y851D01*
X813Y851D01*
X814Y851D01*
X815Y851D01*
X816Y851D01*
X817Y851D01*
X818Y851D01*
X819Y851D01*
X820Y851D01*
X821Y851D01*
X822Y851D01*
X823Y851D01*
X824Y851D01*
X825Y851D01*
X826Y851D01*
X827Y851D01*
X828Y851D01*
X829Y851D01*
X830Y851D01*
X831Y851D01*
X832Y851D01*
X833Y851D01*
X834Y851D01*
X835Y851D01*
X836Y851D01*
X837Y851D01*
X838Y851D01*
X839Y851D01*
X840Y851D01*
X841Y851D01*
X842Y851D01*
X843Y851D01*
X844Y851D01*
X845Y851D01*
X846Y851D01*
X847Y851D01*
X848Y851D01*
X849Y851D01*
X850Y851D01*
X851Y851D01*
X852Y851D01*
X853Y851D01*
X854Y851D01*
X855Y851D01*
X856Y851D01*
X857Y851D01*
X858Y851D01*
X859Y851D01*
X860Y851D01*
X861Y851D01*
X862Y851D01*
X863Y851D01*
X864Y851D01*
X865Y851D01*
X866Y851D01*
X867Y851D01*
X868Y851D01*
X869Y851D01*
X870Y851D01*
X871Y851D01*
X872Y851D01*
X873Y851D01*
X874Y851D01*
X875Y851D01*
X876Y851D01*
X877Y851D01*
X878Y851D01*
X879Y851D01*
X880Y851D01*
X881Y851D01*
X882Y851D01*
X883Y851D01*
X884Y851D01*
X885Y851D01*
X886Y851D01*
X887Y851D01*
X888Y851D01*
X889Y851D01*
X890Y851D01*
X891Y851D01*
X892Y851D01*
X893Y851D01*
X894Y851D01*
X895Y851D01*
X896Y851D01*
X897Y851D01*
X898Y851D01*
X899Y851D01*
X900Y851D01*
X901Y851D01*
X902Y851D01*
X903Y851D01*
X904Y851D01*
X905Y851D01*
X906Y851D01*
X907Y851D01*
X908Y851D01*
X909Y851D01*
X910Y851D01*
X911Y851D01*
X912Y851D01*
X913Y851D01*
X914Y851D01*
X915Y851D01*
X916Y851D01*
X917Y851D01*
X918Y851D01*
X919Y851D01*
X920Y851D01*
X921Y851D01*
X922Y851D01*
X923Y851D01*
X924Y851D01*
X925Y851D01*
X926Y851D01*
X927Y851D01*
X928Y851D01*
X929Y851D01*
X930Y851D01*
X931Y851D01*
X932Y851D01*
X933Y851D01*
X934Y851D01*
X935Y851D01*
X936Y851D01*
X937Y851D01*
X938Y851D01*
X939Y851D01*
X940Y851D01*
X941Y851D01*
X942Y851D01*
X943Y851D01*
X944Y851D01*
X945Y851D01*
X946Y851D01*
X947Y851D01*
X948Y851D01*
X949Y851D01*
X950Y851D01*
X951Y851D01*
X952Y851D01*
X953Y851D01*
X954Y851D01*
X955Y851D01*
X956Y851D01*
X957Y851D01*
X958Y851D01*
X959Y851D01*
X960Y851D01*
X961Y851D01*
X962Y851D01*
X963Y851D01*
X964Y851D01*
X965Y851D01*
X966Y851D01*
X967Y851D01*
X968Y851D01*
X969Y851D01*
X970Y851D01*
X971Y851D01*
X972Y851D01*
X973Y851D01*
X974Y851D01*
X975Y851D01*
X976Y851D01*
X977Y851D01*
X978Y851D01*
X979Y851D01*
X980Y851D01*
X981Y851D01*
X982Y851D01*
X983Y851D01*
X984Y851D01*
X985Y851D01*
X986Y851D01*
X987Y851D01*
X988Y851D01*
X989Y851D01*
X990Y851D01*
X991Y851D01*
X992Y851D01*
X993Y851D01*
X994Y851D01*
X995Y851D01*
X996Y851D01*
X997Y851D01*
X998Y851D01*
X999Y851D01*
X1000Y851D01*
X1001Y851D01*
X1002Y851D01*
X1003Y851D01*
X1004Y851D01*
X1005Y851D01*
X1006Y851D01*
X1007Y851D01*
X1008Y851D01*
X1009Y851D01*
X1010Y851D01*
X1011Y851D01*
X1012Y851D01*
X1013Y851D01*
X1014Y851D01*
X1015Y851D01*
X1016Y851D01*
X1017Y851D01*
X1018Y851D01*
X1019Y851D01*
X1020Y851D01*
X1021Y851D01*
X1022Y851D01*
X1023Y851D01*
X1024Y851D01*
X1025Y851D01*
X1026Y851D01*
X1027Y851D01*
X1028Y851D01*
X1029Y851D01*
X1030Y851D01*
X1031Y851D01*
X1032Y851D01*
X1033Y851D01*
X1034Y851D01*
X1035Y851D01*
X1036Y851D01*
X1037Y851D01*
X1038Y851D01*
X1039Y851D01*
X1040Y851D01*
X1041Y851D01*
X1042Y851D01*
X1043Y851D01*
X1044Y851D01*
X1045Y851D01*
X1046Y851D01*
X1047Y851D01*
X1048Y851D01*
X1049Y851D01*
X1050Y851D01*
X1051Y851D01*
X1052Y851D01*
X1053Y851D01*
X1054Y851D01*
X1055Y851D01*
X1056Y851D01*
X1057Y851D01*
X1058Y851D01*
X1059Y851D01*
X1060Y851D01*
X1061Y851D01*
X1062Y851D01*
X1063Y851D01*
X1064Y851D01*
X1065Y851D01*
X1066Y851D01*
X1067Y851D01*
X1068Y851D01*
X1069Y851D01*
X1070Y851D01*
X1071Y851D01*
X1072Y851D01*
X1073Y851D01*
X1074Y851D01*
X1075Y851D01*
X1076Y851D01*
X1077Y851D01*
X1078Y851D01*
X1079Y851D01*
X1080Y851D01*
X1081Y851D01*
X1082Y851D01*
X1083Y851D01*
X1084Y851D01*
X1085Y851D01*
X1086Y851D01*
X1087Y851D01*
X1088Y851D01*
X1089Y851D01*
X1090Y851D01*
X1091Y851D01*
X1092Y851D01*
X1093Y851D01*
X1094Y851D01*
X1095Y851D01*
X1096Y851D01*
X1097Y851D01*
X1098Y851D01*
X1099Y851D01*
X1100Y851D01*
X1101Y851D01*
X1102Y851D01*
X1103Y851D01*
X1104Y851D01*
X1105Y851D01*
X1106Y851D01*
X1107Y851D01*
X1108Y851D01*
X1109Y851D01*
X1110Y851D01*
X1111Y851D01*
X1112Y851D01*
X1113Y851D01*
X1114Y851D01*
X1115Y851D01*
X1116Y851D01*
X1117Y851D01*
X1118Y851D01*
X1119Y851D01*
X1120Y851D01*
X1121Y851D01*
X1122Y851D01*
X1123Y851D01*
X1124Y851D01*
X1125Y851D01*
X1126Y851D01*
X1127Y851D01*
X1128Y851D01*
X1129Y851D01*
X1130Y851D01*
X1131Y851D01*
X1132Y851D01*
X1133Y851D01*
X1134Y851D01*
X1135Y851D01*
X1136Y851D01*
X1137Y851D01*
X1138Y851D01*
X1139Y851D01*
X1140Y851D01*
X1141Y851D01*
X1142Y851D01*
X1143Y851D01*
X1144Y851D01*
X1145Y851D01*
X1146Y851D01*
X1147Y851D01*
X1148Y851D01*
X1149Y851D01*
X1150Y851D01*
X1151Y851D01*
X1152Y851D01*
X1153Y851D01*
X1154Y851D01*
X1155Y851D01*
X1156Y851D01*
X1157Y851D01*
X1158Y851D01*
X1159Y851D01*
X1160Y851D01*
X1161Y851D01*
X1162Y851D01*
X1163Y851D01*
X1164Y851D01*
X1165Y851D01*
X1166Y851D01*
X1167Y851D01*
X1168Y851D01*
X1169Y851D01*
X1170Y851D01*
X1171Y851D01*
X1172Y851D01*
X1173Y851D01*
X1174Y851D01*
X1175Y851D01*
X1176Y851D01*
X1177Y851D01*
X1178Y851D01*
X1179Y851D01*
X1180Y851D01*
X1181Y851D01*
X1182Y851D01*
X1183Y851D01*
X1184Y851D01*
X1185Y851D01*
X1186Y851D01*
X1187Y851D01*
X1188Y851D01*
X1189Y851D01*
X1190Y851D01*
X1191Y851D01*
X1192Y851D01*
X1193Y851D01*
X1194Y851D01*
X1195Y851D01*
X1196Y851D01*
X1197Y851D01*
X1198Y851D01*
X1199Y851D01*
X1200Y851D01*
X1201Y851D01*
X1202Y851D01*
X1203Y851D01*
X1204Y851D01*
X1205Y851D01*
X1206Y851D01*
X1207Y851D01*
X1208Y851D01*
X1209Y851D01*
X1210Y851D01*
X1211Y851D01*
X1212Y851D01*
X1213Y851D01*
X1214Y851D01*
X1215Y851D01*
X1216Y851D01*
X1217Y851D01*
X1218Y851D01*
X1219Y851D01*
X1220Y851D01*
X1221Y851D01*
X1222Y851D01*
X1223Y851D01*
X1224Y851D01*
X1225Y851D01*
X1226Y851D01*
X1227Y851D01*
X1228Y851D01*
X1229Y851D01*
X1230Y851D01*
X1231Y851D01*
X1232Y851D01*
X1233Y851D01*
X1234Y851D01*
X1235Y851D01*
X1236Y851D01*
X1237Y851D01*
X1238Y851D01*
X1239Y851D01*
X1240Y851D01*
X1241Y851D01*
X1242Y851D01*
X1243Y851D01*
X1244Y851D01*
X1245Y851D01*
X1246Y851D01*
X1247Y851D01*
X1248Y851D01*
X1249Y851D01*
X1250Y851D01*
X1251Y851D01*
X1252Y851D01*
X1253Y851D01*
X1254Y851D01*
X1255Y851D01*
X1256Y851D01*
X1257Y851D01*
X1258Y851D01*
X1259Y851D01*
X1260Y851D01*
X1261Y851D01*
X1262Y851D01*
X1263Y851D01*
X1264Y851D01*
X1265Y851D01*
X1266Y851D01*
X1267Y851D01*
X1268Y851D01*
X1269Y851D01*
X1270Y851D01*
X1271Y851D01*
X1272Y851D01*
X1273Y851D01*
X1274Y851D01*
X1275Y851D01*
X1276Y851D01*
X1277Y851D01*
X1278Y851D01*
X1279Y851D01*
X1280Y851D01*
X1281Y851D01*
X1282Y851D01*
X1283Y851D01*
X1284Y851D01*
X1285Y851D01*
X1286Y851D01*
X1287Y851D01*
X1288Y851D01*
X1289Y851D01*
X1290Y851D01*
X1291Y851D01*
X1292Y851D01*
X1293Y851D01*
X1294Y851D01*
X1295Y851D01*
X1296Y851D01*
X1297Y851D01*
X1298Y851D01*
X1299Y851D01*
X1300Y851D01*
X1301Y851D01*
X1302Y851D01*
X1303Y851D01*
X1304Y851D01*
X1305Y851D01*
X1306Y851D01*
X1307Y851D01*
X1308Y851D01*
X1309Y851D01*
X1310Y851D01*
X1311Y851D01*
X1312Y851D01*
X1313Y851D01*
X1314Y851D01*
X1315Y851D01*
X1316Y851D01*
X1317Y851D01*
X1318Y851D01*
X1319Y851D01*
X1320Y851D01*
X1321Y851D01*
X1322Y851D01*
X1323Y851D01*
X1324Y851D01*
X1325Y851D01*
X1326Y851D01*
X1327Y851D01*
X1328Y851D01*
X1329Y851D01*
X1330Y851D01*
X1331Y851D01*
X1332Y851D01*
X1333Y851D01*
X1334Y851D01*
X1335Y851D01*
X1336Y851D01*
X1337Y851D01*
X1338Y851D01*
X1339Y851D01*
X1340Y851D01*
X1341Y851D01*
X1342Y851D01*
X1343Y851D01*
X1344Y851D01*
X1345Y851D01*
X1346Y851D01*
X1347Y851D01*
X1348Y851D01*
X1349Y851D01*
X1350Y851D01*
X1351Y851D01*
X1352Y851D01*
X1353Y851D01*
X1354Y851D01*
X1355Y851D01*
X1356Y851D01*
X1357Y851D01*
X1358Y851D01*
X1359Y851D01*
X1360Y851D01*
X1361Y851D01*
X1362Y851D01*
X1363Y851D01*
X1364Y851D01*
X1365Y851D01*
X1366Y851D01*
X1367Y851D01*
X1368Y851D01*
X1369Y851D01*
X1370Y851D01*
X1371Y851D01*
X1372Y851D01*
X1373Y851D01*
X1374Y851D01*
X1375Y851D01*
X1376Y851D01*
X1377Y851D01*
X1378Y851D01*
X1379Y851D01*
X1380Y851D01*
X1381Y851D01*
X1382Y851D01*
X1383Y851D01*
X1384Y851D01*
X1385Y851D01*
X1386Y851D01*
X1387Y851D01*
X1388Y851D01*
X1389Y851D01*
X1390Y851D01*
X1391Y851D01*
X1392Y851D01*
X1393Y851D01*
X1394Y851D01*
X1395Y851D01*
X1396Y851D01*
X1397Y851D01*
X1398Y851D01*
X1399Y851D01*
X1400Y851D01*
X1401Y851D01*
X1402Y851D01*
X1403Y851D01*
X1404Y851D01*
X1405Y851D01*
X1406Y851D01*
X1407Y851D01*
X1408Y851D01*
X1409Y851D01*
X1410Y851D01*
X1411Y851D01*
X1412Y851D01*
X1413Y851D01*
X1414Y851D01*
X1415Y851D01*
X1416Y851D01*
X1417Y851D01*
X1418Y851D01*
X1419Y851D01*
X1420Y851D01*
X1421Y851D01*
X1422Y851D01*
X1423Y851D01*
X1424Y851D01*
X1425Y851D01*
X1426Y851D01*
X1427Y851D01*
X1428Y851D01*
X1429Y851D01*
X1430Y851D01*
X1431Y851D01*
X1432Y851D01*
X1433Y851D01*
X1434Y851D01*
X1435Y851D01*
X1436Y851D01*
X1437Y851D01*
X1438Y851D01*
X1439Y851D01*
X1440Y851D01*
X1441Y851D01*
X1442Y851D01*
X1443Y851D01*
X1444Y851D01*
X1445Y851D01*
X1446Y851D01*
X1447Y851D01*
X1448Y851D01*
X1449Y851D01*
X1450Y851D01*
X1451Y851D01*
X1452Y851D01*
X1453Y851D01*
X1454Y851D01*
X1455Y851D01*
X1456Y851D01*
X1457Y851D01*
X1458Y851D01*
X1459Y851D01*
X1460Y851D01*
X1461Y851D01*
X1462Y851D01*
X1463Y851D01*
X1464Y851D01*
X1465Y851D01*
X1466Y851D01*
X1467Y851D01*
X1468Y851D01*
X1469Y851D01*
X1470Y851D01*
X1471Y851D01*
X1472Y851D01*
X1473Y851D01*
X1474Y851D01*
X1475Y851D01*
X1476Y851D01*
X1477Y851D01*
X1478Y851D01*
X1479Y851D01*
X1480Y851D01*
X1481Y851D01*
X1482Y851D01*
X1483Y851D01*
X1484Y851D01*
X1485Y851D01*
X1486Y851D01*
X1487Y851D01*
X1488Y851D01*
X1489Y851D01*
X1490Y851D01*
X1491Y851D01*
X1492Y851D01*
X1493Y851D01*
X1494Y851D01*
X1495Y851D01*
X1496Y851D01*
X1497Y851D01*
X1498Y851D01*
X1499Y851D01*
X1500Y851D01*
X1501Y851D01*
X1502Y851D01*
X1503Y851D01*
X1504Y851D01*
X1505Y851D01*
X1506Y851D01*
X1507Y851D01*
X1508Y851D01*
X1509Y851D01*
X1510Y851D01*
X1511Y851D01*
X1512Y851D01*
X1513Y851D01*
X1514Y851D01*
X1515Y851D01*
X1516Y851D01*
X1517Y851D01*
X1518Y851D01*
X1519Y851D01*
X1520Y851D01*
X1521Y851D01*
X1522Y851D01*
X1523Y851D01*
X1524Y851D01*
X1525Y851D01*
X1526Y851D01*
X1527Y851D01*
X1528Y851D01*
X1529Y851D01*
X1530Y851D01*
X1531Y851D01*
X1532Y851D01*
X1533Y851D01*
X1534Y851D01*
X1535Y851D01*
X1536Y851D01*
X1537Y851D01*
X1538Y851D01*
X1539Y851D01*
X1540Y851D01*
X1541Y851D01*
X1542Y851D01*
X1543Y851D01*
X1544Y851D01*
X1545Y851D01*
X1546Y851D01*
X1547Y851D01*
X1548Y851D01*
X1549Y851D01*
X1550Y851D01*
X1551Y851D01*
X1552Y851D01*
X1553Y851D01*
X1554Y851D01*
X1555Y851D01*
X1556Y851D01*
X1557Y851D01*
X1558Y851D01*
X1559Y851D01*
X1560Y851D01*
X1561Y851D01*
X1562Y851D01*
X1563Y851D01*
X1564Y851D01*
X1565Y851D01*
X1566Y851D01*
X1567Y851D01*
X1568Y851D01*
X1569Y851D01*
X1570Y851D01*
X1571Y851D01*
X1572Y851D01*
X1573Y851D01*
X1574Y851D01*
X1575Y851D01*
X1576Y851D01*
X1577Y851D01*
X1578Y851D01*
X1579Y851D01*
X1580Y851D01*
X1581Y851D01*
X1582Y851D01*
X1583Y851D01*
X1584Y851D01*
X1585Y851D01*
X1586Y851D01*
X1587Y851D01*
X1588Y851D01*
X1589Y851D01*
X1590Y851D01*
X1591Y851D01*
X1592Y851D01*
X1593Y851D01*
X1594Y851D01*
X1595Y851D01*
X1596Y851D01*
X1597Y851D01*
X1598Y851D01*
X1599Y851D01*
X1600Y851D01*
X1601Y851D01*
X1602Y851D01*
X1603Y851D01*
X1604Y851D01*
X1605Y851D01*
X1606Y851D01*
X1607Y851D01*
X1608Y851D01*
X1609Y851D01*
X1610Y851D01*
X1611Y851D01*
X1612Y851D01*
X1613Y851D01*
X1614Y851D01*
X1615Y851D01*
X1616Y851D01*
X1617Y851D01*
X1618Y851D01*
X1619Y851D01*
X1620Y851D01*
X1621Y851D01*
X1622Y851D01*
X1623Y851D01*
X1624Y851D01*
X1625Y851D01*
X1626Y851D01*
X1627Y851D01*
X1628Y851D01*
X1629Y851D01*
X1630Y851D01*
X1631Y851D01*
X1632Y851D01*
X1633Y851D01*
X1634Y851D01*
X1635Y851D01*
X1636Y851D01*
X1637Y851D01*
X1638Y851D01*
X1639Y851D01*
X1640Y851D01*
X1641Y851D01*
X1642Y851D01*
X1643Y851D01*
X1644Y851D01*
X1645Y851D01*
X1646Y851D01*
X1647Y851D01*
X1648Y851D01*
X1649Y851D01*
X1650Y851D01*
X1651Y851D01*
X1652Y851D01*
X1653Y851D01*
X1654Y851D01*
X1655Y851D01*
X1656Y851D01*
X1657Y851D01*
X1658Y851D01*
X1659Y851D01*
X1660Y851D01*
X1661Y851D01*
X1662Y851D01*
X1663Y851D01*
X1664Y851D01*
X1665Y851D01*
X1666Y851D01*
X1667Y851D01*
X1668Y851D01*
X1669Y851D01*
X1670Y851D01*
X1671Y851D01*
X1672Y851D01*
X1673Y851D01*
X1674Y851D01*
X1675Y851D01*
X1676Y851D01*
X1677Y851D01*
X1678Y851D01*
X1679Y851D01*
X1680Y851D01*
X1681Y851D01*
X1682Y851D01*
X1683Y851D01*
X1684Y851D01*
X1685Y851D01*
X1686Y851D01*
X1687Y851D01*
X1688Y851D01*
X1689Y851D01*
X1690Y851D01*
X1691Y851D01*
X1692Y851D01*
X1693Y851D01*
X1694Y851D01*
X1695Y851D01*
X1696Y851D01*
X1697Y851D01*
X1698Y851D01*
X1699Y851D01*
X1700Y851D01*
X1701Y851D01*
X1702Y851D01*
X1703Y851D01*
X1704Y851D01*
X1705Y851D01*
X1706Y851D01*
X1707Y851D01*
X1708Y851D01*
X1709Y851D01*
X1710Y851D01*
X1711Y851D01*
X1712Y851D01*
X1713Y851D01*
X1714Y851D01*
X1715Y851D01*
X1716Y851D01*
X1717Y851D01*
X1718Y851D01*
X1719Y851D01*
X1720Y851D01*
X1721Y851D01*
X1722Y851D01*
X1723Y851D01*
X1724Y851D01*
X1725Y851D01*
X1726Y851D01*
X1727Y851D01*
X1728Y851D01*
X1729Y851D01*
X1730Y851D01*
X1731Y851D01*
X1732Y851D01*
X1733Y851D01*
X1734Y851D01*
X1735Y851D01*
X1736Y851D01*
X1737Y851D01*
X1738Y851D01*
X1739Y851D01*
X1740Y851D01*
X1741Y851D01*
X1742Y851D01*
X1743Y851D01*
X1744Y851D01*
X1745Y851D01*
X1746Y851D01*
X1747Y851D01*
X1748Y851D01*
X1749Y851D01*
X1750Y851D01*
X1751Y851D01*
X1752Y851D01*
X1753Y851D01*
X1754Y851D01*
X1755Y851D01*
X1756Y851D01*
X1757Y851D01*
X1758Y851D01*
X1759Y851D01*
X1760Y851D01*
X1761Y851D01*
X1762Y851D01*
X1763Y851D01*
X1764Y851D01*
X1765Y851D01*
X1766Y851D01*
X1767Y851D01*
X1768Y851D01*
X1769Y851D01*
X1770Y851D01*
X1771Y851D01*
X1772Y851D01*
X1773Y851D01*
X1774Y851D01*
X1775Y851D01*
X1776Y851D01*
X1777Y851D01*
X1778Y851D01*
X1779Y851D01*
X1780Y851D01*
X1781Y851D01*
X1782Y851D01*
X1783Y851D01*
X1784Y851D01*
X1785Y851D01*
X1786Y851D01*
X1787Y851D01*
X1788Y851D01*
X1789Y851D01*
X1790Y851D01*
X1791Y851D01*
X1792Y851D01*
X1793Y851D01*
X1794Y851D01*
X1795Y851D01*
X1796Y851D01*
X1797Y851D01*
X1798Y851D01*
X1799Y851D01*
X1800Y851D01*
X1801Y851D01*
X1802Y851D01*
X1803Y851D01*
X1804Y851D01*
X1805Y851D01*
X1806Y851D01*
X1807Y851D01*
X1808Y851D01*
X1809Y851D01*
X1810Y851D01*
X1811Y851D01*
X1812Y851D01*
X1813Y851D01*
X1814Y851D01*
X1815Y851D01*
X1816Y851D01*
X1817Y851D01*
X1818Y851D01*
X1819Y851D01*
X1820Y851D01*
X1821Y851D01*
X1822Y851D01*
X1823Y851D01*
X1824Y851D01*
X1825Y851D01*
X1826Y851D01*
X1827Y851D01*
X1828Y851D01*
X1829Y851D01*
X1830Y851D01*
X1831Y851D01*
X1832Y851D01*
X1833Y851D01*
X1834Y851D01*
X1835Y851D01*
X1836Y851D01*
X1837Y851D01*
X1838Y851D01*
X1839Y851D01*
X1840Y851D01*
X1841Y851D01*
X1842Y851D01*
X1843Y851D01*
X1844Y851D01*
X1845Y851D01*
X1846Y851D01*
X1847Y851D01*
X1848Y851D01*
X1849Y851D01*
X1850Y851D01*
X1851Y851D01*
X1852Y851D01*
X1853Y851D01*
X1854Y851D01*
X1855Y851D01*
X1856Y851D01*
X1857Y851D01*
X1858Y851D01*
X1859Y851D01*
X1860Y851D01*
X1861Y851D01*
X1862Y851D01*
X1863Y851D01*
X1864Y851D01*
X1865Y851D01*
X1866Y851D01*
X1867Y851D01*
X1868Y851D01*
X1869Y851D01*
X1870Y851D01*
X1871Y851D01*
X1872Y851D01*
X1873Y851D01*
X1874Y851D01*
X1875Y851D01*
X1876Y851D01*
X1877Y851D01*
X1878Y851D01*
X1879Y851D01*
X1880Y851D01*
X1881Y851D01*
X1882Y851D01*
X1883Y851D01*
X1884Y851D01*
X1885Y851D01*
X1886Y851D01*
X1887Y851D01*
X1888Y851D01*
X1889Y851D01*
X1890Y851D01*
X1891Y851D01*
X1892Y851D01*
X1893Y851D01*
X1894Y851D01*
X1895Y851D01*
X1896Y851D01*
X1897Y851D01*
X1898Y851D01*
X1899Y851D01*
X1900Y851D01*
X1901Y851D01*
X1902Y851D01*
X1903Y851D01*
X1904Y851D01*
X1905Y851D01*
X1906Y851D01*
X1907Y851D01*
X1908Y851D01*
X1909Y851D01*
X1910Y851D01*
X1911Y851D01*
X1912Y851D01*
X1913Y851D01*
X1914Y851D01*
X1915Y851D01*
X1916Y851D01*
X1917Y851D01*
X1918Y851D01*
X1919Y851D01*
X1920Y851D01*
X1921Y851D01*
X1922Y851D01*
X1923Y851D01*
X1924Y851D01*
X1925Y851D01*
X1926Y851D01*
X1927Y851D01*
X1928Y851D01*
X1929Y851D01*
X1930Y851D01*
X1931Y851D01*
X1932Y851D01*
X1933Y851D01*
X1934Y851D01*
X1935Y851D01*
X1936Y851D01*
X1937Y851D01*
X1938Y851D01*
X1939Y851D01*
X1940Y851D01*
X1941Y851D01*
X1942Y851D01*
X1943Y851D01*
X1944Y851D01*
X1945Y851D01*
X1946Y851D01*
X1947Y851D01*
X1948Y851D01*
X1949Y851D01*
X1950Y851D01*
X1951Y851D01*
X1952Y851D01*
X1953Y851D01*
X1954Y851D01*
X1955Y851D01*
X1956Y851D01*
X1957Y851D01*
X1958Y851D01*
X1959Y851D01*
X1960Y851D01*
X1961Y851D01*
X1962Y851D01*
X1963Y851D01*
X1964Y851D01*
X1965Y851D01*
X1966Y851D01*
X1967Y851D01*
X1968Y851D01*
X1969Y851D01*
X1970Y851D01*
X1971Y851D01*
X1972Y851D01*
X1973Y851D01*
X1974Y851D01*
X1975Y851D01*
X1976Y851D01*
X1977Y851D01*
X1978Y851D01*
X1979Y851D01*
X1980Y851D01*
X1981Y851D01*
X1982Y851D01*
X1983Y851D01*
X1984Y851D01*
X1985Y851D01*
X1986Y851D01*
X1987Y851D01*
X1988Y851D01*
X1989Y851D01*
X1990Y851D01*
X1991Y851D01*
X1992Y851D01*
X1993Y851D01*
X1994Y851D01*
X1995Y851D01*
X1996Y851D01*
X1997Y851D01*
X1998Y851D01*
X1999Y851D01*
X2000Y851D01*
X2001Y851D01*
X2002Y851D01*
X2003Y851D01*
X2004Y851D01*
X2005Y851D01*
X2006Y851D01*
X2007Y851D01*
X2008Y851D01*
X2009Y851D01*
X2010Y851D01*
X2011Y851D01*
X2012Y851D01*
X2013Y851D01*
X2014Y851D01*
X2015Y851D01*
X2016Y851D01*
X2017Y851D01*
X2018Y851D01*
X2019Y851D01*
X2020Y851D01*
X2021Y851D01*
X2022Y851D01*
X2023Y851D01*
X2024Y851D01*
X2025Y851D01*
X2026Y851D01*
X2027Y851D01*
X2028Y851D01*
X2029Y851D01*
X2030Y851D01*
X2031Y851D01*
X2032Y851D01*
X2033Y851D01*
X2034Y851D01*
X2035Y851D01*
X2036Y851D01*
X2037Y851D01*
X2038Y851D01*
X2039Y851D01*
X2040Y851D01*
X2041Y851D01*
X2042Y851D01*
X2043Y851D01*
X2044Y851D01*
X2045Y851D01*
X2046Y851D01*
X2047Y851D01*
X2048Y851D01*
X2049Y851D01*
X2050Y851D01*
X2051Y851D01*
X2052Y851D01*
X2053Y851D01*
X2054Y851D01*
X2055Y851D01*
X2056Y851D01*
X2057Y851D01*
X2058Y851D01*
X2059Y851D01*
X2060Y851D01*
X2061Y851D01*
X2062Y851D01*
X2063Y851D01*
X2064Y851D01*
X2065Y851D01*
X2066Y851D01*
X2067Y851D01*
X2068Y851D01*
X2069Y851D01*
X2070Y851D01*
X2071Y851D01*
X2072Y851D01*
X2073Y851D01*
X2074Y851D01*
X2075Y851D01*
X2076Y851D01*
X2077Y851D01*
X2078Y851D01*
X2079Y851D01*
X2080Y851D01*
X2081Y851D01*
X2082Y851D01*
X2083Y851D01*
X2084Y851D01*
X2085Y851D01*
X2086Y851D01*
X2087Y851D01*
X2088Y851D01*
X2089Y851D01*
X2090Y851D01*
X2091Y851D01*
X2092Y851D01*
X2093Y851D01*
X2094Y851D01*
X2095Y851D01*
X2096Y851D01*
X2097Y851D01*
X2098Y851D01*
X2099Y851D01*
X2100Y851D01*
X2101Y851D01*
X2102Y851D01*
X2103Y851D01*
X2104Y851D01*
X2105Y851D01*
X2106Y851D01*
X2107Y851D01*
X2108Y851D01*
X2109Y851D01*
X2110Y851D01*
X2111Y851D01*
X2112Y851D01*
X2113Y851D01*
X2114Y851D01*
X2115Y851D01*
X2116Y851D01*
X2117Y851D01*
X2118Y851D01*
X2119Y851D01*
X2120Y851D01*
X2121Y851D01*
X2122Y851D01*
X2123Y851D01*
X2124Y851D01*
X2125Y851D01*
X2126Y851D01*
X2127Y851D01*
X2128Y851D01*
X2129Y851D01*
X2130Y851D01*
X2131Y851D01*
X2132Y851D01*
X2133Y851D01*
X2134Y851D01*
X2135Y851D01*
X2136Y851D01*
X2137Y851D01*
X2138Y851D01*
X2139Y851D01*
X2140Y851D01*
X2141Y851D01*
X2142Y851D01*
X2143Y851D01*
X2144Y851D01*
X2145Y851D01*
X2146Y851D01*
X2147Y851D01*
X2148Y851D01*
X2149Y851D01*
X2150Y851D01*
X2151Y851D01*
X2152Y851D01*
X2153Y851D01*
X2154Y851D01*
X2155Y851D01*
X2156Y851D01*
X2157Y851D01*
X2158Y851D01*
X2159Y851D01*
X2160Y851D01*
X2161Y851D01*
X2162Y851D01*
X2163Y851D01*
X2164Y851D01*
X2165Y851D01*
X2166Y851D01*
X2167Y851D01*
X2168Y851D01*
X2169Y851D01*
X2170Y851D01*
X2171Y851D01*
X2172Y851D01*
X2173Y851D01*
X2174Y851D01*
X2175Y851D01*
X2176Y851D01*
X2177Y851D01*
X2178Y851D01*
X2179Y851D01*
X2180Y851D01*
X2181Y851D01*
X2182Y851D01*
X2183Y851D01*
X2184Y851D01*
X2185Y851D01*
X2186Y851D01*
X2187Y851D01*
X2188Y851D01*
X2189Y851D01*
X2190Y851D01*
X2191Y851D01*
X2192Y851D01*
X2193Y851D01*
X2194Y851D01*
X2195Y851D01*
X2196Y851D01*
X2197Y851D01*
X2198Y851D01*
X2199Y851D01*
X2200Y851D01*
X2201Y851D01*
X2202Y851D01*
X2203Y851D01*
X2204Y851D01*
X2205Y851D01*
X2206Y851D01*
X2207Y851D01*
X2208Y850D01*
X2208Y616D01*
X2209Y616D01*
X2210Y616D01*
X2211Y616D01*
X2212Y616D01*
X2213Y616D01*
X2214Y616D01*
X2215Y616D01*
X2216Y616D01*
X2217Y616D01*
X2218Y616D01*
X2219Y616D01*
X2220Y616D01*
X2221Y616D01*
X2222Y616D01*
X2223Y616D01*
X2224Y616D01*
X2225Y616D01*
X2226Y616D01*
X2227Y616D01*
X2228Y616D01*
X2229Y616D01*
X2230Y616D01*
X2231Y616D01*
X2232Y616D01*
X2233Y616D01*
X2234Y616D01*
X2235Y616D01*
X2236Y616D01*
X2237Y616D01*
X2238Y616D01*
X2239Y616D01*
X2240Y616D01*
X2241Y616D01*
X2242Y616D01*
X2243Y616D01*
X2244Y616D01*
X2245Y616D01*
X2246Y616D01*
X2247Y616D01*
X2248Y616D01*
X2249Y616D01*
X2250Y616D01*
X2251Y616D01*
X2252Y616D01*
X2253Y616D01*
X2254Y616D01*
X2255Y616D01*
X2256Y616D01*
X2257Y616D01*
X2258Y616D01*
X2259Y616D01*
X2260Y616D01*
X2261Y616D01*
X2262Y616D01*
X2263Y616D01*
X2264Y616D01*
X2265Y616D01*
X2266Y616D01*
X2267Y616D01*
X2268Y616D01*
X2269Y616D01*
X2270Y616D01*
X2271Y616D01*
X2272Y616D01*
X2273Y616D01*
X2274Y616D01*
X2275Y616D01*
X2276Y616D01*
X2277Y616D01*
X2278Y616D01*
X2279Y616D01*
X2280Y616D01*
X2281Y616D01*
X2282Y616D01*
X2283Y616D01*
X2284Y616D01*
X2285Y616D01*
X2286Y616D01*
X2287Y616D01*
X2288Y616D01*
X2289Y616D01*
X2290Y616D01*
X2291Y616D01*
X2292Y616D01*
X2293Y616D01*
X2294Y616D01*
X2295Y616D01*
X2296Y616D01*
X2297Y616D01*
X2298Y616D01*
X2299Y616D01*
X2300Y616D01*
X2301Y616D01*
X2302Y616D01*
X2303Y616D01*
X2304Y616D01*
X2305Y616D01*
X2306Y616D01*
X2307Y616D01*
X2308Y616D01*
X2309Y616D01*
X2310Y616D01*
X2311Y616D01*
X2312Y616D01*
X2313Y616D01*
X2314Y616D01*
X2315Y616D01*
X2316Y616D01*
X2317Y616D01*
X2318Y616D01*
X2319Y616D01*
X2320Y616D01*
X2321Y616D01*
X2322Y616D01*
X2323Y616D01*
X2324Y616D01*
X2325Y616D01*
X2326Y616D01*
X2327Y616D01*
X2328Y616D01*
X2329Y616D01*
X2330Y616D01*
X2331Y616D01*
X2332Y616D01*
X2333Y616D01*
X2334Y616D01*
X2335Y616D01*
X2336Y616D01*
X2337Y616D01*
X2338Y616D01*
X2339Y616D01*
X2340Y616D01*
X2341Y616D01*
X2342Y616D01*
X2343Y616D01*
X2344Y616D01*
X2345Y616D01*
X2346Y616D01*
X2347Y616D01*
X2348Y616D01*
X2349Y616D01*
X2350Y616D01*
X2351Y616D01*
X2352Y616D01*
X2353Y616D01*
X2354Y616D01*
X2355Y616D01*
X2356Y616D01*
X2357Y616D01*
X2358Y616D01*
X2359Y616D01*
X2360Y616D01*
X2361Y616D01*
X2362Y616D01*
X2363Y616D01*
X2364Y616D01*
X2365Y616D01*
X2366Y616D01*
X2367Y616D01*
X2368Y616D01*
X2369Y616D01*
X2370Y616D01*
X2371Y616D01*
X2372Y616D01*
X2373Y616D01*
X2374Y616D01*
X2375Y616D01*
X2376Y616D01*
X2377Y616D01*
X2378Y616D01*
X2379Y616D01*
X2380Y616D01*
X2381Y616D01*
X2382Y616D01*
X2383Y616D01*
X2384Y616D01*
X2385Y616D01*
X2386Y616D01*
X2387Y616D01*
X2388Y616D01*
X2389Y616D01*
X2390Y616D01*
X2391Y616D01*
X2392Y616D01*
X2393Y616D01*
X2394Y616D01*
X2395Y616D01*
X2396Y616D01*
X2397Y616D01*
X2398Y616D01*
X2399Y616D01*
X2400Y616D01*
X2401Y616D01*
X2402Y616D01*
X2403Y616D01*
X2404Y616D01*
X2405Y616D01*
X2406Y616D01*
X2407Y616D01*
X2408Y616D01*
X2409Y616D01*
X2410Y616D01*
X2411Y616D01*
X2412Y616D01*
X2413Y616D01*
X2414Y616D01*
X2415Y616D01*
X2416Y616D01*
X2417Y616D01*
X2418Y616D01*
X2419Y616D01*
X2420Y616D01*
X2421Y616D01*
X2422Y616D01*
X2423Y616D01*
X2424Y616D01*
X2425Y616D01*
X2426Y616D01*
X2427Y616D01*
X2428Y616D01*
X2429Y616D01*
X2430Y616D01*
X2431Y616D01*
X2432Y616D01*
X2433Y616D01*
X2434Y616D01*
X2435Y616D01*
X2436Y616D01*
X2437Y616D01*
X2438Y616D01*
X2439Y616D01*
X2440Y616D01*
X2441Y616D01*
X2442Y616D01*
X2443Y616D01*
X2444Y616D01*
X2445Y616D01*
X2446Y616D01*
X2447Y616D01*
X2448Y616D01*
X2449Y616D01*
X2450Y616D01*
X2451Y616D01*
X2452Y616D01*
X2453Y616D01*
X2454Y616D01*
X2455Y616D01*
X2456Y616D01*
X2457Y616D01*
X2458Y616D01*
X2459Y616D01*
X2460Y616D01*
X2461Y616D01*
X2462Y616D01*
X2463Y616D01*
X2464Y616D01*
X2465Y616D01*
X2466Y616D01*
X2467Y616D01*
X2468Y616D01*
X2469Y616D01*
X2470Y616D01*
X2471Y616D01*
X2472Y616D01*
X2473Y616D01*
X2474Y616D01*
X2475Y616D01*
X2476Y616D01*
X2477Y616D01*
X2478Y616D01*
X2479Y616D01*
X2480Y616D01*
X2481Y616D01*
X2482Y616D01*
X2483Y616D01*
X2484Y616D01*
X2485Y616D01*
X2486Y616D01*
X2487Y616D01*
X2488Y616D01*
X2489Y616D01*
X2490Y616D01*
X2491Y616D01*
X2492Y616D01*
X2493Y616D01*
X2494Y616D01*
X2495Y616D01*
X2496Y616D01*
X2497Y616D01*
X2498Y616D01*
X2499Y616D01*
X2500Y616D01*
X2501Y616D01*
X2502Y616D01*
X2503Y616D01*
X2504Y616D01*
X2505Y616D01*
X2506Y616D01*
X2507Y616D01*
X2508Y616D01*
X2509Y616D01*
X2510Y616D01*
X2511Y616D01*
X2512Y616D01*
X2513Y616D01*
X2514Y616D01*
X2515Y616D01*
X2516Y616D01*
X2517Y616D01*
X2518Y616D01*
X2519Y616D01*
X2520Y616D01*
X2521Y616D01*
X2522Y616D01*
X2523Y616D01*
X2524Y616D01*
X2524Y2327D01*
X2523Y2327D01*
X2522Y2327D01*
X2521Y2327D01*
X2520Y2327D01*
X2519Y2327D01*
X2518Y2327D01*
X2517Y2327D01*
X2516Y2327D01*
X2515Y2327D01*
X2514Y2327D01*
X2513Y2327D01*
X2512Y2327D01*
X2511Y2327D01*
X2510Y2327D01*
X2509Y2327D01*
X2508Y2327D01*
X2507Y2327D01*
X2506Y2327D01*
X2505Y2327D01*
X2504Y2327D01*
X2503Y2327D01*
X2502Y2327D01*
X2501Y2327D01*
X2500Y2327D01*
X2499Y2327D01*
X2498Y2327D01*
X2497Y2327D01*
X2496Y2327D01*
X2495Y2327D01*
X2494Y2327D01*
X2493Y2327D01*
X2492Y2327D01*
X2491Y2327D01*
X2490Y2327D01*
X2489Y2327D01*
X2488Y2327D01*
X2487Y2327D01*
X2486Y2327D01*
X2485Y2327D01*
X2484Y2327D01*
X2483Y2327D01*
X2482Y2327D01*
X2481Y2327D01*
X2480Y2327D01*
X2479Y2327D01*
X2478Y2327D01*
X2477Y2327D01*
X2476Y2327D01*
X2475Y2327D01*
X2474Y2327D01*
X2473Y2327D01*
X2472Y2327D01*
X2471Y2327D01*
X2470Y2327D01*
X2469Y2327D01*
X2468Y2327D01*
X2467Y2327D01*
X2466Y2327D01*
X2465Y2327D01*
X2464Y2327D01*
X2463Y2327D01*
X2462Y2327D01*
X2461Y2327D01*
X2460Y2327D01*
X2459Y2327D01*
X2458Y2327D01*
X2457Y2327D01*
X2456Y2327D01*
X2455Y2327D01*
X2454Y2327D01*
X2453Y2327D01*
X2452Y2327D01*
X2451Y2327D01*
X2450Y2327D01*
X2449Y2327D01*
X2448Y2327D01*
X2447Y2327D01*
X2446Y2327D01*
X2445Y2327D01*
X2444Y2327D01*
X2443Y2327D01*
X2442Y2327D01*
X2441Y2327D01*
X2440Y2327D01*
X2439Y2327D01*
X2438Y2327D01*
X2437Y2327D01*
X2436Y2327D01*
X2435Y2327D01*
X2434Y2327D01*
X2433Y2327D01*
X2432Y2327D01*
X2431Y2327D01*
X2430Y2327D01*
X2429Y2327D01*
X2428Y2327D01*
X2427Y2327D01*
X2426Y2327D01*
X2425Y2327D01*
X2424Y2327D01*
X2423Y2327D01*
X2422Y2327D01*
X2421Y2327D01*
X2420Y2327D01*
X2419Y2327D01*
X2418Y2327D01*
X2417Y2327D01*
X2416Y2327D01*
X2415Y2327D01*
X2414Y2327D01*
X2413Y2327D01*
X2412Y2327D01*
X2411Y2327D01*
X2410Y2327D01*
X2409Y2327D01*
X2408Y2327D01*
X2407Y2327D01*
X2406Y2327D01*
X2405Y2327D01*
X2404Y2327D01*
X2403Y2327D01*
X2402Y2327D01*
X2401Y2327D01*
X2400Y2327D01*
X2399Y2327D01*
X2398Y2327D01*
X2397Y2327D01*
X2396Y2327D01*
X2395Y2327D01*
X2394Y2327D01*
X2393Y2327D01*
X2392Y2327D01*
X2391Y2327D01*
X2390Y2327D01*
X2389Y2327D01*
X2388Y2327D01*
X2387Y2327D01*
X2386Y2327D01*
X2385Y2327D01*
X2384Y2327D01*
X2383Y2327D01*
X2382Y2327D01*
X2381Y2327D01*
X2380Y2327D01*
X2379Y2327D01*
X2378Y2327D01*
X2377Y2327D01*
X2376Y2327D01*
X2375Y2327D01*
X2374Y2327D01*
X2373Y2327D01*
X2372Y2327D01*
X2371Y2327D01*
X2370Y2327D01*
X2369Y2327D01*
X2368Y2327D01*
X2367Y2327D01*
X2366Y2327D01*
X2365Y2327D01*
X2364Y2327D01*
X2363Y2327D01*
X2362Y2327D01*
X2361Y2327D01*
X2360Y2327D01*
X2359Y2327D01*
X2358Y2327D01*
X2357Y2327D01*
X2356Y2327D01*
X2355Y2327D01*
X2354Y2327D01*
X2353Y2327D01*
X2352Y2327D01*
X2351Y2327D01*
X2350Y2327D01*
X2349Y2327D01*
X2348Y2327D01*
X2347Y2327D01*
X2346Y2327D01*
X2345Y2327D01*
X2344Y2327D01*
X2343Y2327D01*
X2342Y2327D01*
X2341Y2327D01*
X2340Y2327D01*
X2339Y2327D01*
X2338Y2327D01*
X2337Y2327D01*
X2336Y2327D01*
X2335Y2327D01*
X2334Y2327D01*
X2333Y2327D01*
X2332Y2327D01*
X2331Y2327D01*
X2330Y2327D01*
X2329Y2327D01*
X2328Y2327D01*
X2327Y2327D01*
X2326Y2327D01*
X2325Y2327D01*
X2324Y2327D01*
X2323Y2327D01*
X2322Y2327D01*
X2321Y2327D01*
X2320Y2327D01*
X2319Y2327D01*
X2318Y2327D01*
X2317Y2327D01*
X2316Y2327D01*
X2315Y2327D01*
X2314Y2327D01*
X2313Y2327D01*
X2312Y2327D01*
X2311Y2327D01*
X2310Y2327D01*
X2309Y2327D01*
X2308Y2327D01*
X2307Y2327D01*
X2306Y2327D01*
X2305Y2327D01*
X2304Y2327D01*
X2303Y2327D01*
X2302Y2327D01*
X2301Y2327D01*
X2300Y2327D01*
X2299Y2327D01*
X2298Y2327D01*
X2297Y2327D01*
X2296Y2327D01*
X2295Y2327D01*
X2294Y2327D01*
X2293Y2327D01*
X2292Y2327D01*
X2291Y2327D01*
X2290Y2327D01*
X2289Y2327D01*
X2288Y2327D01*
X2287Y2327D01*
X2286Y2327D01*
X2285Y2327D01*
X2284Y2327D01*
X2283Y2327D01*
X2282Y2327D01*
X2281Y2327D01*
X2280Y2327D01*
X2279Y2327D01*
X2278Y2327D01*
X2277Y2327D01*
X2276Y2327D01*
X2275Y2327D01*
X2274Y2327D01*
X2273Y2327D01*
X2272Y2327D01*
X2271Y2327D01*
X2270Y2327D01*
X2269Y2327D01*
X2268Y2327D01*
X2267Y2327D01*
X2266Y2327D01*
X2265Y2327D01*
X2264Y2327D01*
X2263Y2327D01*
X2262Y2327D01*
X2261Y2327D01*
X2260Y2327D01*
X2259Y2327D01*
X2258Y2327D01*
X2257Y2327D01*
X2256Y2327D01*
X2255Y2327D01*
X2254Y2327D01*
X2253Y2327D01*
X2252Y2327D01*
X2251Y2327D01*
X2250Y2327D01*
X2249Y2327D01*
X2248Y2327D01*
X2247Y2327D01*
X2246Y2327D01*
X2245Y2327D01*
X2244Y2327D01*
X2243Y2327D01*
X2242Y2327D01*
X2241Y2327D01*
X2240Y2327D01*
X2239Y2327D01*
X2238Y2327D01*
X2237Y2327D01*
X2236Y2327D01*
X2235Y2327D01*
X2234Y2327D01*
X2233Y2327D01*
X2232Y2327D01*
X2231Y2327D01*
X2230Y2327D01*
X2229Y2327D01*
X2228Y2327D01*
X2227Y2327D01*
X2226Y2327D01*
X2225Y2327D01*
X2224Y2327D01*
X2223Y2327D01*
X2222Y2327D01*
X2221Y2327D01*
X2220Y2327D01*
X2219Y2327D01*
X2218Y2327D01*
X2217Y2327D01*
X2216Y2327D01*
X2215Y2327D01*
X2214Y2327D01*
X2213Y2327D01*
X2212Y2327D01*
X2211Y2327D01*
X2210Y2327D01*
X2209Y2327D01*
X2208Y2327D01*
X2207Y2327D01*
X2206Y2327D01*
X2205Y2327D01*
X2204Y2327D01*
X2203Y2327D01*
X2202Y2327D01*
X2201Y2327D01*
X2200Y2327D01*
X2199Y2327D01*
X2198Y2327D01*
X2197Y2327D01*
X2196Y2327D01*
X2195Y2327D01*
X2194Y2327D01*
X2193Y2327D01*
X2192Y2327D01*
X2191Y2327D01*
X2190Y2327D01*
X2189Y2327D01*
X2188Y2327D01*
X2187Y2327D01*
X2186Y2327D01*
X2185Y2327D01*
X2184Y2327D01*
X2183Y2327D01*
X2182Y2327D01*
X2181Y2327D01*
X2180Y2327D01*
X2179Y2327D01*
X2178Y2327D01*
X2177Y2327D01*
X2176Y2327D01*
X2175Y2327D01*
X2174Y2327D01*
X2173Y2327D01*
X2172Y2327D01*
X2171Y2327D01*
X2170Y2327D01*
X2169Y2327D01*
X2168Y2327D01*
X2167Y2327D01*
X2166Y2327D01*
X2165Y2327D01*
X2164Y2327D01*
X2163Y2327D01*
X2162Y2327D01*
X2161Y2327D01*
X2160Y2327D01*
X2159Y2327D01*
X2158Y2327D01*
X2157Y2327D01*
X2156Y2327D01*
X2155Y2327D01*
X2154Y2327D01*
X2153Y2327D01*
X2152Y2327D01*
X2151Y2327D01*
X2150Y2327D01*
X2149Y2327D01*
X2148Y2327D01*
X2147Y2327D01*
X2146Y2327D01*
X2145Y2327D01*
X2144Y2327D01*
X2143Y2327D01*
X2142Y2327D01*
X2141Y2327D01*
X2140Y2327D01*
X2139Y2327D01*
X2138Y2327D01*
X2137Y2327D01*
X2136Y2327D01*
X2135Y2327D01*
X2134Y2327D01*
X2133Y2327D01*
X2132Y2327D01*
X2131Y2327D01*
X2130Y2327D01*
X2129Y2327D01*
X2128Y2327D01*
X2127Y2327D01*
X2126Y2327D01*
X2125Y2327D01*
X2124Y2327D01*
X2123Y2327D01*
X2122Y2327D01*
X2121Y2327D01*
X2120Y2327D01*
X2119Y2327D01*
X2118Y2327D01*
X2117Y2327D01*
X2116Y2327D01*
X2115Y2327D01*
X2114Y2327D01*
X2113Y2327D01*
X2112Y2327D01*
X2111Y2327D01*
X2110Y2327D01*
X2109Y2327D01*
X2108Y2327D01*
X2107Y2327D01*
X2106Y2327D01*
X2105Y2327D01*
X2104Y2327D01*
X2103Y2327D01*
X2102Y2327D01*
X2101Y2327D01*
X2100Y2327D01*
X2099Y2327D01*
X2098Y2327D01*
X2097Y2327D01*
X2096Y2327D01*
X2095Y2327D01*
X2094Y2327D01*
X2093Y2327D01*
X2092Y2327D01*
X2091Y2327D01*
X2090Y2327D01*
X2089Y2327D01*
X2088Y2327D01*
X2087Y2327D01*
X2086Y2327D01*
X2085Y2327D01*
X2084Y2327D01*
X2083Y2327D01*
X2082Y2327D01*
X2081Y2327D01*
X2080Y2327D01*
X2079Y2327D01*
X2078Y2327D01*
X2077Y2327D01*
X2076Y2327D01*
X2075Y2327D01*
X2074Y2327D01*
X2073Y2327D01*
X2072Y2327D01*
X2071Y2327D01*
X2070Y2327D01*
X2069Y2327D01*
X2068Y2327D01*
X2067Y2327D01*
X2066Y2327D01*
X2065Y2327D01*
X2064Y2327D01*
X2063Y2327D01*
X2062Y2327D01*
X2061Y2327D01*
X2060Y2327D01*
X2059Y2327D01*
X2058Y2327D01*
X2057Y2327D01*
X2056Y2327D01*
X2055Y2327D01*
X2054Y2327D01*
X2053Y2327D01*
X2052Y2327D01*
X2051Y2327D01*
X2050Y2327D01*
X2049Y2327D01*
X2048Y2327D01*
X2047Y2327D01*
X2046Y2327D01*
X2045Y2327D01*
X2044Y2327D01*
X2043Y2327D01*
X2042Y2327D01*
X2041Y2327D01*
X2040Y2327D01*
X2039Y2327D01*
X2038Y2327D01*
X2037Y2327D01*
X2036Y2327D01*
X2035Y2327D01*
X2034Y2327D01*
X2033Y2327D01*
X2032Y2327D01*
X2031Y2327D01*
X2030Y2327D01*
X2029Y2327D01*
X2028Y2327D01*
X2027Y2327D01*
X2026Y2327D01*
X2025Y2327D01*
X2024Y2327D01*
X2023Y2327D01*
X2022Y2327D01*
X2021Y2327D01*
X2020Y2327D01*
X2019Y2327D01*
X2018Y2327D01*
X2017Y2327D01*
X2016Y2327D01*
X2015Y2327D01*
X2014Y2327D01*
X2013Y2327D01*
X2012Y2327D01*
X2011Y2327D01*
X2010Y2327D01*
X2009Y2327D01*
X2008Y2327D01*
X2007Y2327D01*
X2006Y2327D01*
X2005Y2327D01*
X2004Y2327D01*
X2003Y2327D01*
X2002Y2327D01*
X2001Y2327D01*
X2000Y2327D01*
X1999Y2327D01*
X1998Y2327D01*
X1997Y2327D01*
X1996Y2327D01*
X1995Y2327D01*
X1994Y2327D01*
X1993Y2327D01*
X1992Y2327D01*
X1991Y2327D01*
X1990Y2327D01*
X1989Y2327D01*
X1988Y2327D01*
X1987Y2327D01*
X1986Y2327D01*
X1985Y2327D01*
X1984Y2327D01*
X1983Y2327D01*
X1982Y2327D01*
X1981Y2327D01*
X1980Y2327D01*
X1979Y2327D01*
X1978Y2327D01*
X1977Y2327D01*
X1976Y2327D01*
X1975Y2327D01*
X1974Y2327D01*
X1973Y2327D01*
X1972Y2327D01*
X1971Y2327D01*
X1970Y2327D01*
X1969Y2327D01*
X1968Y2327D01*
X1967Y2327D01*
X1966Y2327D01*
X1965Y2327D01*
X1964Y2327D01*
X1963Y2327D01*
X1962Y2327D01*
X1961Y2327D01*
X1960Y2327D01*
X1959Y2327D01*
X1958Y2327D01*
X1957Y2327D01*
X1956Y2327D01*
X1955Y2327D01*
X1954Y2327D01*
X1953Y2327D01*
X1952Y2327D01*
X1951Y2327D01*
X1950Y2327D01*
X1949Y2327D01*
X1948Y2327D01*
X1947Y2327D01*
X1946Y2327D01*
X1945Y2327D01*
X1944Y2327D01*
X1943Y2327D01*
X1942Y2327D01*
X1941Y2327D01*
X1940Y2327D01*
X1939Y2327D01*
X1938Y2327D01*
X1937Y2327D01*
X1936Y2327D01*
X1935Y2327D01*
X1934Y2327D01*
X1933Y2327D01*
X1932Y2327D01*
X1931Y2327D01*
X1930Y2327D01*
X1929Y2327D01*
X1928Y2327D01*
X1927Y2327D01*
X1926Y2327D01*
X1925Y2327D01*
X1924Y2327D01*
X1923Y2327D01*
X1922Y2327D01*
X1921Y2327D01*
X1920Y2327D01*
X1919Y2327D01*
X1918Y2327D01*
X1917Y2327D01*
X1916Y2327D01*
X1915Y2327D01*
X1914Y2327D01*
X1913Y2327D01*
X1912Y2327D01*
X1911Y2327D01*
X1910Y2327D01*
X1909Y2327D01*
X1908Y2327D01*
X1907Y2327D01*
X1906Y2327D01*
X1905Y2327D01*
X1904Y2327D01*
X1903Y2327D01*
X1902Y2327D01*
X1901Y2327D01*
X1900Y2327D01*
X1899Y2327D01*
X1898Y2327D01*
X1897Y2327D01*
X1896Y2327D01*
X1895Y2327D01*
X1894Y2327D01*
X1893Y2327D01*
X1892Y2327D01*
X1891Y2327D01*
X1890Y2327D01*
X1889Y2327D01*
X1888Y2327D01*
X1887Y2327D01*
X1886Y2327D01*
X1885Y2327D01*
X1884Y2327D01*
X1883Y2327D01*
X1882Y2327D01*
X1881Y2327D01*
X1880Y2327D01*
X1879Y2327D01*
X1878Y2327D01*
X1877Y2327D01*
X1876Y2327D01*
X1875Y2327D01*
X1874Y2327D01*
X1873Y2327D01*
X1872Y2327D01*
X1871Y2327D01*
X1870Y2327D01*
X1869Y2327D01*
X1868Y2327D01*
X1867Y2327D01*
X1866Y2327D01*
X1865Y2327D01*
X1864Y2327D01*
X1863Y2327D01*
X1862Y2327D01*
X1861Y2327D01*
X1860Y2327D01*
X1859Y2327D01*
X1858Y2327D01*
X1857Y2327D01*
X1856Y2327D01*
X1855Y2327D01*
X1854Y2327D01*
X1853Y2327D01*
X1852Y2327D01*
X1851Y2327D01*
X1850Y2327D01*
X1849Y2327D01*
X1848Y2327D01*
X1847Y2327D01*
X1846Y2327D01*
X1845Y2327D01*
X1844Y2327D01*
X1843Y2327D01*
X1842Y2327D01*
X1841Y2327D01*
X1840Y2327D01*
X1839Y2327D01*
X1838Y2327D01*
X1837Y2327D01*
X1836Y2327D01*
X1835Y2327D01*
X1834Y2327D01*
X1833Y2327D01*
X1832Y2327D01*
X1831Y2327D01*
X1830Y2327D01*
X1829Y2327D01*
X1828Y2327D01*
X1827Y2327D01*
X1826Y2327D01*
X1825Y2327D01*
X1824Y2327D01*
X1823Y2327D01*
X1822Y2327D01*
X1821Y2327D01*
X1820Y2327D01*
X1819Y2327D01*
X1818Y2327D01*
X1817Y2327D01*
X1816Y2327D01*
X1815Y2327D01*
X1814Y2327D01*
X1813Y2327D01*
X1812Y2327D01*
X1811Y2327D01*
X1810Y2327D01*
X1809Y2327D01*
X1808Y2327D01*
X1807Y2327D01*
X1806Y2327D01*
X1805Y2327D01*
X1804Y2327D01*
X1803Y2327D01*
X1802Y2327D01*
X1801Y2327D01*
X1800Y2327D01*
X1799Y2327D01*
X1798Y2327D01*
X1797Y2327D01*
X1796Y2327D01*
X1795Y2327D01*
X1794Y2327D01*
X1793Y2327D01*
X1792Y2327D01*
X1791Y2327D01*
X1790Y2327D01*
X1789Y2327D01*
X1788Y2327D01*
X1787Y2327D01*
X1786Y2327D01*
X1785Y2327D01*
X1784Y2327D01*
X1783Y2327D01*
X1782Y2327D01*
X1781Y2327D01*
X1780Y2327D01*
X1779Y2327D01*
X1778Y2327D01*
X1777Y2327D01*
X1776Y2327D01*
X1775Y2327D01*
X1774Y2327D01*
X1773Y2327D01*
X1772Y2327D01*
X1771Y2327D01*
X1770Y2327D01*
X1769Y2327D01*
X1768Y2327D01*
X1767Y2327D01*
X1766Y2327D01*
X1765Y2327D01*
X1764Y2327D01*
X1763Y2327D01*
X1762Y2327D01*
X1761Y2327D01*
X1760Y2327D01*
X1759Y2327D01*
X1758Y2327D01*
X1757Y2327D01*
X1756Y2327D01*
X1755Y2327D01*
X1754Y2327D01*
X1753Y2327D01*
X1752Y2327D01*
X1751Y2327D01*
X1750Y2327D01*
X1749Y2327D01*
X1748Y2327D01*
X1747Y2327D01*
X1746Y2327D01*
X1745Y2327D01*
X1744Y2327D01*
X1743Y2327D01*
X1742Y2327D01*
X1741Y2327D01*
X1740Y2327D01*
X1739Y2327D01*
X1738Y2327D01*
X1737Y2327D01*
X1736Y2327D01*
X1735Y2327D01*
X1734Y2327D01*
X1733Y2327D01*
X1732Y2327D01*
X1731Y2327D01*
X1730Y2327D01*
X1729Y2327D01*
X1728Y2327D01*
X1727Y2327D01*
X1726Y2327D01*
X1725Y2327D01*
X1724Y2327D01*
X1723Y2327D01*
X1722Y2327D01*
X1721Y2327D01*
X1720Y2327D01*
X1719Y2327D01*
X1718Y2327D01*
X1717Y2327D01*
X1716Y2327D01*
X1715Y2327D01*
X1714Y2327D01*
X1713Y2327D01*
X1712Y2327D01*
X1711Y2327D01*
X1710Y2327D01*
X1709Y2327D01*
X1708Y2327D01*
X1707Y2327D01*
X1706Y2327D01*
X1705Y2327D01*
X1704Y2327D01*
X1703Y2327D01*
X1702Y2327D01*
X1701Y2327D01*
X1700Y2327D01*
X1699Y2327D01*
X1698Y2327D01*
X1697Y2327D01*
X1696Y2327D01*
X1695Y2327D01*
X1694Y2327D01*
X1693Y2327D01*
X1692Y2327D01*
X1691Y2327D01*
X1690Y2327D01*
X1689Y2327D01*
X1688Y2327D01*
X1687Y2327D01*
X1686Y2327D01*
X1685Y2327D01*
X1684Y2327D01*
X1683Y2327D01*
X1682Y2327D01*
X1681Y2327D01*
X1680Y2327D01*
X1679Y2327D01*
X1678Y2327D01*
X1677Y2327D01*
X1676Y2327D01*
X1675Y2327D01*
X1674Y2327D01*
X1673Y2327D01*
X1672Y2327D01*
X1671Y2327D01*
X1670Y2327D01*
X1669Y2327D01*
X1668Y2327D01*
X1667Y2327D01*
X1666Y2327D01*
X1665Y2327D01*
X1664Y2327D01*
X1663Y2327D01*
X1662Y2327D01*
X1661Y2327D01*
X1660Y2327D01*
X1659Y2327D01*
X1658Y2327D01*
X1657Y2327D01*
X1656Y2327D01*
X1655Y2327D01*
X1654Y2327D01*
X1653Y2327D01*
X1652Y2327D01*
X1651Y2327D01*
X1650Y2327D01*
X1649Y2327D01*
X1648Y2327D01*
X1647Y2327D01*
X1646Y2327D01*
X1645Y2327D01*
X1644Y2327D01*
X1643Y2327D01*
X1642Y2327D01*
X1641Y2327D01*
X1640Y2327D01*
X1639Y2327D01*
X1638Y2327D01*
X1637Y2327D01*
X1636Y2327D01*
X1635Y2327D01*
X1634Y2327D01*
X1633Y2327D01*
X1632Y2327D01*
X1631Y2327D01*
X1630Y2327D01*
X1629Y2327D01*
X1628Y2327D01*
X1627Y2327D01*
X1626Y2327D01*
X1625Y2327D01*
X1624Y2327D01*
X1623Y2327D01*
X1622Y2327D01*
X1621Y2327D01*
X1620Y2327D01*
X1619Y2327D01*
X1618Y2327D01*
X1617Y2327D01*
X1616Y2327D01*
X1615Y2327D01*
X1614Y2327D01*
X1613Y2327D01*
X1612Y2327D01*
X1611Y2327D01*
X1610Y2327D01*
X1609Y2327D01*
X1608Y2327D01*
X1607Y2327D01*
X1606Y2327D01*
X1605Y2327D01*
X1604Y2327D01*
X1603Y2327D01*
X1602Y2327D01*
X1601Y2327D01*
X1600Y2327D01*
X1599Y2327D01*
X1598Y2327D01*
X1597Y2327D01*
X1596Y2327D01*
X1595Y2327D01*
X1594Y2327D01*
X1593Y2327D01*
X1592Y2327D01*
X1591Y2327D01*
X1590Y2327D01*
X1589Y2327D01*
X1588Y2327D01*
X1587Y2327D01*
X1586Y2327D01*
X1585Y2327D01*
X1584Y2327D01*
X1583Y2327D01*
X1582Y2327D01*
X1581Y2327D01*
X1580Y2327D01*
X1579Y2327D01*
X1578Y2327D01*
X1577Y2327D01*
X1576Y2327D01*
X1575Y2327D01*
X1574Y2327D01*
X1573Y2327D01*
X1572Y2327D01*
X1571Y2327D01*
X1570Y2327D01*
X1569Y2327D01*
X1568Y2327D01*
X1567Y2327D01*
X1566Y2327D01*
X1565Y2327D01*
X1564Y2327D01*
X1563Y2327D01*
X1562Y2327D01*
X1561Y2327D01*
X1560Y2327D01*
X1559Y2327D01*
X1558Y2327D01*
X1557Y2327D01*
X1556Y2327D01*
X1555Y2327D01*
X1554Y2327D01*
X1553Y2327D01*
X1552Y2327D01*
X1551Y2327D01*
X1550Y2327D01*
X1549Y2327D01*
X1548Y2327D01*
X1547Y2327D01*
X1546Y2327D01*
X1545Y2327D01*
X1544Y2327D01*
X1543Y2327D01*
X1542Y2327D01*
X1541Y2327D01*
X1540Y2327D01*
X1539Y2327D01*
X1538Y2327D01*
X1537Y2327D01*
X1536Y2327D01*
X1535Y2327D01*
X1534Y2327D01*
X1533Y2327D01*
X1532Y2327D01*
X1531Y2327D01*
X1530Y2327D01*
X1529Y2327D01*
X1528Y2327D01*
X1527Y2327D01*
X1526Y2327D01*
X1525Y2327D01*
X1524Y2327D01*
X1523Y2327D01*
X1522Y2327D01*
X1521Y2327D01*
X1520Y2327D01*
X1519Y2327D01*
X1518Y2327D01*
X1517Y2327D01*
X1516Y2327D01*
X1515Y2327D01*
X1514Y2327D01*
X1513Y2327D01*
X1512Y2327D01*
X1511Y2327D01*
X1510Y2327D01*
X1509Y2327D01*
X1508Y2327D01*
X1507Y2327D01*
X1506Y2327D01*
X1505Y2327D01*
X1504Y2327D01*
X1503Y2327D01*
X1502Y2327D01*
X1501Y2327D01*
X1500Y2327D01*
X1499Y2327D01*
X1498Y2327D01*
X1497Y2327D01*
X1496Y2327D01*
X1495Y2327D01*
X1494Y2327D01*
X1493Y2327D01*
X1492Y2327D01*
X1491Y2327D01*
X1490Y2327D01*
X1489Y2327D01*
X1488Y2327D01*
X1487Y2327D01*
X1486Y2327D01*
X1485Y2327D01*
X1484Y2327D01*
X1483Y2327D01*
X1482Y2327D01*
X1481Y2327D01*
X1480Y2327D01*
X1479Y2327D01*
X1478Y2327D01*
X1477Y2327D01*
X1476Y2327D01*
X1475Y2327D01*
X1474Y2327D01*
X1473Y2327D01*
X1472Y2327D01*
X1471Y2327D01*
X1470Y2327D01*
X1469Y2327D01*
X1468Y2327D01*
X1467Y2327D01*
X1466Y2327D01*
X1465Y2327D01*
X1464Y2327D01*
X1463Y2327D01*
X1462Y2327D01*
X1461Y2327D01*
X1460Y2327D01*
X1459Y2327D01*
X1458Y2327D01*
X1457Y2327D01*
X1456Y2327D01*
X1455Y2327D01*
X1454Y2327D01*
X1453Y2327D01*
X1452Y2327D01*
X1451Y2327D01*
X1450Y2327D01*
X1449Y2327D01*
X1448Y2327D01*
X1447Y2327D01*
X1446Y2327D01*
X1445Y2327D01*
X1444Y2327D01*
X1443Y2327D01*
X1442Y2327D01*
X1441Y2327D01*
X1440Y2327D01*
X1439Y2327D01*
X1438Y2327D01*
X1437Y2327D01*
X1436Y2327D01*
X1435Y2327D01*
X1434Y2327D01*
X1433Y2327D01*
X1432Y2327D01*
X1431Y2327D01*
X1430Y2327D01*
X1429Y2327D01*
X1428Y2327D01*
X1427Y2327D01*
X1426Y2327D01*
X1425Y2327D01*
X1424Y2327D01*
X1423Y2327D01*
X1422Y2327D01*
X1421Y2327D01*
X1420Y2327D01*
X1419Y2327D01*
X1418Y2327D01*
X1417Y2327D01*
X1416Y2327D01*
X1415Y2327D01*
X1414Y2327D01*
X1413Y2327D01*
X1412Y2327D01*
X1411Y2327D01*
X1410Y2327D01*
X1409Y2327D01*
X1408Y2327D01*
X1407Y2327D01*
X1406Y2327D01*
X1405Y2327D01*
X1404Y2327D01*
X1403Y2327D01*
X1402Y2327D01*
X1401Y2327D01*
X1400Y2327D01*
X1399Y2327D01*
X1398Y2327D01*
X1397Y2327D01*
X1396Y2327D01*
X1395Y2327D01*
X1394Y2327D01*
X1393Y2327D01*
X1392Y2327D01*
X1391Y2327D01*
X1390Y2327D01*
X1389Y2327D01*
X1388Y2327D01*
X1387Y2327D01*
X1386Y2327D01*
X1385Y2327D01*
X1384Y2327D01*
X1383Y2327D01*
X1382Y2327D01*
X1381Y2327D01*
X1380Y2327D01*
X1379Y2327D01*
X1378Y2327D01*
X1377Y2327D01*
X1376Y2327D01*
X1375Y2327D01*
X1374Y2327D01*
X1373Y2327D01*
X1372Y2327D01*
X1371Y2327D01*
X1370Y2327D01*
X1369Y2327D01*
X1368Y2327D01*
X1367Y2327D01*
X1366Y2327D01*
X1365Y2327D01*
X1364Y2327D01*
X1363Y2327D01*
X1362Y2327D01*
X1361Y2327D01*
X1360Y2327D01*
X1359Y2327D01*
X1358Y2327D01*
X1357Y2327D01*
X1356Y2327D01*
X1355Y2327D01*
X1354Y2327D01*
X1353Y2327D01*
X1352Y2327D01*
X1351Y2327D01*
X1350Y2327D01*
X1349Y2327D01*
X1348Y2327D01*
X1347Y2327D01*
X1346Y2327D01*
X1345Y2327D01*
X1344Y2327D01*
X1343Y2327D01*
X1342Y2327D01*
X1341Y2327D01*
X1340Y2327D01*
X1339Y2327D01*
X1338Y2327D01*
X1337Y2327D01*
X1336Y2327D01*
X1335Y2327D01*
X1334Y2327D01*
X1333Y2327D01*
X1332Y2327D01*
X1331Y2327D01*
X1330Y2327D01*
X1329Y2327D01*
X1328Y2327D01*
X1327Y2327D01*
X1326Y2327D01*
X1325Y2327D01*
X1324Y2327D01*
X1323Y2327D01*
X1322Y2327D01*
X1321Y2327D01*
X1320Y2327D01*
X1319Y2327D01*
X1318Y2327D01*
X1317Y2327D01*
X1316Y2327D01*
X1315Y2327D01*
X1314Y2327D01*
X1313Y2327D01*
X1312Y2327D01*
X1311Y2327D01*
X1310Y2327D01*
X1309Y2327D01*
X1308Y2327D01*
X1307Y2327D01*
X1306Y2327D01*
X1305Y2327D01*
X1304Y2327D01*
X1303Y2327D01*
X1303Y2079D01*
X1302Y2078D01*
X1301Y2078D01*
X1300Y2078D01*
X1299Y2078D01*
X1298Y2078D01*
X1297Y2078D01*
X1296Y2078D01*
X1295Y2078D01*
X1294Y2078D01*
X1293Y2078D01*
X1292Y2078D01*
X1291Y2078D01*
X1290Y2078D01*
X1289Y2078D01*
X1288Y2078D01*
X1287Y2078D01*
X1286Y2078D01*
X1285Y2078D01*
X1284Y2078D01*
X1283Y2078D01*
X1282Y2078D01*
X1281Y2078D01*
X1280Y2078D01*
X1279Y2078D01*
X1278Y2078D01*
X1277Y2078D01*
X1276Y2078D01*
X1275Y2078D01*
X1274Y2078D01*
X1273Y2078D01*
X1272Y2078D01*
X1271Y2078D01*
X1270Y2078D01*
X1269Y2078D01*
X1268Y2078D01*
X1267Y2078D01*
X1266Y2078D01*
X1265Y2078D01*
X1264Y2078D01*
X1263Y2078D01*
X1262Y2078D01*
X1261Y2078D01*
X1260Y2078D01*
X1259Y2078D01*
X1258Y2078D01*
X1257Y2078D01*
X1256Y2078D01*
X1255Y2078D01*
X1254Y2078D01*
X1253Y2078D01*
X1252Y2078D01*
X1251Y2078D01*
X1250Y2078D01*
X1249Y2078D01*
X1248Y2078D01*
X1247Y2078D01*
X1246Y2078D01*
X1245Y2078D01*
X1244Y2078D01*
X1243Y2078D01*
X1242Y2078D01*
X1241Y2078D01*
X1240Y2078D01*
X1239Y2078D01*
X1238Y2078D01*
X1237Y2078D01*
X1236Y2078D01*
X1235Y2078D01*
X1234Y2078D01*
X1233Y2078D01*
X1232Y2078D01*
X1231Y2078D01*
X1230Y2078D01*
X1229Y2078D01*
X1228Y2078D01*
X1227Y2078D01*
X1226Y2078D01*
X1225Y2078D01*
X1224Y2078D01*
X1223Y2078D01*
X1222Y2078D01*
X1221Y2078D01*
X1220Y2078D01*
X1219Y2078D01*
X1218Y2078D01*
X1217Y2078D01*
X1216Y2078D01*
X1215Y2078D01*
X1214Y2078D01*
X1213Y2078D01*
X1212Y2078D01*
X1211Y2078D01*
X1210Y2078D01*
X1209Y2078D01*
X1208Y2078D01*
X1207Y2078D01*
X1206Y2078D01*
X1205Y2078D01*
X1204Y2078D01*
X1203Y2078D01*
X1202Y2078D01*
X1201Y2078D01*
X1200Y2078D01*
X1199Y2078D01*
X1198Y2078D01*
X1197Y2078D01*
X1196Y2078D01*
X1195Y2078D01*
X1194Y2078D01*
X1193Y2078D01*
X1192Y2078D01*
X1191Y2078D01*
X1190Y2078D01*
X1189Y2078D01*
X1188Y2078D01*
X1187Y2078D01*
X1186Y2078D01*
X1185Y2078D01*
X1184Y2078D01*
X1183Y2078D01*
X1182Y2078D01*
X1181Y2078D01*
X1180Y2078D01*
X1179Y2078D01*
X1178Y2078D01*
X1177Y2078D01*
X1176Y2078D01*
X1175Y2078D01*
X1174Y2078D01*
X1173Y2078D01*
X1172Y2078D01*
X1171Y2078D01*
X1170Y2078D01*
X1169Y2078D01*
X1168Y2078D01*
X1167Y2078D01*
X1166Y2078D01*
X1165Y2078D01*
X1164Y2078D01*
X1163Y2078D01*
X1162Y2078D01*
X1161Y2078D01*
X1160Y2078D01*
X1159Y2078D01*
X1158Y2078D01*
X1157Y2078D01*
X1156Y2078D01*
X1155Y2078D01*
X1154Y2078D01*
X1153Y2078D01*
X1152Y2078D01*
X1151Y2078D01*
X1150Y2078D01*
X1149Y2078D01*
X1148Y2078D01*
X1147Y2078D01*
X1146Y2078D01*
X1145Y2078D01*
X1144Y2078D01*
X1143Y2078D01*
X1142Y2078D01*
X1141Y2078D01*
X1140Y2078D01*
X1139Y2078D01*
X1138Y2078D01*
X1137Y2078D01*
X1136Y2078D01*
X1135Y2078D01*
X1134Y2078D01*
X1133Y2078D01*
X1132Y2078D01*
X1131Y2078D01*
X1130Y2078D01*
X1129Y2078D01*
X1128Y2078D01*
X1127Y2078D01*
X1126Y2078D01*
X1125Y2078D01*
X1124Y2078D01*
X1123Y2078D01*
X1122Y2078D01*
X1121Y2078D01*
X1120Y2078D01*
X1119Y2078D01*
X1118Y2078D01*
X1117Y2078D01*
X1116Y2078D01*
X1115Y2078D01*
X1114Y2078D01*
X1113Y2078D01*
X1112Y2078D01*
X1111Y2078D01*
X1110Y2078D01*
X1109Y2078D01*
X1108Y2078D01*
X1107Y2078D01*
X1106Y2078D01*
X1105Y2078D01*
X1104Y2078D01*
X1103Y2078D01*
X1102Y2078D01*
X1101Y2078D01*
X1100Y2078D01*
X1099Y2078D01*
X1098Y2078D01*
X1097Y2078D01*
X1096Y2078D01*
X1095Y2078D01*
X1094Y2078D01*
X1093Y2078D01*
X1092Y2078D01*
X1091Y2078D01*
X1090Y2078D01*
X1089Y2078D01*
X1088Y2078D01*
X1087Y2078D01*
X1086Y2078D01*
X1085Y2078D01*
X1084Y2078D01*
X1083Y2078D01*
X1082Y2078D01*
X1081Y2078D01*
X1080Y2078D01*
X1079Y2078D01*
X1078Y2078D01*
X1077Y2078D01*
X1076Y2078D01*
X1075Y2078D01*
X1074Y2078D01*
X1073Y2078D01*
X1072Y2078D01*
X1071Y2078D01*
X1070Y2078D01*
X1069Y2078D01*
X1068Y2078D01*
X1067Y2078D01*
X1066Y2078D01*
X1065Y2078D01*
X1064Y2078D01*
X1063Y2078D01*
X1062Y2078D01*
X1061Y2078D01*
X1060Y2078D01*
X1059Y2078D01*
X1058Y2078D01*
X1057Y2078D01*
X1056Y2078D01*
X1055Y2078D01*
X1054Y2078D01*
X1053Y2078D01*
X1052Y2078D01*
X1051Y2078D01*
X1050Y2078D01*
X1049Y2078D01*
X1048Y2078D01*
X1047Y2078D01*
X1046Y2078D01*
X1045Y2078D01*
X1044Y2078D01*
X1043Y2078D01*
X1042Y2078D01*
X1041Y2078D01*
X1040Y2078D01*
X1039Y2078D01*
X1038Y2078D01*
X1037Y2078D01*
X1036Y2078D01*
X1035Y2078D01*
X1034Y2078D01*
X1033Y2078D01*
X1032Y2078D01*
X1031Y2078D01*
X1030Y2078D01*
X1029Y2078D01*
X1028Y2078D01*
X1027Y2078D01*
X1026Y2078D01*
X1025Y2078D01*
X1024Y2078D01*
X1023Y2078D01*
X1022Y2078D01*
X1021Y2078D01*
X1020Y2078D01*
X1019Y2078D01*
X1018Y2078D01*
X1017Y2078D01*
X1016Y2078D01*
X1015Y2078D01*
X1014Y2078D01*
X1013Y2078D01*
X1012Y2078D01*
X1011Y2078D01*
X1010Y2078D01*
X1009Y2078D01*
X1008Y2078D01*
X1007Y2078D01*
X1006Y2078D01*
X1005Y2078D01*
X1004Y2078D01*
X1003Y2078D01*
X1002Y2078D01*
X1001Y2078D01*
X1000Y2078D01*
X999Y2078D01*
X998Y2078D01*
X997Y2078D01*
X996Y2078D01*
X995Y2078D01*
X994Y2078D01*
X993Y2078D01*
X992Y2078D01*
X991Y2078D01*
X990Y2078D01*
X989Y2078D01*
X988Y2078D01*
X987Y2078D01*
X986Y2078D01*
X985Y2078D01*
X984Y2078D01*
X983Y2078D01*
X982Y2078D01*
X981Y2078D01*
X980Y2078D01*
X979Y2078D01*
X978Y2078D01*
X977Y2078D01*
X976Y2078D01*
X975Y2078D01*
X974Y2078D01*
X973Y2078D01*
X972Y2078D01*
X971Y2078D01*
X970Y2078D01*
X969Y2078D01*
X968Y2078D01*
X967Y2078D01*
X966Y2078D01*
X965Y2078D01*
X964Y2078D01*
X963Y2078D01*
X962Y2078D01*
X961Y2078D01*
X960Y2078D01*
X959Y2078D01*
X958Y2078D01*
X957Y2078D01*
X956Y2078D01*
X955Y2078D01*
X954Y2078D01*
X953Y2078D01*
X952Y2078D01*
X951Y2078D01*
X950Y2078D01*
X949Y2078D01*
X948Y2078D01*
X947Y2078D01*
X946Y2078D01*
X945Y2078D01*
X944Y2078D01*
X943Y2078D01*
X942Y2078D01*
X941Y2078D01*
X940Y2078D01*
X939Y2078D01*
X938Y2078D01*
X937Y2078D01*
X936Y2078D01*
X935Y2078D01*
X934Y2078D01*
X933Y2078D01*
X932Y2078D01*
X931Y2078D01*
X930Y2078D01*
X929Y2078D01*
X928Y2078D01*
X927Y2078D01*
X926Y2078D01*
X925Y2078D01*
X924Y2078D01*
X923Y2078D01*
X922Y2078D01*
X921Y2078D01*
X920Y2078D01*
X919Y2078D01*
X918Y2078D01*
X917Y2078D01*
X916Y2078D01*
X915Y2078D01*
X914Y2078D01*
X913Y2078D01*
X912Y2078D01*
X911Y2078D01*
X910Y2078D01*
X909Y2078D01*
X908Y2078D01*
X907Y2078D01*
X906Y2078D01*
X905Y2078D01*
X904Y2078D01*
X903Y2078D01*
X902Y2078D01*
X901Y2078D01*
X900Y2078D01*
X899Y2078D01*
X898Y2078D01*
X897Y2078D01*
X896Y2078D01*
X895Y2078D01*
X894Y2078D01*
X893Y2078D01*
X892Y2078D01*
X891Y2078D01*
X890Y2078D01*
X889Y2078D01*
X888Y2078D01*
X887Y2078D01*
X886Y2078D01*
X885Y2078D01*
X884Y2078D01*
X883Y2078D01*
X882Y2078D01*
X881Y2078D01*
X880Y2078D01*
X879Y2078D01*
X878Y2078D01*
X877Y2078D01*
X876Y2078D01*
X875Y2078D01*
X874Y2078D01*
X873Y2078D01*
X872Y2078D01*
X871Y2078D01*
X870Y2078D01*
X869Y2078D01*
X868Y2078D01*
X867Y2078D01*
X866Y2078D01*
X865Y2078D01*
X864Y2078D01*
X863Y2078D01*
X862Y2078D01*
X861Y2078D01*
X860Y2078D01*
X859Y2078D01*
X858Y2078D01*
X857Y2078D01*
X856Y2078D01*
X855Y2078D01*
X854Y2078D01*
X853Y2078D01*
X852Y2078D01*
X851Y2078D01*
X850Y2078D01*
X849Y2078D01*
X848Y2078D01*
X847Y2078D01*
X846Y2078D01*
X845Y2078D01*
X844Y2078D01*
X843Y2078D01*
X842Y2078D01*
X841Y2078D01*
X840Y2078D01*
X839Y2078D01*
X838Y2078D01*
X837Y2078D01*
X836Y2078D01*
X835Y2078D01*
X834Y2078D01*
X833Y2078D01*
X832Y2078D01*
X831Y2078D01*
X830Y2078D01*
X829Y2078D01*
X828Y2078D01*
X827Y2078D01*
X826Y2078D01*
X825Y2078D01*
X824Y2078D01*
X823Y2078D01*
X822Y2078D01*
X821Y2078D01*
X820Y2078D01*
X819Y2078D01*
X818Y2078D01*
X817Y2078D01*
X816Y2078D01*
X815Y2078D01*
X814Y2078D01*
X813Y2078D01*
X812Y2078D01*
X811Y2078D01*
X810Y2078D01*
X809Y2078D01*
X808Y2078D01*
X807Y2078D01*
X806Y2078D01*
X805Y2078D01*
X804Y2078D01*
X803Y2078D01*
X802Y2078D01*
X801Y2078D01*
X800Y2078D01*
X799Y2078D01*
X798Y2078D01*
X797Y2078D01*
X796Y2078D01*
X795Y2078D01*
X794Y2078D01*
X793Y2078D01*
X792Y2078D01*
X791Y2078D01*
X790Y2078D01*
X789Y2078D01*
X788Y2078D01*
X787Y2078D01*
X786Y2078D01*
X785Y2078D01*
X784Y2078D01*
X783Y2078D01*
X782Y2078D01*
X781Y2078D01*
X780Y2078D01*
X779Y2078D01*
X778Y2078D01*
X777Y2078D01*
X776Y2078D01*
X775Y2078D01*
X774Y2078D01*
X773Y2078D01*
X772Y2078D01*
X771Y2078D01*
X770Y2078D01*
X769Y2078D01*
X768Y2078D01*
X767Y2078D01*
X766Y2078D01*
X765Y2078D01*
X764Y2078D01*
X763Y2078D01*
X762Y2078D01*
X761Y2078D01*
X760Y2078D01*
X759Y2078D01*
X758Y2078D01*
X757Y2078D01*
X756Y2078D01*
X755Y2078D01*
X754Y2078D01*
X753Y2078D01*
X752Y2078D01*
X751Y2078D01*
X750Y2078D01*
X749Y2078D01*
X748Y2078D01*
X747Y2078D01*
X746Y2078D01*
X745Y2078D01*
X744Y2078D01*
X743Y2078D01*
X742Y2078D01*
X741Y2078D01*
X740Y2078D01*
X739Y2078D01*
X738Y2078D01*
X737Y2078D01*
X736Y2078D01*
X735Y2078D01*
X734Y2078D01*
X733Y2078D01*
X732Y2078D01*
X731Y2078D01*
X730Y2078D01*
X729Y2078D01*
X728Y2078D01*
X727Y2078D01*
X726Y2078D01*
X725Y2078D01*
X724Y2078D01*
X723Y2078D01*
X722Y2078D01*
X721Y2078D01*
X720Y2078D01*
X719Y2078D01*
X718Y2078D01*
X717Y2078D01*
X716Y2078D01*
X715Y2078D01*
X714Y2078D01*
X713Y2078D01*
X712Y2078D01*
X711Y2078D01*
X710Y2078D01*
X709Y2078D01*
X708Y2078D01*
X707Y2078D01*
X706Y2078D01*
X705Y2078D01*
X704Y2078D01*
X703Y2078D01*
X702Y2078D01*
X701Y2078D01*
X700Y2078D01*
X699Y2078D01*
X698Y2078D01*
X697Y2078D01*
X696Y2078D01*
X695Y2078D01*
X694Y2078D01*
X693Y2078D01*
X692Y2078D01*
X691Y2078D01*
X690Y2078D01*
X689Y2078D01*
X688Y2078D01*
X687Y2078D01*
X686Y2078D01*
X685Y2078D01*
X684Y2078D01*
X683Y2078D01*
X682Y2078D01*
X681Y2078D01*
X680Y2078D01*
X679Y2078D01*
X678Y2078D01*
X677Y2078D01*
X676Y2078D01*
X675Y2078D01*
X674Y2078D01*
X673Y2078D01*
X672Y2078D01*
X671Y2078D01*
X670Y2078D01*
X669Y2078D01*
X668Y2078D01*
X667Y2078D01*
X666Y2078D01*
X665Y2078D01*
X664Y2078D01*
X663Y2078D01*
X662Y2078D01*
X661Y2078D01*
X660Y2078D01*
X659Y2078D01*
X658Y2078D01*
X657Y2078D01*
X656Y2078D01*
X655Y2078D01*
X654Y2078D01*
X653Y2078D01*
X652Y2078D01*
X651Y2078D01*
X650Y2078D01*
X649Y2078D01*
X648Y2078D01*
X647Y2078D01*
X646Y2078D01*
X645Y2078D01*
X644Y2078D01*
X643Y2078D01*
X642Y2078D01*
X641Y2078D01*
X640Y2078D01*
X639Y2078D01*
X638Y2078D01*
X637Y2078D01*
X636Y2078D01*
X635Y2078D01*
X634Y2078D01*
X633Y2078D01*
X632Y2078D01*
X631Y2078D01*
X630Y2078D01*
X629Y2078D01*
X628Y2078D01*
X627Y2078D01*
X626Y2078D01*
X625Y2078D01*
X624Y2078D01*
X623Y2078D01*
X622Y2078D01*
X621Y2078D01*
X620Y2078D01*
X619Y2078D01*
X618Y2078D01*
X617Y2078D01*
X616Y2078D01*
X615Y2078D01*
X614Y2078D01*
X613Y2078D01*
X612Y2078D01*
X611Y2078D01*
X610Y2078D01*
X609Y2078D01*
X608Y2078D01*
X607Y2078D01*
X606Y2078D01*
X605Y2078D01*
X604Y2078D01*
X603Y2078D01*
X602Y2078D01*
X601Y2078D01*
X600Y2078D01*
X599Y2078D01*
X598Y2078D01*
X597Y2078D01*
X596Y2078D01*
X595Y2078D01*
X594Y2078D01*
X593Y2078D01*
X592Y2078D01*
X591Y2078D01*
X590Y2078D01*
X589Y2078D01*
X588Y2078D01*
X587Y2078D01*
X586Y2078D01*
X585Y2078D01*
X584Y2078D01*
X583Y2078D01*
X582Y2078D01*
X581Y2078D01*
X580Y2078D01*
X579Y2078D01*
X578Y2078D01*
X577Y2078D01*
X576Y2078D01*
X575Y2078D01*
X574Y2078D01*
X573Y2078D01*
X572Y2078D01*
X571Y2078D01*
X570Y2078D01*
X569Y2078D01*
X568Y2078D01*
X567Y2078D01*
X566Y2078D01*
X565Y2078D01*
X564Y2078D01*
X563Y2078D01*
X562Y2078D01*
X561Y2078D01*
X560Y2078D01*
X559Y2078D01*
X558Y2078D01*
X557Y2078D01*
X556Y2078D01*
X555Y2078D01*
X554Y2078D01*
X553Y2078D01*
X552Y2078D01*
X551Y2078D01*
X550Y2078D01*
X549Y2078D01*
X548Y2078D01*
X547Y2078D01*
X546Y2078D01*
X545Y2078D01*
X544Y2078D01*
X543Y2078D01*
X542Y2078D01*
X541Y2078D01*
X540Y2078D01*
X539Y2078D01*
X538Y2078D01*
X537Y2078D01*
X536Y2078D01*
X535Y2078D01*
X534Y2078D01*
X533Y2078D01*
X532Y2078D01*
X531Y2078D01*
X530Y2078D01*
X529Y2078D01*
X528Y2078D01*
X527Y2078D01*
X526Y2078D01*
X525Y2078D01*
X524Y2078D01*
X523Y2078D01*
X522Y2078D01*
X521Y2078D01*
X520Y2078D01*
X519Y2078D01*
X518Y2078D01*
X517Y2078D01*
X516Y2078D01*
X515Y2078D01*
X514Y2078D01*
X513Y2078D01*
X512Y2078D01*
X511Y2078D01*
X510Y2078D01*
X509Y2078D01*
X508Y2078D01*
X507Y2078D01*
X506Y2078D01*
X505Y2078D01*
X504Y2078D01*
X503Y2078D01*
X502Y2078D01*
X501Y2078D01*
X500Y2078D01*
X499Y2078D01*
X498Y2078D01*
X497Y2078D01*
X496Y2078D01*
X495Y2078D01*
X494Y2078D01*
X493Y2078D01*
X492Y2078D01*
X491Y2078D01*
X490Y2078D01*
X489Y2078D01*
X488Y2078D01*
X487Y2078D01*
X486Y2078D01*
X485Y2078D01*
X484Y2078D01*
X483Y2078D01*
X482Y2078D01*
X481Y2078D01*
X480Y2078D01*
X479Y2078D01*
X478Y2078D01*
X477Y2078D01*
X476Y2078D01*
X475Y2078D01*
X474Y2078D01*
X473Y2078D01*
X472Y2078D01*
X471Y2078D01*
X470Y2078D01*
X469Y2078D01*
X468Y2078D01*
X467Y2078D01*
X466Y2078D01*
X465Y2078D01*
X464Y2078D01*
X463Y2078D01*
X462Y2078D01*
X461Y2078D01*
X460Y2078D01*
X459Y2078D01*
X458Y2078D01*
X457Y2078D01*
X456Y2078D01*
X455Y2078D01*
X454Y2078D01*
X453Y2078D01*
X452Y2078D01*
X451Y2078D01*
X450Y2078D01*
X449Y2078D01*
X448Y2078D01*
X447Y2078D01*
X446Y2078D01*
X445Y2078D01*
X444Y2078D01*
X443Y2078D01*
X442Y2078D01*
X441Y2078D01*
X440Y2078D01*
X439Y2078D01*
X438Y2078D01*
X437Y2078D01*
X436Y2078D01*
X435Y2078D01*
X434Y2078D01*
X433Y2078D01*
X432Y2078D01*
X431Y2078D01*
X430Y2078D01*
X429Y2078D01*
X428Y2078D01*
X427Y2078D01*
X426Y2078D01*
X425Y2078D01*
X424Y2078D01*
X423Y2078D01*
X422Y2078D01*
X421Y2078D01*
X420Y2078D01*
X419Y2078D01*
X418Y2078D01*
X417Y2078D01*
X416Y2078D01*
X415Y2078D01*
X414Y2078D01*
X413Y2078D01*
X412Y2078D01*
X411Y2078D01*
X410Y2078D01*
X409Y2078D01*
X408Y2078D01*
X407Y2078D01*
X406Y2078D01*
X405Y2078D01*
X404Y2078D01*
X403Y2078D01*
X402Y2078D01*
X401Y2078D01*
X400Y2078D01*
X399Y2078D01*
X398Y2078D01*
X397Y2078D01*
X396Y2078D01*
X395Y2078D01*
X394Y2078D01*
X393Y2078D01*
X392Y2078D01*
X391Y2078D01*
X390Y2078D01*
X389Y2078D01*
X388Y2078D01*
X387Y2078D01*
X386Y2078D01*
X385Y2078D01*
X384Y2078D01*
X383Y2078D01*
X382Y2078D01*
X381Y2078D01*
X380Y2078D01*
X379Y2078D01*
X378Y2078D01*
X377Y2078D01*
X376Y2078D01*
X375Y2078D01*
X374Y2078D01*
X373Y2078D01*
X372Y2078D01*
X371Y2078D01*
X370Y2078D01*
X369Y2078D01*
X368Y2078D01*
X367Y2078D01*
X366Y2078D01*
X365Y2078D01*
X364Y2078D01*
X363Y2078D01*
X362Y2078D01*
X361Y2078D01*
X360Y2078D01*
X359Y2078D01*
X358Y2078D01*
X357Y2078D01*
X356Y2078D01*
X355Y2078D01*
X354Y2078D01*
X353Y2078D01*
X352Y2078D01*
X351Y2078D01*
X350Y2078D01*
X349Y2078D01*
X348Y2078D01*
X347Y2078D01*
X346Y2078D01*
X345Y2078D01*
X344Y2078D01*
X343Y2078D01*
X342Y2078D01*
X341Y2078D01*
X340Y2078D01*
X339Y2078D01*
X338Y2078D01*
X337Y2078D01*
X336Y2078D01*
X335Y2078D01*
X334Y2078D01*
X333Y2078D01*
X332Y2078D01*
X331Y2078D01*
X330Y2078D01*
X329Y2078D01*
X328Y2078D01*
X327Y2078D01*
X326Y2078D01*
X325Y2078D01*
X324Y2078D01*
X323Y2078D01*
X322Y2078D01*
X321Y2078D01*
X320Y2078D01*
X319Y2078D01*
X318Y2078D01*
X317Y2078D01*
X316Y2078D01*
X315Y2078D01*
X314Y2078D01*
X313Y2078D01*
X312Y2078D01*
X311Y2078D01*
X310Y2078D01*
X309Y2078D01*
X308Y2078D01*
X307Y2078D01*
X306Y2078D01*
X305Y2078D01*
X304Y2078D01*
X303Y2078D01*
X302Y2078D01*
X301Y2078D01*
X300Y2078D01*
X299Y2078D01*
X298Y2078D01*
X297Y2078D01*
X296Y2078D01*
X295Y2078D01*
X294Y2078D01*
X293Y2078D01*
X292Y2078D01*
X291Y2078D01*
X290Y2078D01*
X289Y2078D01*
X288Y2078D01*
X287Y2078D01*
X286Y2078D01*
X285Y2078D01*
X284Y2078D01*
X283Y2078D01*
X282Y2078D01*
X281Y2078D01*
X280Y2078D01*
X279Y2078D01*
X278Y2078D01*
X277Y2078D01*
X276Y2078D01*
X275Y2078D01*
X274Y2078D01*
X273Y2078D01*
X272Y2078D01*
X271Y2078D01*
X270Y2078D01*
X269Y2078D01*
X268Y2078D01*
X267Y2078D01*
X266Y2078D01*
X265Y2078D01*
X264Y2078D01*
X263Y2078D01*
X262Y2078D01*
X261Y2078D01*
X260Y2078D01*
X259Y2078D01*
X258Y2078D01*
X257Y2078D01*
X256Y2078D01*
X255Y2078D01*
X254Y2078D01*
X253Y2078D01*
X252Y2078D01*
X251Y2078D01*
X250Y2078D01*
X249Y2078D01*
X248Y2078D01*
X247Y2078D01*
X246Y2078D01*
X245Y2078D01*
X244Y2078D01*
X243Y2078D01*
X242Y2078D01*
X241Y2078D01*
X240Y2078D01*
X239Y2079D01*
X239Y2327D01*
X238Y2327D01*
X237Y2327D01*
X236Y2327D01*
X235Y2327D01*
X234Y2327D01*
X233Y2327D01*
X232Y2327D01*
X231Y2327D01*
X230Y2327D01*
X229Y2327D01*
X228Y2327D01*
X227Y2327D01*
X226Y2327D01*
X225Y2327D01*
X224Y2327D01*
X223Y2327D01*
X222Y2327D01*
X221Y2327D01*
X220Y2327D01*
X219Y2327D01*
X218Y2327D01*
X217Y2327D01*
X216Y2327D01*
X215Y2327D01*
X214Y2327D01*
X213Y2327D01*
X212Y2327D01*
X211Y2327D01*
X210Y2327D01*
X209Y2327D01*
X208Y2327D01*
X207Y2327D01*
X206Y2327D01*
X205Y2327D01*
X204Y2327D01*
X203Y2327D01*
X202Y2327D01*
X201Y2327D01*
X200Y2327D01*
X199Y2327D01*
X198Y2327D01*
X197Y2327D01*
X196Y2327D01*
X195Y2327D01*
X194Y2327D01*
X193Y2327D01*
X192Y2327D01*
X191Y2327D01*
X190Y2327D01*
X189Y2327D01*
X188Y2327D01*
X187Y2327D01*
X186Y2327D01*
X185Y2327D01*
X184Y2327D01*
X183Y2327D01*
X182Y2327D01*
X181Y2327D01*
X180Y2327D01*
X179Y2327D01*
X178Y2327D01*
X177Y2327D01*
X176Y2327D01*
X175Y2327D01*
X174Y2327D01*
X173Y2327D01*
X172Y2327D01*
X171Y2327D01*
X170Y2327D01*
X169Y2327D01*
X168Y2327D01*
X167Y2327D01*
X166Y2327D01*
X165Y2327D01*
X164Y2327D01*
X163Y2327D01*
X162Y2327D01*
X161Y2327D01*
X160Y2327D01*
X159Y2327D01*
X158Y2327D01*
X157Y2327D01*
X156Y2327D01*
X155Y2327D01*
X154Y2327D01*
X153Y2327D01*
X152Y2327D01*
X151Y2327D01*
X150Y2327D01*
X149Y2327D01*
X148Y2327D01*
X147Y2327D01*
X146Y2327D01*
X145Y2327D01*
X144Y2327D01*
X143Y2327D01*
X142Y2327D01*
X141Y2327D01*
X140Y2327D01*
X139Y2327D01*
X138Y2327D01*
X137Y2327D01*
X136Y2327D01*
X135Y2327D01*
X134Y2327D01*
X133Y2327D01*
X132Y2327D01*
X131Y2327D01*
X130Y2327D01*
X129Y2327D01*
X128Y2327D01*
X127Y2327D01*
X126Y2327D01*
X125Y2327D01*
X124Y2327D01*
X123Y2327D01*
X122Y2327D01*
X121Y2327D01*
X120Y2327D01*
X119Y2327D01*
X118Y2327D01*
X117Y2327D01*
X116Y2327D01*
X115Y2327D01*
X114Y2327D01*
X113Y2327D01*
X112Y2327D01*
X111Y2327D01*
X110Y2327D01*
X109Y2327D01*
X108Y2327D01*
X107Y2327D01*
X106Y2327D01*
X105Y2327D01*
X104Y2327D01*
X103Y2327D01*
X102Y2327D01*
X101Y2327D01*
X100Y2327D01*
X99Y2327D01*
X98Y2327D01*
X97Y2327D01*
X96Y2327D01*
X95Y2327D01*
X94Y2327D01*
X93Y2327D01*
X92Y2327D01*
X91Y2327D01*
X90Y2327D01*
X89Y2327D01*
X88Y2327D01*
X87Y2327D01*
X86Y2327D01*
X85Y2327D01*
X84Y2327D01*
X83Y2327D01*
X82Y2327D01*
X81Y2327D01*
X80Y2327D01*
X79Y2327D01*
X78Y2327D01*
X77Y2327D01*
X76Y2327D01*
X75Y2327D01*
X74Y2327D01*
X73Y2327D01*
X72Y2327D01*
X71Y2327D01*
X70Y2327D01*
X69Y2327D01*
X68Y2327D01*
X67Y2327D01*
X66Y2327D01*
X65Y2327D01*
X64Y2327D01*
X63Y2327D01*
X62Y2327D01*
X61Y2327D01*
X60Y2327D01*
X59Y2327D01*
X58Y2327D01*
X57Y2327D01*
X56Y2327D01*
X55Y2327D01*
X54Y2327D01*
X53Y2327D01*
X52Y2327D01*
X51Y2327D01*
X50Y2327D01*
X49Y2327D01*
X48Y2327D01*
X47Y2327D01*
X46Y2327D01*
X45Y2327D01*
X44Y2327D01*
X43Y2327D01*
X42Y2327D01*
X41Y2327D01*
X40Y2327D01*
X39Y2327D01*
X38Y2327D01*
X37Y2327D01*
X36Y2327D01*
X35Y2327D01*
X34Y2327D01*
X33Y2327D01*
X32Y2327D01*
X31Y2327D01*
X30Y2327D01*
X29Y2327D01*
X28Y2327D01*
X27Y2327D01*
X26Y2327D01*
X25Y2327D01*
X24Y2327D01*
X23Y2327D01*
X22Y2327D01*
X21Y2327D01*
X20Y2327D01*
X19Y2327D01*
X18Y2327D01*
X17Y2327D01*
X16Y2327D01*
X15Y2327D01*
X14Y2327D01*
X13Y2327D01*
X12Y2327D01*
X11Y2327D01*
X10Y2327D01*
X9Y2327D01*
X8Y2327D01*
X7Y2327D01*
X6Y2327D01*
X5Y2327D01*
X4Y2327D01*
D02*
G04 End of contour*
M02*