; NON-PLATED HOLES START AT T1
; THROUGH (PLATED) HOLES START AT T100
M48
INCH
T100C0.035000
T101C0.031497
T102C0.015748
T103C0.102362
T104C0.038000
T105C0.040000
T106C0.030000
%
T100
X006521Y020255
X004521Y014255
X006521Y017255
X003771Y003005
X027771Y006755
X016771Y019005
X027771Y010755
X004521Y015755
X020521Y014005
X022271Y001755
X004521Y011255
X004521Y009755
X020521Y015005
X026271Y001755
X004521Y018755
X004521Y020255
X027771Y008755
X020771Y019005
X004521Y017255
X006521Y012755
X022771Y019005
X009271Y003755
X027771Y009755
X020521Y012005
X027771Y012255
X024771Y009755
X024771Y010755
X024021Y000505
X016521Y017005
X018271Y004005
X013271Y003755
X016521Y016005
X022271Y004005
X024771Y008755
X020521Y016005
X013771Y022255
X026771Y019005
X020771Y018005
X016521Y015005
X016771Y013005
X024771Y007755
X004521Y012755
X006521Y015755
X017771Y022255
X007771Y003005
X027771Y016255
X020521Y017005
X020771Y013005
X024771Y006755
X016521Y012005
X026271Y020755
X006521Y018755
X020021Y000505
X022271Y020755
X027771Y007755
X006521Y011255
X016521Y014005
X016771Y018005
X006521Y014255
X006521Y009755
T101
X004005Y001005
X027755Y022255
X026771Y001005
X003021Y001005
X027755Y001005
X026771Y022255
T102
X022521Y022505
X025517Y012011
X012520Y019255
X021522Y020255
X013017Y018756
X006771Y004755
X021521Y019255
X024271Y003755
X025271Y017005
X014021Y014002
X024521Y021005
X022271Y012005
X020267Y002758
X005526Y008504
X003771Y002005
X007772Y005999
X015519Y012511
X021271Y012005
X011764Y011503
X013021Y014005
X023021Y003755
X023770Y002256
X014002Y016756
X016021Y016505
X019024Y003253
X022271Y009255
X013021Y004505
X013521Y011505
X022525Y019751
X008271Y004255
X011514Y013503
X014027Y015005
X022271Y010005
X011271Y004005
X014016Y017259
X027021Y010755
X023524Y014507
X006764Y016500
X020521Y004755
X012271Y014505
X014018Y013004
X020021Y009255
X014023Y011005
X009521Y006505
X012771Y019755
X015021Y014505
X013525Y016259
X012527Y010500
X017021Y006255
X010777Y011753
X015521Y018755
X022271Y008255
X017521Y011505
X022521Y002755
X023521Y017005
X011017Y014000
X016521Y020755
X014018Y012006
X015519Y017261
X025021Y014005
X003015Y003005
X015529Y006011
X022271Y011005
X020271Y022505
X011962Y010002
X017515Y004505
X023021Y015005
X021771Y003255
X013271Y015005
X009521Y005005
T103
X001021Y022255
X023521Y022255
X005771Y001005
X023521Y005255
T104
X008021Y011005
X001771Y012505
X008021Y009505
X019021Y007505
X001771Y014005
X005771Y005505
X010021Y016005
X000771Y008005
X008021Y017505
X006771Y005505
X023521Y011005
X009021Y017505
X000771Y001755
X015021Y007505
X019021Y001505
X001771Y007005
X002771Y012505
X013021Y007505
X000771Y017505
X010021Y020505
X009021Y016005
X012021Y001505
X000771Y016005
X002771Y017505
X021021Y007505
X002771Y005505
X009021Y011005
X016021Y001505
X002771Y008005
X027771Y017755
X001771Y016005
X013021Y001505
X017021Y001505
X010021Y011005
X016021Y007505
X004771Y005505
X023521Y009005
X003771Y008005
X002771Y011005
X000771Y002755
X009021Y014005
X001771Y005505
X000771Y014005
X001771Y011005
X015021Y001505
X014021Y007505
X010021Y019005
X010021Y012505
X001771Y017505
X008021Y016005
X000771Y003755
X008021Y020505
X000771Y020505
X009021Y012505
X009521Y002255
X003771Y005505
X023521Y008005
X023521Y010005
X010521Y002255
X000771Y009505
X007521Y001005
X000771Y005505
X010021Y017505
X018021Y007505
X002771Y007005
X020021Y007505
X002771Y020505
X009021Y019005
X000771Y011005
X009021Y020505
X014021Y001505
X027771Y018755
X008021Y019005
X010021Y014005
X009521Y001005
X027771Y005755
X008521Y001005
X002771Y019005
X017021Y007505
X020021Y001505
X000771Y000755
X023521Y007005
X010021Y009505
X001771Y020505
X001771Y009505
X001771Y019005
X027771Y019755
X008021Y012505
X026771Y005755
X023521Y012005
X021021Y001505
X012021Y007505
X008021Y014005
X002771Y009505
X018021Y001505
X001771Y008005
X002771Y014005
X000771Y012505
X002771Y016005
X009021Y009505
X000771Y019005
X000771Y007005
T105
X004771Y022255
X006771Y022255
X005771Y022255
T106
X020521Y021005
X018021Y010005
X013521Y021005
X018271Y021005
X015771Y021005
X012521Y009255
X020021Y010255
X014771Y009255
X017021Y010005
X017271Y021005
X013521Y009255
X019021Y010255
X010271Y022255
X009271Y022255
X019521Y021005
X015771Y009255
X014771Y021005
X012521Y021005
T00
M30
