G04 MADE WITH FRITZING*
G04 WWW.FRITZING.ORG*
G04 DOUBLE SIDED*
G04 HOLES PLATED*
G04 CONTOUR ON CENTER OF CONTOUR VECTOR*
%ASAXBY*%
%FSLAX23Y23*%
%MOIN*%
%OFA0B0*%
%SFA1.0B1.0*%
%ADD10C,0.049370*%
%ADD11C,0.085000*%
%ADD12C,0.088000*%
%ADD13C,0.135984*%
%ADD14C,0.084000*%
%ADD15C,0.072992*%
%ADD16C,0.080000*%
%ADD17R,0.088740X0.057244*%
%ADD18R,0.063150X0.033622*%
%ADD19R,0.072992X0.072992*%
%ADD20R,0.090000X0.036000*%
%ADD21R,0.085000X0.085000*%
%ADD22R,0.001000X0.001000*%
%LNMASK1*%
G90*
G70*
G54D10*
X1102Y1400D03*
X1327Y1501D03*
X1402Y1201D03*
X1196Y1000D03*
X1402Y1101D03*
X1353Y1626D03*
X1252Y1926D03*
X1277Y1976D03*
X1302Y1876D03*
X1400Y1676D03*
X1402Y1300D03*
X1402Y1400D03*
X1403Y1501D03*
X952Y651D03*
X1127Y401D03*
X2177Y326D03*
X2252Y276D03*
X1302Y451D03*
X1752Y451D03*
X2427Y376D03*
X1902Y325D03*
X2027Y276D03*
X2227Y826D03*
X1702Y626D03*
X302Y301D03*
X2052Y476D03*
X952Y501D03*
X1176Y1150D03*
X553Y850D03*
X777Y600D03*
X677Y501D03*
X602Y726D03*
X2127Y1201D03*
X2002Y926D03*
X2502Y1401D03*
X2552Y1201D03*
X2527Y1701D03*
X2227Y926D03*
X2227Y1201D03*
X2352Y1451D03*
X2227Y1101D03*
X2227Y1001D03*
X827Y451D03*
X1553Y601D03*
G54D11*
X777Y301D03*
X377Y301D03*
G54D10*
X377Y201D03*
G54D11*
X927Y376D03*
X1327Y376D03*
G54D12*
X677Y576D03*
X577Y576D03*
X477Y576D03*
X377Y576D03*
X277Y576D03*
X177Y576D03*
X77Y576D03*
G54D11*
X2227Y176D03*
X2627Y176D03*
X1827Y401D03*
X2227Y401D03*
G54D10*
X1652Y2076D03*
X2152Y2026D03*
X1602Y1651D03*
X2352Y1701D03*
X2302Y1501D03*
G54D13*
X577Y101D03*
G54D14*
X477Y2226D03*
X577Y2226D03*
X677Y2226D03*
X477Y2226D03*
X577Y2226D03*
X677Y2226D03*
G54D13*
X2352Y526D03*
X2352Y2226D03*
X102Y2226D03*
G54D10*
X676Y1650D03*
X1078Y1175D03*
X1253Y1050D03*
X1151Y1350D03*
G54D12*
X77Y801D03*
X177Y801D03*
X277Y801D03*
X377Y801D03*
G54D10*
X1302Y1401D03*
X1352Y1151D03*
X1552Y1726D03*
X1552Y1251D03*
X1502Y1451D03*
X1227Y1451D03*
X1752Y1151D03*
G54D11*
X2627Y2076D03*
X2227Y2076D03*
X2677Y1901D03*
X2277Y1901D03*
X2002Y51D03*
X2402Y51D03*
G54D15*
X302Y101D03*
X401Y101D03*
X2776Y101D03*
X2677Y101D03*
G54D10*
X1402Y1726D03*
X2152Y1926D03*
X1552Y1876D03*
G54D11*
X2052Y1501D03*
X1652Y1501D03*
X2052Y1601D03*
X1652Y1601D03*
X2052Y1401D03*
X1652Y1401D03*
X2052Y1701D03*
X1652Y1701D03*
X2077Y1301D03*
X1677Y1301D03*
X2077Y1801D03*
X1677Y1801D03*
X2052Y1201D03*
X1652Y1201D03*
X2077Y1901D03*
X1677Y1901D03*
G54D16*
X1352Y926D03*
X1252Y926D03*
X1577Y926D03*
X1477Y926D03*
X1352Y2101D03*
X1252Y2101D03*
X1577Y2101D03*
X1477Y2101D03*
X1802Y1001D03*
X1702Y1001D03*
X2002Y1026D03*
X1902Y1026D03*
X2052Y2101D03*
X1952Y2101D03*
X1827Y2101D03*
X1727Y2101D03*
G54D11*
X452Y976D03*
X652Y976D03*
X452Y1576D03*
X652Y1576D03*
X452Y1126D03*
X652Y1126D03*
X452Y1726D03*
X652Y1726D03*
X452Y1276D03*
X652Y1276D03*
X452Y1876D03*
X652Y1876D03*
X452Y1426D03*
X652Y1426D03*
X452Y2026D03*
X652Y2026D03*
G54D12*
X1002Y951D03*
X902Y951D03*
X802Y951D03*
X1002Y1601D03*
X902Y1601D03*
X802Y1601D03*
X1002Y1101D03*
X902Y1101D03*
X802Y1101D03*
X1002Y1751D03*
X902Y1751D03*
X802Y1751D03*
X1002Y1251D03*
X902Y1251D03*
X802Y1251D03*
X1002Y1901D03*
X902Y1901D03*
X802Y1901D03*
X1002Y1401D03*
X902Y1401D03*
X802Y1401D03*
X1002Y2051D03*
X902Y2051D03*
X802Y2051D03*
X2352Y701D03*
X2352Y801D03*
X2352Y901D03*
X2352Y1001D03*
X2352Y1101D03*
X2352Y1201D03*
X1202Y151D03*
X1302Y151D03*
X1402Y151D03*
X1502Y151D03*
X1602Y151D03*
X1702Y151D03*
X1802Y151D03*
X1902Y151D03*
X2002Y151D03*
X2102Y151D03*
X1202Y751D03*
X1302Y751D03*
X1402Y751D03*
X1502Y751D03*
X1602Y751D03*
X1702Y751D03*
X1802Y751D03*
X1902Y751D03*
X2002Y751D03*
X2102Y751D03*
X77Y376D03*
X77Y276D03*
X77Y176D03*
X77Y76D03*
X952Y226D03*
X1052Y226D03*
X2777Y1976D03*
X2777Y1876D03*
X2777Y1776D03*
X752Y101D03*
X852Y101D03*
X952Y101D03*
X77Y951D03*
X177Y951D03*
X277Y951D03*
X77Y1601D03*
X177Y1601D03*
X277Y1601D03*
X77Y1101D03*
X177Y1101D03*
X277Y1101D03*
X77Y1751D03*
X177Y1751D03*
X277Y1751D03*
X77Y1251D03*
X177Y1251D03*
X277Y1251D03*
X77Y1901D03*
X177Y1901D03*
X277Y1901D03*
X77Y1401D03*
X177Y1401D03*
X277Y1401D03*
X77Y2051D03*
X177Y2051D03*
X277Y2051D03*
G54D11*
X2477Y1076D03*
X2777Y1076D03*
X2477Y976D03*
X2777Y976D03*
X2477Y876D03*
X2777Y876D03*
X2477Y776D03*
X2777Y776D03*
X2477Y676D03*
X2777Y676D03*
G54D10*
X2302Y376D03*
G54D11*
X2777Y1226D03*
X2777Y1626D03*
G54D10*
X2702Y1076D03*
G54D12*
X2677Y576D03*
X2777Y576D03*
G54D10*
X2452Y2101D03*
X2253Y1975D03*
G54D15*
X2776Y2226D03*
X2677Y2226D03*
G54D11*
X1377Y2226D03*
X1777Y2226D03*
G54D10*
X2027Y2251D03*
X2252Y2251D03*
X2377Y226D03*
G54D17*
X2772Y246D03*
X2772Y466D03*
G54D18*
X2627Y297D03*
X2627Y336D03*
X2627Y376D03*
X2627Y415D03*
G54D19*
X302Y101D03*
X2776Y101D03*
G54D20*
X1477Y1576D03*
X1477Y1626D03*
X1477Y1676D03*
X1477Y1726D03*
X1477Y1776D03*
X1477Y1826D03*
X1477Y1876D03*
X1216Y1876D03*
X1216Y1826D03*
X1216Y1776D03*
X1216Y1726D03*
X1216Y1676D03*
X1216Y1626D03*
X1216Y1576D03*
X1488Y1101D03*
X1488Y1151D03*
X1488Y1201D03*
X1488Y1251D03*
X1488Y1301D03*
X1488Y1351D03*
X1488Y1401D03*
X1227Y1401D03*
X1227Y1351D03*
X1227Y1301D03*
X1227Y1251D03*
X1227Y1201D03*
X1227Y1151D03*
X1227Y1101D03*
X2185Y1751D03*
X2185Y1701D03*
X2185Y1651D03*
X2185Y1601D03*
X2185Y1551D03*
X2185Y1501D03*
X2185Y1451D03*
X2185Y1401D03*
X2427Y1401D03*
X2427Y1451D03*
X2427Y1501D03*
X2427Y1551D03*
X2427Y1601D03*
X2427Y1651D03*
X2427Y1701D03*
X2427Y1751D03*
G54D21*
X2477Y1076D03*
G54D19*
X2776Y2226D03*
G54D22*
X924Y2266D02*
X930Y2266D01*
X1024Y2266D02*
X1030Y2266D01*
X918Y2265D02*
X935Y2265D01*
X1018Y2265D02*
X1035Y2265D01*
X914Y2264D02*
X939Y2264D01*
X1014Y2264D02*
X1039Y2264D01*
X911Y2263D02*
X942Y2263D01*
X1011Y2263D02*
X1042Y2263D01*
X909Y2262D02*
X944Y2262D01*
X1009Y2262D02*
X1044Y2262D01*
X908Y2261D02*
X946Y2261D01*
X1008Y2261D02*
X1046Y2261D01*
X906Y2260D02*
X947Y2260D01*
X1006Y2260D02*
X1047Y2260D01*
X904Y2259D02*
X949Y2259D01*
X1004Y2259D02*
X1049Y2259D01*
X903Y2258D02*
X950Y2258D01*
X1003Y2258D02*
X1050Y2258D01*
X902Y2257D02*
X952Y2257D01*
X1002Y2257D02*
X1052Y2257D01*
X901Y2256D02*
X953Y2256D01*
X1001Y2256D02*
X1053Y2256D01*
X899Y2255D02*
X954Y2255D01*
X999Y2255D02*
X1054Y2255D01*
X898Y2254D02*
X955Y2254D01*
X998Y2254D02*
X1055Y2254D01*
X897Y2253D02*
X956Y2253D01*
X997Y2253D02*
X1056Y2253D01*
X897Y2252D02*
X957Y2252D01*
X997Y2252D02*
X1057Y2252D01*
X896Y2251D02*
X957Y2251D01*
X996Y2251D02*
X1057Y2251D01*
X895Y2250D02*
X958Y2250D01*
X995Y2250D02*
X1058Y2250D01*
X894Y2249D02*
X959Y2249D01*
X994Y2249D02*
X1059Y2249D01*
X894Y2248D02*
X960Y2248D01*
X994Y2248D02*
X1060Y2248D01*
X893Y2247D02*
X960Y2247D01*
X993Y2247D02*
X1060Y2247D01*
X892Y2246D02*
X961Y2246D01*
X992Y2246D02*
X1061Y2246D01*
X892Y2245D02*
X961Y2245D01*
X992Y2245D02*
X1061Y2245D01*
X891Y2244D02*
X962Y2244D01*
X991Y2244D02*
X1062Y2244D01*
X891Y2243D02*
X962Y2243D01*
X991Y2243D02*
X1062Y2243D01*
X890Y2242D02*
X963Y2242D01*
X990Y2242D02*
X1063Y2242D01*
X890Y2241D02*
X963Y2241D01*
X990Y2241D02*
X1063Y2241D01*
X890Y2240D02*
X964Y2240D01*
X990Y2240D02*
X1064Y2240D01*
X889Y2239D02*
X964Y2239D01*
X989Y2239D02*
X1064Y2239D01*
X889Y2238D02*
X964Y2238D01*
X989Y2238D02*
X1064Y2238D01*
X889Y2237D02*
X965Y2237D01*
X989Y2237D02*
X1065Y2237D01*
X888Y2236D02*
X965Y2236D01*
X988Y2236D02*
X1065Y2236D01*
X888Y2235D02*
X965Y2235D01*
X988Y2235D02*
X1065Y2235D01*
X888Y2234D02*
X965Y2234D01*
X988Y2234D02*
X1065Y2234D01*
X888Y2233D02*
X965Y2233D01*
X988Y2233D02*
X1065Y2233D01*
X888Y2232D02*
X966Y2232D01*
X988Y2232D02*
X1066Y2232D01*
X887Y2231D02*
X966Y2231D01*
X987Y2231D02*
X1066Y2231D01*
X887Y2230D02*
X966Y2230D01*
X987Y2230D02*
X1066Y2230D01*
X887Y2229D02*
X966Y2229D01*
X987Y2229D02*
X1066Y2229D01*
X887Y2228D02*
X966Y2228D01*
X987Y2228D02*
X1066Y2228D01*
X887Y2227D02*
X966Y2227D01*
X987Y2227D02*
X1066Y2227D01*
X887Y2226D02*
X966Y2226D01*
X987Y2226D02*
X1066Y2226D01*
X887Y2225D02*
X966Y2225D01*
X987Y2225D02*
X1066Y2225D01*
X887Y2224D02*
X966Y2224D01*
X987Y2224D02*
X1066Y2224D01*
X887Y2223D02*
X966Y2223D01*
X987Y2223D02*
X1066Y2223D01*
X887Y2222D02*
X966Y2222D01*
X987Y2222D02*
X1066Y2222D01*
X888Y2221D02*
X966Y2221D01*
X988Y2221D02*
X1066Y2221D01*
X888Y2220D02*
X966Y2220D01*
X988Y2220D02*
X1066Y2220D01*
X888Y2219D02*
X965Y2219D01*
X988Y2219D02*
X1065Y2219D01*
X888Y2218D02*
X965Y2218D01*
X988Y2218D02*
X1065Y2218D01*
X888Y2217D02*
X965Y2217D01*
X988Y2217D02*
X1065Y2217D01*
X889Y2216D02*
X965Y2216D01*
X989Y2216D02*
X1065Y2216D01*
X889Y2215D02*
X964Y2215D01*
X989Y2215D02*
X1064Y2215D01*
X889Y2214D02*
X964Y2214D01*
X989Y2214D02*
X1064Y2214D01*
X889Y2213D02*
X964Y2213D01*
X989Y2213D02*
X1064Y2213D01*
X890Y2212D02*
X963Y2212D01*
X990Y2212D02*
X1063Y2212D01*
X890Y2211D02*
X963Y2211D01*
X990Y2211D02*
X1063Y2211D01*
X891Y2210D02*
X963Y2210D01*
X991Y2210D02*
X1063Y2210D01*
X891Y2209D02*
X962Y2209D01*
X991Y2209D02*
X1062Y2209D01*
X892Y2208D02*
X962Y2208D01*
X992Y2208D02*
X1062Y2208D01*
X892Y2207D02*
X961Y2207D01*
X992Y2207D02*
X1061Y2207D01*
X893Y2206D02*
X961Y2206D01*
X993Y2206D02*
X1061Y2206D01*
X893Y2205D02*
X960Y2205D01*
X993Y2205D02*
X1060Y2205D01*
X894Y2204D02*
X959Y2204D01*
X994Y2204D02*
X1059Y2204D01*
X895Y2203D02*
X959Y2203D01*
X995Y2203D02*
X1059Y2203D01*
X895Y2202D02*
X958Y2202D01*
X995Y2202D02*
X1058Y2202D01*
X896Y2201D02*
X957Y2201D01*
X996Y2201D02*
X1057Y2201D01*
X897Y2200D02*
X956Y2200D01*
X997Y2200D02*
X1056Y2200D01*
X898Y2199D02*
X955Y2199D01*
X998Y2199D02*
X1055Y2199D01*
X899Y2198D02*
X954Y2198D01*
X999Y2198D02*
X1054Y2198D01*
X900Y2197D02*
X953Y2197D01*
X1000Y2197D02*
X1053Y2197D01*
X901Y2196D02*
X952Y2196D01*
X1001Y2196D02*
X1052Y2196D01*
X902Y2195D02*
X951Y2195D01*
X1002Y2195D02*
X1051Y2195D01*
X904Y2194D02*
X950Y2194D01*
X1004Y2194D02*
X1050Y2194D01*
X905Y2193D02*
X948Y2193D01*
X1005Y2193D02*
X1048Y2193D01*
X907Y2192D02*
X947Y2192D01*
X1007Y2192D02*
X1047Y2192D01*
X908Y2191D02*
X945Y2191D01*
X1008Y2191D02*
X1045Y2191D01*
X910Y2190D02*
X943Y2190D01*
X1010Y2190D02*
X1043Y2190D01*
X913Y2189D02*
X941Y2189D01*
X1013Y2189D02*
X1041Y2189D01*
X916Y2188D02*
X938Y2188D01*
X1016Y2188D02*
X1038Y2188D01*
X920Y2187D02*
X933Y2187D01*
X1020Y2187D02*
X1033Y2187D01*
D02*
G04 End of Mask1*
M02*