; NON-PLATED HOLES START AT T1
; THROUGH (PLATED) HOLES START AT T100
M48
INCH
T100C0.015748
T101C0.040000
T102C0.031497
T103C0.035000
T104C0.038000
T105C0.094488
T106C0.030000
%
T100
X011271Y004005
X003015Y003005
X022271Y012005
X016021Y016505
X014018Y012006
X012271Y014505
X017021Y006255
X025024Y003504
X011514Y013503
X020521Y004755
X020267Y002758
X006764Y016500
X012520Y019255
X013525Y016259
X014018Y013004
X012771Y019755
X014021Y014002
X011962Y010002
X006021Y007255
X025271Y017005
X022271Y009255
X022271Y010005
X020021Y009255
X013521Y011505
X015021Y014505
X023521Y017005
X006771Y005010
X016521Y020755
X014023Y011005
X015519Y017261
X014016Y017259
X013021Y014005
X014027Y015005
X019024Y003253
X015519Y012511
X013271Y015005
X021522Y020255
X023518Y002250
X013017Y018756
X022271Y008255
X017515Y004505
X023524Y014507
X023021Y015005
X013021Y004505
X012527Y010500
X011017Y014000
X014002Y016756
X007772Y005999
X015529Y006011
X008271Y004505
X011764Y011503
X022271Y011005
X009521Y005005
X009521Y006505
X025517Y012011
X023018Y003506
X010777Y011753
X015521Y018755
X017521Y011505
X021271Y012005
X022021Y003255
X025021Y014005
X021521Y019255
X005526Y008504
X003771Y002005
T101
X006771Y022255
X004771Y022255
X005771Y022255
T102
X025771Y001005
X004005Y001005
X024786Y001005
X003021Y001005
T103
X020771Y013005
X004521Y009755
X016521Y016005
X025771Y009755
X004521Y020255
X025771Y005755
X020521Y015005
X013271Y003755
X004521Y014255
X020521Y017005
X024021Y000505
X004521Y015755
X004521Y017255
X006521Y011255
X007771Y003005
X016771Y013005
X018021Y022755
X013021Y022755
X022271Y004005
X006521Y014255
X016521Y017005
X009271Y003755
X020771Y019005
X006521Y018755
X006521Y012755
X004521Y012755
X018271Y004005
X016771Y019005
X020521Y014005
X006521Y015755
X016771Y018005
X016521Y012005
X016521Y014005
X020021Y000505
X020521Y016005
X006521Y009755
X006521Y020255
X006521Y017255
X016521Y015005
X004521Y018755
X004521Y011255
X003771Y003005
X022021Y022755
X017021Y022755
X020771Y018005
X020521Y012005
T104
X008021Y011005
X002771Y016005
X008021Y009505
X000771Y001755
X012021Y001505
X009021Y017505
X001771Y008005
X019021Y001505
X002771Y014005
X023521Y012005
X023521Y011005
X010021Y011005
X013021Y007505
X010021Y016005
X008021Y017505
X001771Y014005
X000771Y017505
X006771Y005755
X001771Y016005
X015021Y007505
X019021Y007505
X023521Y009005
X002771Y008005
X010021Y020505
X016021Y007505
X002771Y012505
X009021Y011005
X002771Y005755
X017021Y001505
X016021Y001505
X009021Y016005
X010021Y012505
X021021Y007505
X000771Y020505
X000771Y014005
X000771Y016005
X008021Y016005
X010021Y019005
X014021Y007505
X009021Y014005
X001771Y011005
X002771Y017505
X023521Y008005
X013021Y001505
X003771Y008005
X010521Y002255
X002771Y011005
X001771Y017505
X000771Y002755
X010021Y017505
X018021Y007505
X009521Y002255
X023521Y010005
X000771Y003755
X009021Y012505
X000771Y009505
X015021Y001505
X005771Y005755
X008021Y020505
X020021Y007505
X014021Y001505
X009021Y020505
X009021Y019005
X007521Y001005
X004771Y005755
X025771Y020255
X025771Y019255
X010021Y014005
X003771Y005755
X002771Y020505
X008521Y001005
X001771Y005755
X002771Y009505
X000771Y011005
X002771Y019005
X020021Y001505
X009521Y001005
X008021Y012505
X025771Y021255
X001771Y009505
X021021Y001505
X017021Y007505
X008021Y019005
X000771Y019005
X000771Y000755
X010021Y009505
X000771Y005755
X012021Y007505
X001771Y019005
X018021Y001505
X023521Y007005
X001771Y020505
X001771Y012505
X000771Y008005
X008021Y014005
X000771Y012505
X009021Y009505
T105
X005771Y001005
X001021Y022255
X023521Y005255
X023521Y022255
T106
X014771Y009255
X020521Y021005
X018271Y021005
X015771Y021005
X020021Y010255
X012521Y009255
X013521Y009255
X017271Y021005
X019521Y021005
X009271Y022255
X017021Y010005
X014771Y021005
X019021Y010255
X015771Y009255
X012521Y021005
X013521Y021005
X010271Y022255
X018021Y010005
T00
M30
