G04 MADE WITH FRITZING*
G04 WWW.FRITZING.ORG*
G04 DOUBLE SIDED*
G04 HOLES PLATED*
G04 CONTOUR ON CENTER OF CONTOUR VECTOR*
%ASAXBY*%
%FSLAX23Y23*%
%MOIN*%
%OFA0B0*%
%SFA1.0B1.0*%
%ADD10R,0.078740X0.047244*%
%ADD11R,0.053150X0.023622*%
%ADD12R,0.080000X0.026000*%
%ADD13R,0.001000X0.001000*%
%LNPASTEMASK1*%
G90*
G70*
G54D10*
X2772Y246D03*
X2772Y466D03*
G54D11*
X2627Y297D03*
X2627Y336D03*
X2627Y376D03*
X2627Y415D03*
G54D12*
X1477Y1576D03*
X1477Y1626D03*
X1477Y1676D03*
X1477Y1726D03*
X1477Y1776D03*
X1477Y1826D03*
X1477Y1876D03*
X1216Y1876D03*
X1216Y1826D03*
X1216Y1776D03*
X1216Y1726D03*
X1216Y1676D03*
X1216Y1626D03*
X1216Y1576D03*
X1488Y1101D03*
X1488Y1151D03*
X1488Y1201D03*
X1488Y1251D03*
X1488Y1301D03*
X1488Y1351D03*
X1488Y1401D03*
X1227Y1401D03*
X1227Y1351D03*
X1227Y1301D03*
X1227Y1251D03*
X1227Y1201D03*
X1227Y1151D03*
X1227Y1101D03*
X2185Y1751D03*
X2185Y1701D03*
X2185Y1651D03*
X2185Y1601D03*
X2185Y1551D03*
X2185Y1501D03*
X2185Y1451D03*
X2185Y1401D03*
X2427Y1401D03*
X2427Y1451D03*
X2427Y1501D03*
X2427Y1551D03*
X2427Y1601D03*
X2427Y1651D03*
X2427Y1701D03*
X2427Y1751D03*
G54D13*
D02*
G04 End of PasteMask1*
M02*