%TF.GenerationSoftware,KiCad,Pcbnew,9.0.1*%
%TF.CreationDate,2025-04-18T18:57:09+02:00*%
%TF.ProjectId,hexapod2_cli,68657861-706f-4643-925f-636c692e6b69,rev?*%
%TF.SameCoordinates,Original*%
%TF.FileFunction,Soldermask,Top*%
%TF.FilePolarity,Negative*%
%FSLAX46Y46*%
G04 Gerber Fmt 4.6, Leading zero omitted, Abs format (unit mm)*
G04 Created by KiCad (PCBNEW 9.0.1) date 2025-04-18 18:57:09*
%MOMM*%
%LPD*%
G01*
G04 APERTURE LIST*
G04 Aperture macros list*
%AMRoundRect*
0 Rectangle with rounded corners*
0 $1 Rounding radius*
0 $2 $3 $4 $5 $6 $7 $8 $9 X,Y pos of 4 corners*
0 Add a 4 corners polygon primitive as box body*
4,1,4,$2,$3,$4,$5,$6,$7,$8,$9,$2,$3,0*
0 Add four circle primitives for the rounded corners*
1,1,$1+$1,$2,$3*
1,1,$1+$1,$4,$5*
1,1,$1+$1,$6,$7*
1,1,$1+$1,$8,$9*
0 Add four rect primitives between the rounded corners*
20,1,$1+$1,$2,$3,$4,$5,0*
20,1,$1+$1,$4,$5,$6,$7,0*
20,1,$1+$1,$6,$7,$8,$9,0*
20,1,$1+$1,$8,$9,$2,$3,0*%
%AMOutline5P*
0 Free polygon, 5 corners , with rotation*
0 The origin of the aperture is its center*
0 number of corners: always 5*
0 $1 to $10 corner X, Y*
0 $11 Rotation angle, in degrees counterclockwise*
0 create outline with 5 corners*
4,1,5,$1,$2,$3,$4,$5,$6,$7,$8,$9,$10,$1,$2,$11*%
%AMOutline6P*
0 Free polygon, 6 corners , with rotation*
0 The origin of the aperture is its center*
0 number of corners: always 6*
0 $1 to $12 corner X, Y*
0 $13 Rotation angle, in degrees counterclockwise*
0 create outline with 6 corners*
4,1,6,$1,$2,$3,$4,$5,$6,$7,$8,$9,$10,$11,$12,$1,$2,$13*%
%AMOutline7P*
0 Free polygon, 7 corners , with rotation*
0 The origin of the aperture is its center*
0 number of corners: always 7*
0 $1 to $14 corner X, Y*
0 $15 Rotation angle, in degrees counterclockwise*
0 create outline with 7 corners*
4,1,7,$1,$2,$3,$4,$5,$6,$7,$8,$9,$10,$11,$12,$13,$14,$1,$2,$15*%
%AMOutline8P*
0 Free polygon, 8 corners , with rotation*
0 The origin of the aperture is its center*
0 number of corners: always 8*
0 $1 to $16 corner X, Y*
0 $17 Rotation angle, in degrees counterclockwise*
0 create outline with 8 corners*
4,1,8,$1,$2,$3,$4,$5,$6,$7,$8,$9,$10,$11,$12,$13,$14,$15,$16,$1,$2,$17*%
G04 Aperture macros list end*
%ADD10R,1.700000X1.700000*%
%ADD11O,1.700000X1.700000*%
%ADD12RoundRect,0.150000X-0.512500X-0.150000X0.512500X-0.150000X0.512500X0.150000X-0.512500X0.150000X0*%
%ADD13RoundRect,0.237500X0.250000X0.237500X-0.250000X0.237500X-0.250000X-0.237500X0.250000X-0.237500X0*%
%ADD14RoundRect,0.425000X0.425000X-0.425000X0.425000X0.425000X-0.425000X0.425000X-0.425000X-0.425000X0*%
%ADD15RoundRect,0.237500X-0.250000X-0.237500X0.250000X-0.237500X0.250000X0.237500X-0.250000X0.237500X0*%
%ADD16R,1.000000X0.750000*%
%ADD17R,0.700000X0.510000*%
%ADD18C,1.700000*%
%ADD19RoundRect,0.250000X0.325000X0.450000X-0.325000X0.450000X-0.325000X-0.450000X0.325000X-0.450000X0*%
%ADD20RoundRect,0.250000X-0.325000X-0.450000X0.325000X-0.450000X0.325000X0.450000X-0.325000X0.450000X0*%
%ADD21RoundRect,0.250000X-0.412500X-0.650000X0.412500X-0.650000X0.412500X0.650000X-0.412500X0.650000X0*%
%ADD22R,1.000000X0.600000*%
%ADD23C,0.650000*%
%ADD24RoundRect,0.150000X0.425000X-0.150000X0.425000X0.150000X-0.425000X0.150000X-0.425000X-0.150000X0*%
%ADD25RoundRect,0.075000X0.500000X-0.075000X0.500000X0.075000X-0.500000X0.075000X-0.500000X-0.075000X0*%
%ADD26O,2.100000X1.000000*%
%ADD27O,1.800000X1.000000*%
%ADD28RoundRect,0.250000X-0.600000X-0.600000X0.600000X-0.600000X0.600000X0.600000X-0.600000X0.600000X0*%
%ADD29Outline5P,-0.850000X0.510000X-0.510000X0.850000X0.850000X0.850000X0.850000X-0.850000X-0.850000X-0.850000X0.000000*%
%ADD30RoundRect,0.250000X0.412500X0.650000X-0.412500X0.650000X-0.412500X-0.650000X0.412500X-0.650000X0*%
%ADD31RoundRect,0.425000X0.425000X0.425000X-0.425000X0.425000X-0.425000X-0.425000X0.425000X-0.425000X0*%
G04 APERTURE END LIST*
D10*
%TO.C,J2*%
X131764000Y-109113400D03*
D11*
X134304000Y-109113400D03*
X136844000Y-109113400D03*
X139384000Y-109113400D03*
X141924000Y-109113400D03*
X144464000Y-109113400D03*
X147004000Y-109113400D03*
X149544000Y-109113400D03*
X152084000Y-109113400D03*
X154624000Y-109113400D03*
%TD*%
D12*
%TO.C,U2*%
X164089500Y-89347000D03*
X164089500Y-90297000D03*
X164089500Y-91247000D03*
X166364500Y-91247000D03*
X166364500Y-89347000D03*
%TD*%
D13*
%TO.C,R5*%
X152019000Y-113284000D03*
X150194000Y-113284000D03*
%TD*%
D11*
%TO.C,U1*%
X174880000Y-100330000D03*
X172340000Y-100330000D03*
D10*
X169800000Y-100330000D03*
D11*
X167260000Y-100330000D03*
X164720000Y-100330000D03*
X162180000Y-100330000D03*
X159640000Y-100330000D03*
D10*
X157100000Y-100330000D03*
D11*
X154560000Y-100330000D03*
X152020000Y-100330000D03*
X149480000Y-100330000D03*
X146940000Y-100330000D03*
D10*
X144400000Y-100330000D03*
D11*
X141860000Y-100330000D03*
X139320000Y-100330000D03*
X136780000Y-100330000D03*
X134240000Y-100330000D03*
D10*
X131700000Y-100330000D03*
D11*
X129160000Y-100330000D03*
X126620000Y-100330000D03*
X126620000Y-118110000D03*
X129160000Y-118110000D03*
D10*
X131700000Y-118110000D03*
D11*
X134240000Y-118110000D03*
X136780000Y-118110000D03*
X139320000Y-118110000D03*
X141860000Y-118110000D03*
D10*
X144400000Y-118110000D03*
D11*
X146940000Y-118110000D03*
X149480000Y-118110000D03*
X152020000Y-118110000D03*
X154560000Y-118110000D03*
D10*
X157100000Y-118110000D03*
D11*
X159640000Y-118110000D03*
X162180000Y-118110000D03*
X164720000Y-118110000D03*
X167260000Y-118110000D03*
D10*
X169800000Y-118110000D03*
D11*
X172340000Y-118110000D03*
X174880000Y-118110000D03*
%TD*%
D10*
%TO.C,J1*%
X131764000Y-124353400D03*
D11*
X134304000Y-124353400D03*
X136844000Y-124353400D03*
X139384000Y-124353400D03*
X141924000Y-124353400D03*
X144464000Y-124353400D03*
X147004000Y-124353400D03*
X149544000Y-124353400D03*
D14*
X152084000Y-124353400D03*
D11*
X154624000Y-124353400D03*
%TD*%
D15*
%TO.C,R11*%
X105386500Y-122174000D03*
X107211500Y-122174000D03*
%TD*%
D16*
%TO.C,SW2*%
X105585000Y-84358000D03*
X111585000Y-84358000D03*
X105585000Y-88108000D03*
X111585000Y-88108000D03*
%TD*%
D17*
%TO.C,Q1*%
X169511000Y-110749000D03*
X169511000Y-111699000D03*
X169511000Y-112649000D03*
X171831000Y-112649000D03*
X171831000Y-111699000D03*
X171831000Y-110749000D03*
%TD*%
D10*
%TO.C,J7*%
X105283000Y-119253000D03*
D18*
X105283000Y-116713000D03*
X107823000Y-119253000D03*
X107823000Y-116713000D03*
X110363000Y-119253000D03*
X110363000Y-116713000D03*
X112903000Y-119253000D03*
X112903000Y-116713000D03*
%TD*%
D10*
%TO.C,J5*%
X121666000Y-90932000D03*
D18*
X121666000Y-93472000D03*
X121666000Y-96012000D03*
X121666000Y-98552000D03*
X121666000Y-101092000D03*
X121666000Y-103632000D03*
X121666000Y-106172000D03*
%TD*%
D13*
%TO.C,R16*%
X166497000Y-87122000D03*
X164672000Y-87122000D03*
%TD*%
D15*
%TO.C,R14*%
X152630500Y-91821000D03*
X154455500Y-91821000D03*
%TD*%
%TO.C,R10*%
X116134500Y-75946000D03*
X117959500Y-75946000D03*
%TD*%
%TO.C,R12*%
X111990500Y-122174000D03*
X113815500Y-122174000D03*
%TD*%
D13*
%TO.C,R15*%
X166544000Y-85344000D03*
X164719000Y-85344000D03*
%TD*%
D19*
%TO.C,D5*%
X158378000Y-94361000D03*
X156328000Y-94361000D03*
%TD*%
D15*
%TO.C,R3*%
X144733000Y-113284000D03*
X146558000Y-113284000D03*
%TD*%
D20*
%TO.C,D6*%
X156328000Y-90551000D03*
X158378000Y-90551000D03*
%TD*%
D15*
%TO.C,R2*%
X157607000Y-123825000D03*
X159432000Y-123825000D03*
%TD*%
%TO.C,R18*%
X164672000Y-95504000D03*
X166497000Y-95504000D03*
%TD*%
D20*
%TO.C,D4*%
X110345000Y-77089000D03*
X112395000Y-77089000D03*
%TD*%
D15*
%TO.C,R7*%
X116134500Y-73787000D03*
X117959500Y-73787000D03*
%TD*%
D21*
%TO.C,C2*%
X156552500Y-86995000D03*
X159677500Y-86995000D03*
%TD*%
D15*
%TO.C,R4*%
X139018000Y-113284000D03*
X140843000Y-113284000D03*
%TD*%
D10*
%TO.C,J8*%
X163322000Y-124587000D03*
D18*
X165862000Y-124587000D03*
%TD*%
D21*
%TO.C,C3*%
X162902500Y-93472000D03*
X166027500Y-93472000D03*
%TD*%
D10*
%TO.C,J4*%
X103200200Y-107848400D03*
D14*
X105740200Y-107848400D03*
D11*
X108280200Y-107848400D03*
X110820200Y-107848400D03*
%TD*%
D15*
%TO.C,R1*%
X157560000Y-125476000D03*
X159385000Y-125476000D03*
%TD*%
D16*
%TO.C,SW1*%
X115920000Y-61879000D03*
X121920000Y-61879000D03*
X115920000Y-65629000D03*
X121920000Y-65629000D03*
%TD*%
D15*
%TO.C,R8*%
X119737500Y-75946000D03*
X121562500Y-75946000D03*
%TD*%
D22*
%TO.C,D2*%
X110522000Y-66772000D03*
X110522000Y-68072000D03*
X112522000Y-68072000D03*
X112522000Y-66772000D03*
%TD*%
D23*
%TO.C,J6*%
X170242000Y-93187000D03*
X170242000Y-87407000D03*
D24*
X169167000Y-93497000D03*
X169167000Y-92697000D03*
D25*
X169167000Y-91547000D03*
X169167000Y-90547000D03*
X169167000Y-90047000D03*
X169167000Y-89047000D03*
D24*
X169167000Y-87897000D03*
X169167000Y-87097000D03*
X169167000Y-87097000D03*
X169167000Y-87897000D03*
D25*
X169167000Y-88547000D03*
X169167000Y-89547000D03*
X169167000Y-91047000D03*
X169167000Y-92047000D03*
D24*
X169167000Y-92697000D03*
X169167000Y-93497000D03*
D26*
X169742000Y-94617000D03*
D27*
X173922000Y-94617000D03*
D26*
X169742000Y-85977000D03*
D27*
X173922000Y-85977000D03*
%TD*%
D28*
%TO.C,U3*%
X127254000Y-64516000D03*
X150114000Y-64516000D03*
X129794000Y-67056000D03*
X147574000Y-67056000D03*
X127254000Y-87376000D03*
X150114000Y-87376000D03*
D11*
X132334000Y-67056000D03*
X129794000Y-64516000D03*
X127254000Y-67056000D03*
X129794000Y-69596000D03*
X134874000Y-64516000D03*
X134874000Y-67056000D03*
X127254000Y-69596000D03*
X129794000Y-72136000D03*
X127254000Y-72136000D03*
X129794000Y-74676000D03*
X127254000Y-74676000D03*
X129794000Y-77216000D03*
X127254000Y-77216000D03*
X129794000Y-79756000D03*
X127254000Y-79756000D03*
X129794000Y-82296000D03*
X127254000Y-82296000D03*
X129794000Y-84836000D03*
X127254000Y-84836000D03*
X129794000Y-87376000D03*
X132334000Y-87376000D03*
X132334000Y-84836000D03*
X134874000Y-87376000D03*
X134874000Y-84836000D03*
X137414000Y-87376000D03*
X137414000Y-84836000D03*
X139954000Y-87376000D03*
X139954000Y-84836000D03*
X142494000Y-87376000D03*
X142494000Y-84836000D03*
X145034000Y-87376000D03*
X145034000Y-84836000D03*
X147574000Y-87376000D03*
X147574000Y-84836000D03*
X150114000Y-84836000D03*
X147574000Y-82296000D03*
X150114000Y-82296000D03*
X147574000Y-79756000D03*
X150114000Y-79756000D03*
X147574000Y-77216000D03*
X150114000Y-77216000D03*
X147574000Y-74676000D03*
X150114000Y-74676000D03*
X147574000Y-72136000D03*
X150114000Y-72136000D03*
X147574000Y-69596000D03*
X150114000Y-69596000D03*
X150114000Y-67056000D03*
X147574000Y-64516000D03*
X145034000Y-67056000D03*
X137414000Y-67056000D03*
X145034000Y-64516000D03*
X137414000Y-64516000D03*
X139954000Y-67056000D03*
X142494000Y-67056000D03*
X139954000Y-64516000D03*
X142494000Y-64516000D03*
D29*
X132334000Y-64516000D03*
%TD*%
D22*
%TO.C,D1*%
X110522000Y-69947000D03*
X110522000Y-71247000D03*
X112522000Y-71247000D03*
X112522000Y-69947000D03*
%TD*%
D30*
%TO.C,C1*%
X119507000Y-70485000D03*
X116382000Y-70485000D03*
%TD*%
D13*
%TO.C,R6*%
X135278500Y-113284000D03*
X133453500Y-113284000D03*
%TD*%
D15*
%TO.C,R9*%
X119761000Y-73787000D03*
X121586000Y-73787000D03*
%TD*%
D13*
%TO.C,R17*%
X154455500Y-93726000D03*
X152630500Y-93726000D03*
%TD*%
D20*
%TO.C,D3*%
X110345000Y-74930000D03*
X112395000Y-74930000D03*
%TD*%
D10*
%TO.C,J3*%
X98298000Y-87122000D03*
D11*
X95758000Y-87122000D03*
X98298000Y-89662000D03*
X95758000Y-89662000D03*
X98298000Y-92202000D03*
X95758000Y-92202000D03*
D31*
X98298000Y-94742000D03*
X95758000Y-94742000D03*
D11*
X98298000Y-97282000D03*
X95758000Y-97282000D03*
X98298000Y-99822000D03*
X95758000Y-99822000D03*
D31*
X98298000Y-102362000D03*
X95758000Y-102362000D03*
D11*
X98298000Y-104902000D03*
X95758000Y-104902000D03*
X98298000Y-107442000D03*
X95758000Y-107442000D03*
D31*
X98298000Y-109982000D03*
X95758000Y-109982000D03*
%TD*%
M02*
