M48
; DRILL file {KiCad 9.0.1} date 2025-04-18T18:57:07+0200
; FORMAT={-:-/ absolute / inch / decimal}
; #@! TF.CreationDate,2025-04-18T18:57:07+02:00
; #@! TF.GenerationSoftware,Kicad,Pcbnew,9.0.1
; #@! TF.FileFunction,Plated,1,2,PTH
FMAT,2
INCH
; #@! TA.AperFunction,Plated,PTH,ViaDrill
T1C0.0157
; #@! TA.AperFunction,Plated,PTH,ComponentDrill
T2C0.0236
; #@! TA.AperFunction,Plated,PTH,ComponentDrill
T3C0.0394
; #@! TA.AperFunction,Plated,PTH,ComponentDrill
T4C0.0402
; #@! TA.AperFunction,Plated,PTH,ViaDrill
T5C0.1181
%
G90
G05
T1
X3.81Y-4.395
X4.105Y-4.1226
X4.11Y-3.415
X4.275Y-2.69
X4.31Y-3.83
X4.31Y-3.88
X4.34Y-3.655
X4.38Y-3.655
X4.3874Y-4.1226
X4.39Y-2.51
X4.425Y-3.655
X4.4713Y-3.6537
X4.505Y-3.63
X4.5435Y-4.125
X4.545Y-2.69
X4.585Y-4.125
X4.62Y-4.245
X4.63Y-4.125
X4.67Y-4.245
X4.6984Y-2.6961
X4.72Y-4.245
X4.735Y-4.5256
X4.735Y-4.565
X4.745Y-2.69
X4.82Y-3.3914
X4.835Y-4.835
X4.8446Y-3.3607
X4.85Y-3.8263
X4.85Y-3.92
X4.85Y-3.975
X4.85Y-4.045
X4.85Y-4.525
X4.85Y-4.565
X4.855Y-4.165
X4.855Y-4.2856
X4.855Y-4.325
X4.855Y-4.37
X4.855Y-4.475
X4.8564Y-4.43
X4.865Y-2.78
X4.87Y-2.7211
X4.9222Y-3.6678
X4.9223Y-3.6273
X4.9496Y-3.7304
X4.965Y-3.77
X4.9786Y-4.4372
X4.99Y-4.11
X4.995Y-4.185
X5.02Y-4.45
X5.035Y-4.22
X5.06Y-4.4085
X5.065Y-3.802
X5.075Y-4.1
X5.105Y-4.3215
X5.18Y-4.74
X5.21Y-4.54
X5.2148Y-4.5798
X5.25Y-4.8
X5.33Y-4.35
X5.3625Y-2.4325
X5.415Y-4.46
X5.465Y-4.0685
X5.6346Y-3.73
X5.6848Y-3.7352
X5.685Y-4.0115
X5.74Y-3.7066
X5.77Y-4.38
X5.82Y-3.74
X5.82Y-4.457
X5.985Y-4.515
X6.02Y-4.78
X6.13Y-3.615
X6.1314Y-4.1436
X6.16Y-4.8386
X6.2848Y-3.5748
X6.295Y-3.72
X6.405Y-3.5176
X6.4965Y-3.6231
X6.525Y-3.82
X6.5945Y-3.6664
X6.595Y-3.7336
X6.61Y-3.46
X6.6124Y-3.6224
X6.66Y-4.775
X6.725Y-4.575
X6.82Y-4.4
T3
X3.77Y-3.43
X3.77Y-3.53
X3.77Y-3.63
X3.77Y-3.73
X3.77Y-3.83
X3.77Y-3.93
X3.77Y-4.03
X3.77Y-4.13
X3.77Y-4.23
X3.77Y-4.33
X3.87Y-3.43
X3.87Y-3.53
X3.87Y-3.63
X3.87Y-3.73
X3.87Y-3.83
X3.87Y-3.93
X3.87Y-4.03
X3.87Y-4.13
X3.87Y-4.23
X3.87Y-4.33
X4.063Y-4.246
X4.145Y-4.595
X4.145Y-4.695
X4.163Y-4.246
X4.245Y-4.595
X4.245Y-4.695
X4.263Y-4.246
X4.345Y-4.595
X4.345Y-4.695
X4.363Y-4.246
X4.445Y-4.595
X4.445Y-4.695
X4.79Y-3.58
X4.79Y-3.68
X4.79Y-3.78
X4.79Y-3.88
X4.79Y-3.98
X4.79Y-4.08
X4.79Y-4.18
X5.1876Y-4.2958
X5.1876Y-4.8958
X5.2876Y-4.2958
X5.2876Y-4.8958
X5.3876Y-4.2958
X5.3876Y-4.8958
X5.4876Y-4.2958
X5.4876Y-4.8958
X5.5876Y-4.2958
X5.5876Y-4.8958
X5.6876Y-4.2958
X5.6876Y-4.8958
X5.7876Y-4.2958
X5.7876Y-4.8958
X5.8876Y-4.2958
X5.8876Y-4.8958
X5.9876Y-4.2958
X5.9876Y-4.8958
X6.0876Y-4.2958
X6.0876Y-4.8958
X6.43Y-4.905
X6.53Y-4.905
T4
X4.985Y-3.95
X4.985Y-4.65
X5.01Y-2.54
X5.01Y-2.64
X5.01Y-2.74
X5.01Y-2.84
X5.01Y-2.94
X5.01Y-3.04
X5.01Y-3.14
X5.01Y-3.24
X5.01Y-3.34
X5.01Y-3.44
X5.085Y-3.95
X5.085Y-4.65
X5.11Y-2.54
X5.11Y-2.64
X5.11Y-2.74
X5.11Y-2.84
X5.11Y-2.94
X5.11Y-3.04
X5.11Y-3.14
X5.11Y-3.24
X5.11Y-3.34
X5.11Y-3.44
X5.185Y-3.95
X5.185Y-4.65
X5.21Y-2.54
X5.21Y-2.64
X5.21Y-3.34
X5.21Y-3.44
X5.285Y-3.95
X5.285Y-4.65
X5.31Y-2.54
X5.31Y-2.64
X5.31Y-3.34
X5.31Y-3.44
X5.385Y-3.95
X5.385Y-4.65
X5.41Y-2.54
X5.41Y-2.64
X5.41Y-3.34
X5.41Y-3.44
X5.485Y-3.95
X5.485Y-4.65
X5.51Y-2.54
X5.51Y-2.64
X5.51Y-3.34
X5.51Y-3.44
X5.585Y-3.95
X5.585Y-4.65
X5.61Y-2.54
X5.61Y-2.64
X5.61Y-3.34
X5.61Y-3.44
X5.685Y-3.95
X5.685Y-4.65
X5.71Y-2.54
X5.71Y-2.64
X5.71Y-3.34
X5.71Y-3.44
X5.785Y-3.95
X5.785Y-4.65
X5.81Y-2.54
X5.81Y-2.64
X5.81Y-2.74
X5.81Y-2.84
X5.81Y-2.94
X5.81Y-3.04
X5.81Y-3.14
X5.81Y-3.24
X5.81Y-3.34
X5.81Y-3.44
X5.885Y-3.95
X5.885Y-4.65
X5.91Y-2.54
X5.91Y-2.64
X5.91Y-2.74
X5.91Y-2.84
X5.91Y-2.94
X5.91Y-3.04
X5.91Y-3.14
X5.91Y-3.24
X5.91Y-3.34
X5.91Y-3.44
X5.985Y-3.95
X5.985Y-4.65
X6.085Y-3.95
X6.085Y-4.65
X6.185Y-3.95
X6.185Y-4.65
X6.285Y-3.95
X6.285Y-4.65
X6.385Y-3.95
X6.385Y-4.65
X6.485Y-3.95
X6.485Y-4.65
X6.585Y-3.95
X6.585Y-4.65
X6.685Y-3.95
X6.685Y-4.65
X6.785Y-3.95
X6.785Y-4.65
X6.885Y-3.95
X6.885Y-4.65
T5
X4.0876Y-2.8208
X4.5636Y-4.9448
X6.3376Y-2.8208
X6.3386Y-4.5208
T2
G00X6.6611Y-3.3849
M15
G01X6.7044Y-3.3849
M16
G05
G00X6.6611Y-3.7251
M15
G01X6.7044Y-3.7251
M16
G05
G00X6.8316Y-3.3849
M15
G01X6.8631Y-3.3849
M16
G05
G00X6.8316Y-3.7251
M15
G01X6.8631Y-3.7251
M16
G05
M30
