%TF.GenerationSoftware,KiCad,Pcbnew,9.0.1*%
%TF.CreationDate,2025-04-18T18:57:09+02:00*%
%TF.ProjectId,hexapod2_cli,68657861-706f-4643-925f-636c692e6b69,rev?*%
%TF.SameCoordinates,Original*%
%TF.FileFunction,Copper,L2,Bot*%
%TF.FilePolarity,Positive*%
%FSLAX46Y46*%
G04 Gerber Fmt 4.6, Leading zero omitted, Abs format (unit mm)*
G04 Created by KiCad (PCBNEW 9.0.1) date 2025-04-18 18:57:09*
%MOMM*%
%LPD*%
G01*
G04 APERTURE LIST*
G04 Aperture macros list*
%AMRoundRect*
0 Rectangle with rounded corners*
0 $1 Rounding radius*
0 $2 $3 $4 $5 $6 $7 $8 $9 X,Y pos of 4 corners*
0 Add a 4 corners polygon primitive as box body*
4,1,4,$2,$3,$4,$5,$6,$7,$8,$9,$2,$3,0*
0 Add four circle primitives for the rounded corners*
1,1,$1+$1,$2,$3*
1,1,$1+$1,$4,$5*
1,1,$1+$1,$6,$7*
1,1,$1+$1,$8,$9*
0 Add four rect primitives between the rounded corners*
20,1,$1+$1,$2,$3,$4,$5,0*
20,1,$1+$1,$4,$5,$6,$7,0*
20,1,$1+$1,$6,$7,$8,$9,0*
20,1,$1+$1,$8,$9,$2,$3,0*%
%AMOutline5P*
0 Free polygon, 5 corners , with rotation*
0 The origin of the aperture is its center*
0 number of corners: always 5*
0 $1 to $10 corner X, Y*
0 $11 Rotation angle, in degrees counterclockwise*
0 create outline with 5 corners*
4,1,5,$1,$2,$3,$4,$5,$6,$7,$8,$9,$10,$1,$2,$11*%
%AMOutline6P*
0 Free polygon, 6 corners , with rotation*
0 The origin of the aperture is its center*
0 number of corners: always 6*
0 $1 to $12 corner X, Y*
0 $13 Rotation angle, in degrees counterclockwise*
0 create outline with 6 corners*
4,1,6,$1,$2,$3,$4,$5,$6,$7,$8,$9,$10,$11,$12,$1,$2,$13*%
%AMOutline7P*
0 Free polygon, 7 corners , with rotation*
0 The origin of the aperture is its center*
0 number of corners: always 7*
0 $1 to $14 corner X, Y*
0 $15 Rotation angle, in degrees counterclockwise*
0 create outline with 7 corners*
4,1,7,$1,$2,$3,$4,$5,$6,$7,$8,$9,$10,$11,$12,$13,$14,$1,$2,$15*%
%AMOutline8P*
0 Free polygon, 8 corners , with rotation*
0 The origin of the aperture is its center*
0 number of corners: always 8*
0 $1 to $16 corner X, Y*
0 $17 Rotation angle, in degrees counterclockwise*
0 create outline with 8 corners*
4,1,8,$1,$2,$3,$4,$5,$6,$7,$8,$9,$10,$11,$12,$13,$14,$15,$16,$1,$2,$17*%
G04 Aperture macros list end*
%TA.AperFunction,ComponentPad*%
%ADD10R,1.700000X1.700000*%
%TD*%
%TA.AperFunction,ComponentPad*%
%ADD11O,1.700000X1.700000*%
%TD*%
%TA.AperFunction,ComponentPad*%
%ADD12RoundRect,0.425000X0.425000X-0.425000X0.425000X0.425000X-0.425000X0.425000X-0.425000X-0.425000X0*%
%TD*%
%TA.AperFunction,ComponentPad*%
%ADD13C,1.700000*%
%TD*%
%TA.AperFunction,HeatsinkPad*%
%ADD14O,2.100000X1.000000*%
%TD*%
%TA.AperFunction,HeatsinkPad*%
%ADD15O,1.800000X1.000000*%
%TD*%
%TA.AperFunction,ComponentPad*%
%ADD16RoundRect,0.250000X-0.600000X-0.600000X0.600000X-0.600000X0.600000X0.600000X-0.600000X0.600000X0*%
%TD*%
%TA.AperFunction,ComponentPad*%
%ADD17Outline5P,-0.850000X0.510000X-0.510000X0.850000X0.850000X0.850000X0.850000X-0.850000X-0.850000X-0.850000X0.000000*%
%TD*%
%TA.AperFunction,ComponentPad*%
%ADD18RoundRect,0.425000X0.425000X0.425000X-0.425000X0.425000X-0.425000X-0.425000X0.425000X-0.425000X0*%
%TD*%
%TA.AperFunction,ViaPad*%
%ADD19C,3.500000*%
%TD*%
%TA.AperFunction,ViaPad*%
%ADD20C,0.800000*%
%TD*%
%TA.AperFunction,Conductor*%
%ADD21C,0.254000*%
%TD*%
%TA.AperFunction,Conductor*%
%ADD22C,0.250000*%
%TD*%
%TA.AperFunction,Conductor*%
%ADD23C,0.381000*%
%TD*%
%TA.AperFunction,Conductor*%
%ADD24C,0.508000*%
%TD*%
%TA.AperFunction,Conductor*%
%ADD25C,0.635000*%
%TD*%
G04 APERTURE END LIST*
D10*
%TO.P,J2,1,Pin_1*%
%TO.N,unconnected-(J2-Pin_1-Pad1)*%
X131764000Y-109113400D03*
D11*
%TO.P,J2,2,Pin_2*%
%TO.N,unconnected-(J2-Pin_2-Pad2)*%
X134304000Y-109113400D03*
%TO.P,J2,3,Pin_3*%
%TO.N,/V_S_bat*%
X136844000Y-109113400D03*
%TO.P,J2,4,Pin_4*%
%TO.N,/V_pot*%
X139384000Y-109113400D03*
%TO.P,J2,5,Pin_5*%
%TO.N,/TX_SC*%
X141924000Y-109113400D03*
%TO.P,J2,6,Pin_6*%
%TO.N,/RX_SC*%
X144464000Y-109113400D03*
%TO.P,J2,7,Pin_7*%
%TO.N,/SPI_CS_3280*%
X147004000Y-109113400D03*
%TO.P,J2,8,Pin_8*%
%TO.N,/SPI_CLK_3280*%
X149544000Y-109113400D03*
%TO.P,J2,9,Pin_9*%
%TO.N,/SPI_RX_3280*%
X152084000Y-109113400D03*
%TO.P,J2,10,Pin_10*%
%TO.N,/SPI_TX_3280*%
X154624000Y-109113400D03*
%TD*%
%TO.P,U1,1,GPIO0*%
%TO.N,/RX_Cl*%
X174880000Y-100330000D03*
%TO.P,U1,2,GPIO1*%
%TO.N,/TX_Cl*%
X172340000Y-100330000D03*
D10*
%TO.P,U1,3,GND*%
%TO.N,GND1*%
X169800000Y-100330000D03*
D11*
%TO.P,U1,4,GPIO2*%
%TO.N,Net-(U1-GPIO2)*%
X167260000Y-100330000D03*
%TO.P,U1,5,GPIO3*%
%TO.N,Net-(U1-GPIO3)*%
X164720000Y-100330000D03*
%TO.P,U1,6,GPIO4*%
%TO.N,unconnected-(U1-GPIO4-Pad6)*%
X162180000Y-100330000D03*
%TO.P,U1,7,GPIO5*%
%TO.N,unconnected-(U1-GPIO5-Pad7)*%
X159640000Y-100330000D03*
D10*
%TO.P,U1,8,GND*%
%TO.N,unconnected-(U1-GND-Pad8)*%
X157100000Y-100330000D03*
D11*
%TO.P,U1,9,GPIO6*%
%TO.N,unconnected-(U1-GPIO6-Pad9)*%
X154560000Y-100330000D03*
%TO.P,U1,10,GPIO7*%
%TO.N,unconnected-(U1-GPIO7-Pad10)*%
X152020000Y-100330000D03*
%TO.P,U1,11,GPIO8*%
%TO.N,/_TX*%
X149480000Y-100330000D03*
%TO.P,U1,12,GPIO9*%
%TO.N,/_RX*%
X146940000Y-100330000D03*
D10*
%TO.P,U1,13,GND*%
%TO.N,unconnected-(U1-GND-Pad13)*%
X144400000Y-100330000D03*
D11*
%TO.P,U1,14,GPIO10*%
%TO.N,unconnected-(U1-GPIO10-Pad14)*%
X141860000Y-100330000D03*
%TO.P,U1,15,GPIO11*%
%TO.N,/_D2*%
X139320000Y-100330000D03*
%TO.P,U1,16,GPIO12*%
%TO.N,/_SDA*%
X136780000Y-100330000D03*
%TO.P,U1,17,GPIO13*%
%TO.N,/_SCL*%
X134240000Y-100330000D03*
D10*
%TO.P,U1,18,GND*%
%TO.N,unconnected-(U1-GND-Pad18)*%
X131700000Y-100330000D03*
D11*
%TO.P,U1,19,GPIO14*%
%TO.N,/TFT_BL*%
X129160000Y-100330000D03*
%TO.P,U1,20,GPIO15*%
%TO.N,unconnected-(U1-GPIO15-Pad20)*%
X126620000Y-100330000D03*
%TO.P,U1,21,GPIO16*%
%TO.N,/SPI_RX*%
X126620000Y-118110000D03*
%TO.P,U1,22,GPIO17*%
%TO.N,/TFT_CS*%
X129160000Y-118110000D03*
D10*
%TO.P,U1,23,GND*%
%TO.N,GND*%
X131700000Y-118110000D03*
D11*
%TO.P,U1,24,GPIO18*%
%TO.N,/TFT_CLK*%
X134240000Y-118110000D03*
%TO.P,U1,25,GPIO19*%
%TO.N,/TFT_TX*%
X136780000Y-118110000D03*
%TO.P,U1,26,GPIO20*%
%TO.N,/_D0*%
X139320000Y-118110000D03*
%TO.P,U1,27,GPIO21*%
%TO.N,/_D1*%
X141860000Y-118110000D03*
D10*
%TO.P,U1,28,GND*%
%TO.N,unconnected-(U1-GND-Pad28)*%
X144400000Y-118110000D03*
D11*
%TO.P,U1,29,GPIO22*%
%TO.N,/TFT_DC*%
X146940000Y-118110000D03*
%TO.P,U1,30,RUN*%
%TO.N,unconnected-(U1-RUN-Pad30)*%
X149480000Y-118110000D03*
%TO.P,U1,31,GPIO26_ADC0*%
%TO.N,/ADC0*%
X152020000Y-118110000D03*
%TO.P,U1,32,GPIO27_ADC1*%
%TO.N,/ADC1*%
X154560000Y-118110000D03*
D10*
%TO.P,U1,33,AGND*%
%TO.N,unconnected-(U1-AGND-Pad33)*%
X157100000Y-118110000D03*
D11*
%TO.P,U1,34,GPIO28_ADC2*%
%TO.N,/V_pot*%
X159640000Y-118110000D03*
%TO.P,U1,35,ADC_VREF*%
%TO.N,unconnected-(U1-ADC_VREF-Pad35)*%
X162180000Y-118110000D03*
%TO.P,U1,36,3V3*%
%TO.N,+3.3VA*%
X164720000Y-118110000D03*
%TO.P,U1,37,3V3_EN*%
%TO.N,unconnected-(U1-3V3_EN-Pad37)*%
X167260000Y-118110000D03*
D10*
%TO.P,U1,38,GND*%
%TO.N,unconnected-(U1-GND-Pad38)*%
X169800000Y-118110000D03*
D11*
%TO.P,U1,39,VSYS*%
%TO.N,Net-(Q1-S)*%
X172340000Y-118110000D03*
%TO.P,U1,40,VBUS*%
%TO.N,Net-(J8-Pin_2)*%
X174880000Y-118110000D03*
%TD*%
D10*
%TO.P,J1,1,Pin_1*%
%TO.N,/SCL1*%
X131764000Y-124353400D03*
D11*
%TO.P,J1,2,Pin_2*%
%TO.N,/SDA1*%
X134304000Y-124353400D03*
%TO.P,J1,3,Pin_3*%
%TO.N,/LED_y*%
X136844000Y-124353400D03*
%TO.P,J1,4,Pin_4*%
%TO.N,/buzzer*%
X139384000Y-124353400D03*
%TO.P,J1,5,Pin_5*%
%TO.N,unconnected-(J1-Pin_5-Pad5)*%
X141924000Y-124353400D03*
%TO.P,J1,6,Pin_6*%
%TO.N,unconnected-(J1-Pin_6-Pad6)*%
X144464000Y-124353400D03*
%TO.P,J1,7,Pin_7*%
%TO.N,+3.3VA*%
X147004000Y-124353400D03*
%TO.P,J1,8,Pin_8*%
%TO.N,unconnected-(J1-Pin_8-Pad8)*%
X149544000Y-124353400D03*
D12*
%TO.P,J1,9,Pin_9*%
%TO.N,GND*%
X152084000Y-124353400D03*
D11*
%TO.P,J1,10,Pin_10*%
%TO.N,/Bat*%
X154624000Y-124353400D03*
%TD*%
D10*
%TO.P,J7,1,Pin_1*%
%TO.N,+3.3VA*%
X105283000Y-119253000D03*
D13*
%TO.P,J7,2,Pin_2*%
%TO.N,Net-(J7-Pin_2)*%
X105283000Y-116713000D03*
%TO.P,J7,3,Pin_3*%
%TO.N,/TX_Cl*%
X107823000Y-119253000D03*
%TO.P,J7,4,Pin_4*%
%TO.N,/RX_Cl*%
X107823000Y-116713000D03*
%TO.P,J7,5,Pin_5*%
%TO.N,/TX_Srv*%
X110363000Y-119253000D03*
%TO.P,J7,6,Pin_6*%
%TO.N,/RX_Srv*%
X110363000Y-116713000D03*
%TO.P,J7,7,Pin_7*%
%TO.N,/RX_Cl*%
X112903000Y-119253000D03*
%TO.P,J7,8,Pin_8*%
%TO.N,/TX_Cl*%
X112903000Y-116713000D03*
%TD*%
D10*
%TO.P,J5,1,Pin_1*%
%TO.N,+5V*%
X121666000Y-90932000D03*
D13*
%TO.P,J5,2,Pin_2*%
%TO.N,/TFT_CS*%
X121666000Y-93472000D03*
%TO.P,J5,3,Pin_3*%
%TO.N,/TFT_CLK*%
X121666000Y-96012000D03*
%TO.P,J5,4,Pin_4*%
%TO.N,/TFT_TX*%
X121666000Y-98552000D03*
%TO.P,J5,5,Pin_5*%
%TO.N,/TFT_DC*%
X121666000Y-101092000D03*
%TO.P,J5,6,Pin_6*%
%TO.N,/TFT_BL*%
X121666000Y-103632000D03*
%TO.P,J5,7,Pin_7*%
%TO.N,GND*%
X121666000Y-106172000D03*
%TD*%
D10*
%TO.P,J8,1,Pin_1*%
%TO.N,+5V*%
X163322000Y-124587000D03*
D13*
%TO.P,J8,2,Pin_2*%
%TO.N,Net-(J8-Pin_2)*%
X165862000Y-124587000D03*
%TD*%
D10*
%TO.P,J4,1,Pin_1*%
%TO.N,+5V*%
X103200200Y-107848400D03*
D12*
%TO.P,J4,2,Pin_2*%
%TO.N,GND*%
X105740200Y-107848400D03*
D11*
%TO.P,J4,3,Pin_3*%
%TO.N,unconnected-(J4-Pin_3-Pad3)*%
X108280200Y-107848400D03*
%TO.P,J4,4,Pin_4*%
%TO.N,unconnected-(J4-Pin_4-Pad4)*%
X110820200Y-107848400D03*
%TD*%
D14*
%TO.P,J6,S1,SHIELD*%
%TO.N,unconnected-(J6-SHIELD-PadS1)_1*%
X169742000Y-94617000D03*
D15*
%TO.N,unconnected-(J6-SHIELD-PadS1)*%
X173922000Y-94617000D03*
D14*
%TO.N,unconnected-(J6-SHIELD-PadS1)_2*%
X169742000Y-85977000D03*
D15*
%TO.N,unconnected-(J6-SHIELD-PadS1)_3*%
X173922000Y-85977000D03*
%TD*%
D16*
%TO.P,U3,-0*%
%TO.N,N/C*%
X127254000Y-64516000D03*
%TO.P,U3,-1*%
X150114000Y-64516000D03*
%TO.P,U3,-2*%
X129794000Y-67056000D03*
%TO.P,U3,-3*%
X147574000Y-67056000D03*
%TO.P,U3,-4,GND*%
%TO.N,GND*%
X127254000Y-87376000D03*
%TO.P,U3,-5*%
%TO.N,N/C*%
X150114000Y-87376000D03*
D11*
%TO.P,U3,0,GP0*%
%TO.N,/RX_Srv*%
X132334000Y-67056000D03*
%TO.P,U3,1,GP1*%
%TO.N,/TX_Srv*%
X129794000Y-64516000D03*
%TO.P,U3,2,GP2*%
%TO.N,/LED_y*%
X127254000Y-67056000D03*
%TO.P,U3,3,GP3*%
%TO.N,/NPix1*%
X129794000Y-69596000D03*
%TO.P,U3,3E,3V3_EN*%
%TO.N,unconnected-(U3-3V3_EN-Pad3E)*%
X134874000Y-64516000D03*
%TO.P,U3,3V,3V3*%
%TO.N,+3.3V*%
X134874000Y-67056000D03*
%TO.P,U3,4,GP4*%
%TO.N,/TX_SC*%
X127254000Y-69596000D03*
%TO.P,U3,5,GP5*%
%TO.N,/RX_SC*%
X129794000Y-72136000D03*
%TO.P,U3,6,GP6*%
%TO.N,/buzzer*%
X127254000Y-72136000D03*
%TO.P,U3,7,GP7*%
%TO.N,Net-(U3-GP7)*%
X129794000Y-74676000D03*
%TO.P,U3,8,GP8*%
%TO.N,Net-(U3-GP8)*%
X127254000Y-74676000D03*
%TO.P,U3,9,GP9*%
%TO.N,unconnected-(U3-GP9-Pad9)*%
X129794000Y-77216000D03*
%TO.P,U3,10,GP10*%
%TO.N,/SPI_CLK_3280*%
X127254000Y-77216000D03*
%TO.P,U3,11,GP11*%
%TO.N,/SPI_TX_3280*%
X129794000Y-79756000D03*
%TO.P,U3,12,GP12*%
%TO.N,/SPI_RX_3280*%
X127254000Y-79756000D03*
%TO.P,U3,13,GP13*%
%TO.N,/SPI_CS_3280*%
X129794000Y-82296000D03*
%TO.P,U3,14,GP14*%
%TO.N,unconnected-(U3-GP14-Pad14)*%
X127254000Y-82296000D03*
%TO.P,U3,15,GP15*%
%TO.N,unconnected-(U3-GP15-Pad15)*%
X129794000Y-84836000D03*
%TO.P,U3,16,GP16*%
%TO.N,unconnected-(U3-GP16-Pad16)*%
X127254000Y-84836000D03*
%TO.P,U3,17,GP17*%
%TO.N,unconnected-(U3-GP17-Pad17)*%
X129794000Y-87376000D03*
%TO.P,U3,18,GP18*%
%TO.N,/SDA1*%
X132334000Y-87376000D03*
%TO.P,U3,19,GP19*%
%TO.N,/SCL1*%
X132334000Y-84836000D03*
%TO.P,U3,20,GP20*%
%TO.N,unconnected-(U3-GP20-Pad20)*%
X134874000Y-87376000D03*
%TO.P,U3,21,GP21*%
%TO.N,unconnected-(U3-GP21-Pad21)*%
X134874000Y-84836000D03*
%TO.P,U3,22,GP22*%
%TO.N,unconnected-(U3-GP22-Pad22)*%
X137414000Y-87376000D03*
%TO.P,U3,23,GP23*%
%TO.N,unconnected-(U3-GP23-Pad23)*%
X137414000Y-84836000D03*
%TO.P,U3,24,GP24*%
%TO.N,unconnected-(U3-GP24-Pad24)*%
X139954000Y-87376000D03*
%TO.P,U3,25,GP25*%
%TO.N,unconnected-(U3-GP25-Pad25)*%
X139954000Y-84836000D03*
%TO.P,U3,26,GP26*%
%TO.N,unconnected-(U3-GP26-Pad26)*%
X142494000Y-87376000D03*
%TO.P,U3,27,GP27*%
%TO.N,unconnected-(U3-GP27-Pad27)*%
X142494000Y-84836000D03*
%TO.P,U3,28,GP28*%
%TO.N,unconnected-(U3-GP28-Pad28)*%
X145034000Y-87376000D03*
%TO.P,U3,29,GP29*%
%TO.N,unconnected-(U3-GP29-Pad29)*%
X145034000Y-84836000D03*
%TO.P,U3,30,GP30*%
%TO.N,unconnected-(U3-GP30-Pad30)*%
X147574000Y-87376000D03*
%TO.P,U3,31,GP31*%
%TO.N,unconnected-(U3-GP31-Pad31)*%
X147574000Y-84836000D03*
%TO.P,U3,32,GP32*%
%TO.N,unconnected-(U3-GP32-Pad32)*%
X150114000Y-84836000D03*
%TO.P,U3,33,GP33*%
%TO.N,unconnected-(U3-GP33-Pad33)*%
X147574000Y-82296000D03*
%TO.P,U3,34,GP34*%
%TO.N,unconnected-(U3-GP34-Pad34)*%
X150114000Y-82296000D03*
%TO.P,U3,35,GP35*%
%TO.N,unconnected-(U3-GP35-Pad35)*%
X147574000Y-79756000D03*
%TO.P,U3,36,GP36*%
%TO.N,unconnected-(U3-GP36-Pad36)*%
X150114000Y-79756000D03*
%TO.P,U3,37,GP37*%
%TO.N,unconnected-(U3-GP37-Pad37)*%
X147574000Y-77216000D03*
%TO.P,U3,38,GP38*%
%TO.N,unconnected-(U3-GP38-Pad38)*%
X150114000Y-77216000D03*
%TO.P,U3,39,GP39*%
%TO.N,unconnected-(U3-GP39-Pad39)*%
X147574000Y-74676000D03*
%TO.P,U3,40,GP40*%
%TO.N,unconnected-(U3-GP40-Pad40)*%
X150114000Y-74676000D03*
%TO.P,U3,41,GP41*%
%TO.N,/V_L_bat*%
X147574000Y-72136000D03*
%TO.P,U3,42,GP24*%
%TO.N,/V_S_bat*%
X150114000Y-72136000D03*
%TO.P,U3,43,GP43*%
%TO.N,unconnected-(U3-GP43-Pad43)*%
X147574000Y-69596000D03*
%TO.P,U3,44,GP44*%
%TO.N,unconnected-(U3-GP44-Pad44)*%
X150114000Y-69596000D03*
%TO.P,U3,45,GP45*%
%TO.N,unconnected-(U3-GP45-Pad45)*%
X150114000Y-67056000D03*
%TO.P,U3,46,GP46*%
%TO.N,unconnected-(U3-GP46-Pad46)*%
X147574000Y-64516000D03*
%TO.P,U3,47,GP47*%
%TO.N,unconnected-(U3-GP47-Pad47)*%
X145034000Y-67056000D03*
%TO.P,U3,AV,ADC_REF*%
%TO.N,unconnected-(U3-ADC_REF-PadAV)*%
X137414000Y-67056000D03*
%TO.P,U3,BS,BOOT_SEL*%
%TO.N,/BootSel*%
X145034000Y-64516000D03*
%TO.P,U3,RU,RUN*%
%TO.N,/Run*%
X137414000Y-64516000D03*
%TO.P,U3,SC,SWCLK*%
%TO.N,unconnected-(U3-SWCLK-PadSC)*%
X139954000Y-67056000D03*
%TO.P,U3,SD,SWDIO*%
%TO.N,unconnected-(U3-SWDIO-PadSD)*%
X142494000Y-67056000D03*
%TO.P,U3,U+,USB_DP*%
%TO.N,/DP*%
X139954000Y-64516000D03*
%TO.P,U3,U-,USB_DM*%
%TO.N,/DM*%
X142494000Y-64516000D03*
D17*
%TO.P,U3,VB,VBUS*%
%TO.N,+5V*%
X132334000Y-64516000D03*
%TD*%
D10*
%TO.P,J3,1,Pin_1*%
%TO.N,/_SDA*%
X98298000Y-87122000D03*
D11*
%TO.P,J3,2,Pin_2*%
%TO.N,/_TX*%
X95758000Y-87122000D03*
%TO.P,J3,3,Pin_3*%
%TO.N,/_SCL*%
X98298000Y-89662000D03*
%TO.P,J3,4,Pin_4*%
%TO.N,/_RX*%
X95758000Y-89662000D03*
%TO.P,J3,5,Pin_5*%
%TO.N,+3.3V*%
X98298000Y-92202000D03*
%TO.P,J3,6,Pin_6*%
%TO.N,/_D1*%
X95758000Y-92202000D03*
D18*
%TO.P,J3,7,Pin_7*%
%TO.N,GND*%
X98298000Y-94742000D03*
%TO.P,J3,8,Pin_8*%
X95758000Y-94742000D03*
D11*
%TO.P,J3,9,Pin_9*%
%TO.N,/_Ai1*%
X98298000Y-97282000D03*
%TO.P,J3,10,Pin_10*%
%TO.N,/_Ai0*%
X95758000Y-97282000D03*
%TO.P,J3,11,Pin_11*%
%TO.N,+5V*%
X98298000Y-99822000D03*
%TO.P,J3,12,Pin_12*%
X95758000Y-99822000D03*
D18*
%TO.P,J3,13,Pin_13*%
%TO.N,GND*%
X98298000Y-102362000D03*
%TO.P,J3,14,Pin_14*%
X95758000Y-102362000D03*
D11*
%TO.P,J3,15,Pin_15*%
%TO.N,/_D2*%
X98298000Y-104902000D03*
%TO.P,J3,16,Pin_16*%
%TO.N,/_D0*%
X95758000Y-104902000D03*
%TO.P,J3,17,Pin_17*%
%TO.N,+5V*%
X98298000Y-107442000D03*
%TO.P,J3,18,Pin_18*%
X95758000Y-107442000D03*
D18*
%TO.P,J3,19,Pin_19*%
%TO.N,GND*%
X98298000Y-109982000D03*
%TO.P,J3,20,Pin_20*%
X95758000Y-109982000D03*
%TD*%
D19*
%TO.N,*%
X160999400Y-114828400D03*
X115914400Y-125598000D03*
X103824000Y-71648400D03*
X160974000Y-71648400D03*
D20*
%TO.N,/LED_y*%
X123571000Y-70612000D03*
%TO.N,/_SDA*%
X123190000Y-100965000D03*
X112395000Y-92837000D03*
%TO.N,/_SCL*%
X114427000Y-92202000D03*
X128651000Y-96572000D03*
X123190000Y-97188000D03*
%TO.N,/_D2*%
X123317000Y-110998000D03*
X111439681Y-104714319D03*
X128524000Y-111977000D03*
X104267000Y-104714319D03*
X138811000Y-103341000D03*
X128905000Y-104140000D03*
%TO.N,+3.3V*%
X120523000Y-68326000D03*
X115443000Y-68326000D03*
X108585000Y-68326000D03*
%TO.N,/V_S_bat*%
X155738000Y-105247000D03*
%TO.N,/SPI_RX_3280*%
X143117939Y-94743073D03*
X145796000Y-94147067D03*
%TO.N,/SPI_TX_3280*%
X147828000Y-94996000D03*
X144392933Y-94875067D03*
%TO.N,+5V*%
X173228000Y-111760000D03*
%TO.N,/RX_Cl*%
X127889000Y-107188000D03*
X127508000Y-113030000D03*
X123317000Y-113665000D03*
%TO.N,/TX_Cl*%
X126873000Y-106299000D03*
X123352000Y-112522000D03*
X126457000Y-112704000D03*
%TO.N,/SCL1*%
X125720265Y-94751357D03*
%TO.N,/SDA1*%
X126111000Y-95758000D03*
%TO.N,/_D0*%
X133350000Y-121920000D03*
X96774000Y-111633000D03*
%TO.N,/_TX*%
X123190000Y-102743000D03*
X111252000Y-92837000D03*
%TO.N,/V_L_bat*%
X156464000Y-122901000D03*
%TO.N,/NPix1*%
X123698000Y-69116500D03*
X119339368Y-68481500D03*
%TO.N,+3.3VA*%
X122809000Y-122809000D03*
X152908000Y-121412000D03*
%TO.N,/TFT_CS*%
X115406000Y-104775000D03*
X117348000Y-107823000D03*
X131572000Y-120396000D03*
%TO.N,/TFT_CLK*%
X132455933Y-116325933D03*
X116459000Y-104775000D03*
X120269000Y-115951000D03*
X123190000Y-115951000D03*
X118618000Y-107823000D03*
%TO.N,/TFT_TX*%
X117602000Y-104775000D03*
X123190000Y-114935000D03*
X120269000Y-114950997D03*
X132334000Y-115316000D03*
X119888000Y-107823000D03*
%TO.N,/TFT_DC*%
X144399000Y-101891000D03*
%TO.N,/TFT_BL*%
X126746000Y-104394000D03*
%TO.N,/_RX*%
X123190000Y-99568000D03*
X113572076Y-92802923D03*
%TO.N,/_D1*%
X110236000Y-92837000D03*
X123317000Y-105791000D03*
X129667000Y-109765000D03*
%TO.N,/_Ai0*%
X109474000Y-98552000D03*
X146558000Y-111252000D03*
X123317000Y-109855000D03*
X147828000Y-113208000D03*
%TO.N,/_Ai1*%
X137541000Y-113284000D03*
X109474000Y-97282000D03*
X123317000Y-108854997D03*
X135382000Y-110490000D03*
%TO.N,/ADC0*%
X152019000Y-114681000D03*
%TO.N,/Run*%
X111506000Y-63754000D03*
X104394000Y-86741000D03*
X136207500Y-61785500D03*
%TO.N,Net-(U1-GPIO3)*%
X122428000Y-86141000D03*
X125024726Y-93161274D03*
%TO.N,Net-(U1-GPIO2)*%
X123053945Y-85361129D03*
X125025726Y-92134142D03*
%TO.N,Net-(D6-A)*%
X167894000Y-87884000D03*
X167954342Y-92009483D03*
X159632933Y-90798933D03*
X165011136Y-92025642D03*
%TO.N,/STAT*%
X162687000Y-89347000D03*
X155702000Y-91821000D03*
%TO.N,Net-(U2-PROG)*%
X167513000Y-94834000D03*
X167501120Y-93126000D03*
%TO.N,GND1*%
X165735000Y-97028000D03*
X159893000Y-94488000D03*
%TO.N,Net-(J8-Pin_2)*%
X170815000Y-116205000D03*
X169164000Y-121285000D03*
%TD*%
D21*
%TO.N,/LED_y*%
X123571000Y-70612000D02*
X124333000Y-71374000D01*
X124788000Y-123010000D02*
X128016000Y-126238000D01*
X128016000Y-126238000D02*
X134959400Y-126238000D01*
X134959400Y-126238000D02*
X136844000Y-124353400D01*
X124788000Y-94427548D02*
X124788000Y-123010000D01*
X124333000Y-71374000D02*
X124333000Y-90411866D01*
X125752726Y-91831592D02*
X125752726Y-93462822D01*
X124333000Y-90411866D02*
X125752726Y-91831592D01*
X125752726Y-93462822D02*
X124788000Y-94427548D01*
%TO.N,/buzzer*%
X127171433Y-93643433D02*
X129849000Y-96321000D01*
X142045544Y-102294544D02*
X142045544Y-105029000D01*
X129849000Y-96321000D02*
X131820819Y-96321000D01*
X125730000Y-89399532D02*
X127171433Y-90840966D01*
X143038000Y-120699400D02*
X139384000Y-124353400D01*
X127254000Y-72136000D02*
X125730000Y-73660000D01*
X143038000Y-112205344D02*
X143038000Y-120699400D01*
X145642000Y-109601344D02*
X143038000Y-112205344D01*
X134620000Y-99120181D02*
X139776125Y-99120181D01*
X140498000Y-100747000D02*
X142045544Y-102294544D01*
X131820819Y-96321000D02*
X134620000Y-99120181D01*
X139776125Y-99120181D02*
X140498000Y-99842056D01*
X142045544Y-105029000D02*
X145642000Y-108625456D01*
X125730000Y-73660000D02*
X125730000Y-89399532D01*
X140498000Y-99842056D02*
X140498000Y-100747000D01*
X145642000Y-108625456D02*
X145642000Y-109601344D01*
X127171433Y-90840966D02*
X127171433Y-93643433D01*
%TO.N,/TX_SC*%
X127254000Y-69596000D02*
X124788000Y-72062000D01*
X139065000Y-106045000D02*
X141924000Y-108904000D01*
X124788000Y-89744468D02*
X126261433Y-91217901D01*
X129369532Y-99152000D02*
X129647944Y-99152000D01*
X129647944Y-99152000D02*
X130338000Y-99842056D01*
X126926000Y-96708468D02*
X129369532Y-99152000D01*
X141924000Y-108904000D02*
X141924000Y-109113400D01*
X130338000Y-103414000D02*
X132969000Y-106045000D01*
X130338000Y-99842056D02*
X130338000Y-103414000D01*
X126261433Y-94265901D02*
X126926000Y-94930468D01*
X126926000Y-94930468D02*
X126926000Y-96708468D01*
X126261433Y-91217901D02*
X126261433Y-94265901D01*
X124788000Y-72062000D02*
X124788000Y-89744468D01*
X132969000Y-106045000D02*
X139065000Y-106045000D01*
%TO.N,/RX_SC*%
X133062000Y-99336000D02*
X133062000Y-101312000D01*
X133062000Y-101312000D02*
X137340000Y-105590000D01*
X128616000Y-70958000D02*
X126766056Y-70958000D01*
X127381000Y-94742000D02*
X127381000Y-96520000D01*
X126716433Y-91029433D02*
X126716433Y-94077433D01*
X126716433Y-94077433D02*
X127381000Y-94742000D01*
X125243000Y-89556000D02*
X126716433Y-91029433D01*
X140940600Y-105590000D02*
X144464000Y-109113400D01*
X128363000Y-97502000D02*
X131228000Y-97502000D01*
X127381000Y-96520000D02*
X128363000Y-97502000D01*
X129794000Y-72136000D02*
X128616000Y-70958000D01*
X126766056Y-70958000D02*
X125243000Y-72481056D01*
X137340000Y-105590000D02*
X140940600Y-105590000D01*
X131228000Y-97502000D02*
X133062000Y-99336000D01*
X125243000Y-72481056D02*
X125243000Y-89556000D01*
D22*
%TO.N,/_SDA*%
X118510968Y-96285968D02*
X115843968Y-96285968D01*
X120490000Y-99039116D02*
X120490000Y-98265000D01*
X122842000Y-100617000D02*
X122842000Y-100604884D01*
X122141000Y-99916000D02*
X121953000Y-99728000D01*
X120490000Y-98265000D02*
X118510968Y-96285968D01*
X122842000Y-100604884D02*
X122153116Y-99916000D01*
X115843968Y-96285968D02*
X112395000Y-92837000D01*
X123190000Y-100965000D02*
X122842000Y-100617000D01*
X121953000Y-99728000D02*
X121178884Y-99728000D01*
X122153116Y-99916000D02*
X122141000Y-99916000D01*
X121178884Y-99728000D02*
X120490000Y-99039116D01*
%TO.N,/_SCL*%
X134240000Y-99380820D02*
X134240000Y-100330000D01*
X128651000Y-96572000D02*
X129459361Y-96572000D01*
X129459361Y-96572000D02*
X129661362Y-96774000D01*
X129661362Y-96774000D02*
X131633180Y-96774000D01*
X122059116Y-94742000D02*
X116967000Y-94742000D01*
X123190000Y-97188000D02*
X123190000Y-95872884D01*
X123190000Y-95872884D02*
X122059116Y-94742000D01*
X116967000Y-94742000D02*
X114427000Y-92202000D01*
X131633180Y-96774000D02*
X134240000Y-99380820D01*
D21*
%TO.N,/_D2*%
X98552000Y-104648000D02*
X98298000Y-104902000D01*
X138811000Y-103341000D02*
X139320000Y-102832000D01*
X128905000Y-111940000D02*
X128868000Y-111977000D01*
X104267000Y-104714319D02*
X104079319Y-104902000D01*
X104079319Y-104902000D02*
X98298000Y-104902000D01*
X128868000Y-111977000D02*
X128524000Y-111977000D01*
X139320000Y-102832000D02*
X139320000Y-100330000D01*
X128905000Y-104140000D02*
X128905000Y-111940000D01*
X111439681Y-104714319D02*
X117723362Y-110998000D01*
X111439681Y-104714319D02*
X111373362Y-104648000D01*
X117723362Y-110998000D02*
X123317000Y-110998000D01*
D23*
%TO.N,+3.3V*%
X134874000Y-67056000D02*
X133604000Y-68326000D01*
X133604000Y-68326000D02*
X120523000Y-68326000D01*
X115443000Y-68326000D02*
X108585000Y-68326000D01*
D21*
%TO.N,/V_S_bat*%
X150876000Y-93286000D02*
X150876000Y-90043000D01*
X150876000Y-90043000D02*
X151511000Y-89408000D01*
X155956000Y-105029000D02*
X155956000Y-101508000D01*
X151511000Y-89408000D02*
X151511000Y-73533000D01*
X155738000Y-105247000D02*
X155956000Y-105029000D01*
X155922000Y-101508000D02*
X155922000Y-98332000D01*
X155956000Y-101508000D02*
X155922000Y-101508000D01*
X151511000Y-73533000D02*
X150114000Y-72136000D01*
X155922000Y-98332000D02*
X150876000Y-93286000D01*
%TO.N,/SPI_CS_3280*%
X143222000Y-105331400D02*
X147004000Y-109113400D01*
X130644000Y-83146000D02*
X135033944Y-83146000D01*
X136236000Y-93040056D02*
X143222000Y-100026056D01*
X129794000Y-82296000D02*
X130644000Y-83146000D01*
X136236000Y-84348056D02*
X136236000Y-93040056D01*
X135033944Y-83146000D02*
X136236000Y-84348056D01*
X143222000Y-100026056D02*
X143222000Y-105331400D01*
%TO.N,/SPI_CLK_3280*%
X145669000Y-95123000D02*
X145669000Y-103378000D01*
X141097000Y-81026000D02*
X143672000Y-83601000D01*
X143672000Y-93126000D02*
X145669000Y-95123000D01*
X128524000Y-78486000D02*
X130556000Y-78486000D01*
X130556000Y-78486000D02*
X133096000Y-81026000D01*
X145669000Y-103378000D02*
X149544000Y-107253000D01*
X127254000Y-77216000D02*
X128524000Y-78486000D01*
X143672000Y-83601000D02*
X143672000Y-93126000D01*
X133096000Y-81026000D02*
X141097000Y-81026000D01*
X149544000Y-107253000D02*
X149544000Y-109113400D01*
%TO.N,/SPI_RX_3280*%
X131383533Y-81989000D02*
X136853000Y-81989000D01*
X128616000Y-81118000D02*
X130512532Y-81118000D01*
X146431000Y-98155056D02*
X148302000Y-100026056D01*
X127254000Y-79756000D02*
X128616000Y-81118000D01*
X138776000Y-83912000D02*
X138776000Y-90389000D01*
X148302000Y-105331400D02*
X152084000Y-109113400D01*
X145796000Y-94147067D02*
X146431000Y-94782067D01*
X138776000Y-90389000D02*
X142875000Y-94488000D01*
X142875000Y-94500134D02*
X143117939Y-94743073D01*
X136853000Y-81989000D02*
X138776000Y-83912000D01*
X146431000Y-94782067D02*
X146431000Y-98155056D01*
X148302000Y-100026056D02*
X148302000Y-105331400D01*
X130512532Y-81118000D02*
X131383533Y-81989000D01*
X142875000Y-94488000D02*
X142875000Y-94500134D01*
%TO.N,/SPI_TX_3280*%
X141224000Y-91821000D02*
X144145000Y-94742000D01*
X131572000Y-81534000D02*
X139319000Y-81534000D01*
X148717000Y-94996000D02*
X153382000Y-99661000D01*
X144278067Y-94875067D02*
X144392933Y-94875067D01*
X144145000Y-94742000D02*
X144278067Y-94875067D01*
X141224000Y-83439000D02*
X141224000Y-83693000D01*
X147828000Y-94996000D02*
X148717000Y-94996000D01*
X129794000Y-79756000D02*
X131572000Y-81534000D01*
X139319000Y-81534000D02*
X141224000Y-83439000D01*
X141224000Y-83693000D02*
X141224000Y-91821000D01*
X153382000Y-107871400D02*
X154624000Y-109113400D01*
X153382000Y-99661000D02*
X153382000Y-107871400D01*
D24*
%TO.N,+5V*%
X176530000Y-119761000D02*
X176022000Y-120269000D01*
D25*
X98298000Y-99822000D02*
X103251000Y-94869000D01*
D24*
X167640000Y-120269000D02*
X163322000Y-124587000D01*
X163322000Y-125857000D02*
X163322000Y-124587000D01*
D25*
X103251000Y-76073000D02*
X104013000Y-75311000D01*
X107061000Y-66548000D02*
X110998000Y-62611000D01*
D24*
X176530000Y-115062000D02*
X176530000Y-119761000D01*
X121666000Y-90932000D02*
X124206000Y-93472000D01*
X124206000Y-93472000D02*
X124206000Y-124714000D01*
X173228000Y-111760000D02*
X176530000Y-115062000D01*
D25*
X103251000Y-94869000D02*
X103251000Y-76073000D01*
X130429000Y-62611000D02*
X132334000Y-64516000D01*
D24*
X161798000Y-127381000D02*
X163322000Y-125857000D01*
D25*
X107061000Y-72263000D02*
X107061000Y-66548000D01*
X110998000Y-62611000D02*
X130429000Y-62611000D01*
D24*
X126873000Y-127381000D02*
X161798000Y-127381000D01*
D25*
X104013000Y-75311000D02*
X107061000Y-72263000D01*
D24*
X124206000Y-124714000D02*
X126873000Y-127381000D01*
X176022000Y-120269000D02*
X167640000Y-120269000D01*
D21*
%TO.N,/RX_Cl*%
X117348000Y-113157000D02*
X117475000Y-113157000D01*
X127508000Y-107569000D02*
X127889000Y-107188000D01*
X127508000Y-113030000D02*
X127508000Y-107569000D01*
X114808000Y-115697000D02*
X117348000Y-113157000D01*
X117475000Y-113157000D02*
X122809000Y-113157000D01*
X114808000Y-117348000D02*
X114808000Y-115697000D01*
X122809000Y-113157000D02*
X123317000Y-113665000D01*
X112903000Y-119253000D02*
X114808000Y-117348000D01*
%TO.N,/TX_Cl*%
X126492000Y-112669000D02*
X126492000Y-106680000D01*
X112903000Y-116713000D02*
X117094000Y-112522000D01*
X107823000Y-119253000D02*
X109001000Y-120431000D01*
X117094000Y-112522000D02*
X123352000Y-112522000D01*
X111725000Y-119740944D02*
X111725000Y-117891000D01*
X126492000Y-106553000D02*
X126746000Y-106299000D01*
X126492000Y-106680000D02*
X126492000Y-106553000D01*
X111034944Y-120431000D02*
X111725000Y-119740944D01*
X126457000Y-112704000D02*
X126492000Y-112669000D01*
X126746000Y-106299000D02*
X126873000Y-106299000D01*
X111725000Y-117891000D02*
X112903000Y-116713000D01*
X109001000Y-120431000D02*
X111034944Y-120431000D01*
%TO.N,/SCL1*%
X125720265Y-94751357D02*
X125515000Y-94956622D01*
X125515000Y-94956622D02*
X125515000Y-95053903D01*
X128798400Y-124353400D02*
X131764000Y-124353400D01*
X125243000Y-120798000D02*
X128798400Y-124353400D01*
X125243000Y-95325903D02*
X125243000Y-120798000D01*
X125515000Y-95053903D02*
X125243000Y-95325903D01*
%TO.N,/SDA1*%
X127798000Y-118597944D02*
X127798000Y-117257000D01*
X134112000Y-124161400D02*
X134304000Y-124353400D01*
X125730000Y-115189000D02*
X125730000Y-102885944D01*
X127798000Y-117257000D02*
X125730000Y-115189000D01*
X128488056Y-119288000D02*
X127798000Y-118597944D01*
X127798000Y-98223936D02*
X126111000Y-96536936D01*
X125730000Y-102885944D02*
X127798000Y-100817944D01*
X134304000Y-124353400D02*
X129238600Y-119288000D01*
X127798000Y-100817944D02*
X127798000Y-98223936D01*
X126111000Y-96536936D02*
X126111000Y-95758000D01*
X129238600Y-119288000D02*
X128488056Y-119288000D01*
%TO.N,/_D0*%
X133350000Y-121920000D02*
X135510000Y-121920000D01*
X96301000Y-111160000D02*
X95021096Y-111160000D01*
X95021096Y-111160000D02*
X94580000Y-110718904D01*
X96774000Y-111633000D02*
X96301000Y-111160000D01*
X94580000Y-110718904D02*
X94580000Y-106080000D01*
X94580000Y-106080000D02*
X95758000Y-104902000D01*
X135510000Y-121920000D02*
X139320000Y-118110000D01*
D22*
%TO.N,/_TX*%
X120490000Y-100043000D02*
X117475000Y-97028000D01*
X123190000Y-102743000D02*
X122715000Y-102268000D01*
X111669000Y-93137720D02*
X111669000Y-93127000D01*
X117475000Y-97028000D02*
X115570000Y-97028000D01*
X111394997Y-92852997D02*
X111267997Y-92852997D01*
X115570000Y-97028000D02*
X112105000Y-93563000D01*
X112105000Y-93563000D02*
X112094280Y-93563000D01*
X120490000Y-101579116D02*
X120490000Y-100043000D01*
X112094280Y-93563000D02*
X111669000Y-93137720D01*
X121178884Y-102268000D02*
X120490000Y-101579116D01*
X111267997Y-92852997D02*
X111252000Y-92837000D01*
X111669000Y-93127000D02*
X111394997Y-92852997D01*
X122715000Y-102268000D02*
X121178884Y-102268000D01*
D21*
%TO.N,/V_L_bat*%
X155922000Y-122359000D02*
X156464000Y-122901000D01*
X148752000Y-70958000D02*
X150601944Y-70958000D01*
X152019000Y-72375056D02*
X152019000Y-85978190D01*
X151384000Y-93091000D02*
X156845000Y-98552000D01*
X156845000Y-98552000D02*
X157607000Y-98552000D01*
X158278000Y-99223000D02*
X158278000Y-103736548D01*
X152019000Y-85978190D02*
X152018190Y-85978190D01*
X152018190Y-85978190D02*
X152019000Y-85979000D01*
X152019000Y-89543468D02*
X151384000Y-90178468D01*
X155922000Y-106092548D02*
X155922000Y-122359000D01*
X157607000Y-98552000D02*
X158278000Y-99223000D01*
X158278000Y-103736548D02*
X155922000Y-106092548D01*
X152019000Y-85979000D02*
X152019000Y-89543468D01*
X151384000Y-90178468D02*
X151384000Y-93091000D01*
X150601944Y-70958000D02*
X152019000Y-72375056D01*
X147574000Y-72136000D02*
X148752000Y-70958000D01*
%TO.N,/NPix1*%
X119339368Y-68481500D02*
X119974368Y-69116500D01*
X119974368Y-69116500D02*
X123698000Y-69116500D01*
%TO.N,+3.3VA*%
X105283000Y-119253000D02*
X107061000Y-121031000D01*
X107061000Y-121031000D02*
X114808000Y-121031000D01*
X114808000Y-121031000D02*
X121031000Y-121031000D01*
D24*
X149945400Y-121412000D02*
X147004000Y-124353400D01*
D21*
X121031000Y-121031000D02*
X122809000Y-122809000D01*
D24*
X152908000Y-121412000D02*
X149945400Y-121412000D01*
D21*
%TO.N,/TFT_CS*%
X115406000Y-104775000D02*
X116078000Y-105447000D01*
X116078000Y-105447000D02*
X116078000Y-106553000D01*
X116078000Y-106553000D02*
X117348000Y-107823000D01*
X131446000Y-120396000D02*
X129160000Y-118110000D01*
X131572000Y-120396000D02*
X131446000Y-120396000D01*
%TO.N,/TFT_CLK*%
X132455933Y-116325933D02*
X132455933Y-116453933D01*
X132455933Y-116453933D02*
X134112000Y-118110000D01*
X120269000Y-115951000D02*
X123190000Y-115951000D01*
X134112000Y-118110000D02*
X134240000Y-118110000D01*
X116459000Y-104775000D02*
X117221000Y-105537000D01*
X117221000Y-106426000D02*
X118618000Y-107823000D01*
X117221000Y-105537000D02*
X117221000Y-106426000D01*
%TO.N,/TFT_TX*%
X132334000Y-115316000D02*
X133598362Y-115316000D01*
X119888000Y-107061000D02*
X119888000Y-107823000D01*
X120269000Y-114950997D02*
X123174003Y-114950997D01*
X123174003Y-114950997D02*
X123190000Y-114935000D01*
X136392362Y-118110000D02*
X136780000Y-118110000D01*
X117602000Y-104775000D02*
X119888000Y-107061000D01*
X133598362Y-115316000D02*
X136392362Y-118110000D01*
%TO.N,/TFT_DC*%
X148556000Y-112906452D02*
X148556000Y-116494000D01*
X148556000Y-116494000D02*
X146940000Y-118110000D01*
X148281000Y-108724456D02*
X148281000Y-112631452D01*
X144399000Y-101891000D02*
X144399000Y-104842456D01*
X144399000Y-104842456D02*
X148281000Y-108724456D01*
X148281000Y-112631452D02*
X148556000Y-112906452D01*
%TO.N,/TFT_BL*%
X126746000Y-102744000D02*
X129160000Y-100330000D01*
X126746000Y-104394000D02*
X126746000Y-102744000D01*
D22*
%TO.N,/_RX*%
X122842000Y-98064884D02*
X122059116Y-97282000D01*
X113734092Y-92895847D02*
X113665000Y-92895847D01*
X122059116Y-97282000D02*
X120904000Y-97282000D01*
X116399213Y-95560968D02*
X113734092Y-92895847D01*
X120904000Y-97282000D02*
X119182968Y-95560968D01*
X123190000Y-99568000D02*
X122842000Y-99220000D01*
X113665000Y-92895847D02*
X113572076Y-92802923D01*
X119182968Y-95560968D02*
X116399213Y-95560968D01*
X122842000Y-99220000D02*
X122842000Y-98064884D01*
%TO.N,/_D1*%
X110236000Y-94615000D02*
X120523000Y-104902000D01*
X110236000Y-92837000D02*
X110236000Y-94615000D01*
X135857000Y-116934000D02*
X140684000Y-116934000D01*
X129667000Y-110744000D02*
X135857000Y-116934000D01*
X122428000Y-104902000D02*
X123317000Y-105791000D01*
X140684000Y-116934000D02*
X141860000Y-118110000D01*
X120523000Y-104902000D02*
X122428000Y-104902000D01*
X129667000Y-109765000D02*
X129667000Y-110744000D01*
%TO.N,/_Ai0*%
X147828000Y-111760000D02*
X147828000Y-113208000D01*
X146558000Y-111252000D02*
X147320000Y-111252000D01*
X113792000Y-106426000D02*
X117221000Y-109855000D01*
X117221000Y-109855000D02*
X123317000Y-109855000D01*
X113792000Y-102870000D02*
X113792000Y-106426000D01*
X147320000Y-111252000D02*
X147828000Y-111760000D01*
X109474000Y-98552000D02*
X113792000Y-102870000D01*
%TO.N,/_Ai1*%
X109474000Y-97282000D02*
X114681000Y-102489000D01*
X114681000Y-102489000D02*
X114681000Y-106299000D01*
X137541000Y-112014000D02*
X137541000Y-113284000D01*
X117236997Y-108854997D02*
X123317000Y-108854997D01*
X114681000Y-106299000D02*
X117236997Y-108854997D01*
X135382000Y-110490000D02*
X136017000Y-110490000D01*
X136017000Y-110490000D02*
X137541000Y-112014000D01*
X137541000Y-113284000D02*
X137477500Y-113220500D01*
D21*
%TO.N,/ADC0*%
X152020000Y-114682000D02*
X152020000Y-118110000D01*
X152019000Y-114681000D02*
X152020000Y-114682000D01*
%TO.N,/RX_Srv*%
X117676000Y-84205232D02*
X107373200Y-94508032D01*
X131156000Y-65878000D02*
X119415000Y-65878000D01*
X109642200Y-107544456D02*
X109642200Y-115992200D01*
X107373200Y-105275456D02*
X109642200Y-107544456D01*
X107373200Y-94508032D02*
X107373200Y-105275456D01*
X119415000Y-65878000D02*
X117676000Y-67617000D01*
X132334000Y-67056000D02*
X131156000Y-65878000D01*
X117676000Y-67617000D02*
X117676000Y-84205232D01*
X109642200Y-115992200D02*
X110363000Y-116713000D01*
%TO.N,/Run*%
X136207500Y-61785500D02*
X137541000Y-63119000D01*
X137541000Y-63119000D02*
X137541000Y-64389000D01*
X107857000Y-67403000D02*
X111506000Y-63754000D01*
X104394000Y-76708000D02*
X107857000Y-73245000D01*
X107857000Y-73245000D02*
X107857000Y-67403000D01*
X137541000Y-64389000D02*
X137414000Y-64516000D01*
X104394000Y-86741000D02*
X104394000Y-76708000D01*
%TO.N,Net-(U1-GPIO3)*%
X125024726Y-93161274D02*
X123063000Y-91199548D01*
X122520000Y-86141000D02*
X122428000Y-86141000D01*
X123063000Y-86684000D02*
X122520000Y-86141000D01*
X123063000Y-91199548D02*
X123063000Y-86684000D01*
%TO.N,Net-(U1-GPIO2)*%
X123571000Y-90678000D02*
X123571000Y-86233000D01*
X123870293Y-90977293D02*
X123571000Y-90678000D01*
X123870293Y-90978709D02*
X123870293Y-90977293D01*
X125025726Y-92134142D02*
X123870293Y-90978709D01*
X123571000Y-86233000D02*
X123053945Y-85715945D01*
X123053945Y-85715945D02*
X123053945Y-85361129D01*
%TO.N,/TX_Srv*%
X116840000Y-67437000D02*
X116840000Y-84074000D01*
X128534500Y-63256500D02*
X121020500Y-63256500D01*
X121020500Y-63256500D02*
X116840000Y-67437000D01*
X109185000Y-116225056D02*
X109185000Y-118075000D01*
X106918200Y-107111496D02*
X106918200Y-113958256D01*
X106553000Y-106746296D02*
X106918200Y-107111496D01*
X129794000Y-64516000D02*
X128534500Y-63256500D01*
X116840000Y-84074000D02*
X106553000Y-94361000D01*
X106918200Y-113958256D02*
X109185000Y-116225056D01*
X106553000Y-94361000D02*
X106553000Y-106746296D01*
X109185000Y-118075000D02*
X110363000Y-119253000D01*
%TO.N,Net-(D6-A)*%
X159632933Y-90798933D02*
X160859642Y-92025642D01*
D24*
X167888825Y-92075000D02*
X165060494Y-92075000D01*
D21*
X160859642Y-92025642D02*
X165011136Y-92025642D01*
D24*
X165060494Y-92075000D02*
X165011136Y-92025642D01*
X167954342Y-92009483D02*
X167894000Y-91949141D01*
X167954342Y-92009483D02*
X167888825Y-92075000D01*
X167894000Y-91949141D02*
X167894000Y-87884000D01*
D21*
%TO.N,/STAT*%
X159700000Y-89347000D02*
X162687000Y-89347000D01*
X155702000Y-91821000D02*
X157226000Y-91821000D01*
X157226000Y-91821000D02*
X159700000Y-89347000D01*
%TO.N,Net-(U2-PROG)*%
X167513000Y-94742000D02*
X167513000Y-94834000D01*
X167501120Y-93126000D02*
X167501120Y-94730120D01*
X167501120Y-94730120D02*
X167513000Y-94742000D01*
D24*
%TO.N,GND1*%
X165735000Y-97028000D02*
X162433000Y-97028000D01*
X166498000Y-97028000D02*
X165735000Y-97028000D01*
X162433000Y-97028000D02*
X159893000Y-94488000D01*
X169800000Y-100330000D02*
X166498000Y-97028000D01*
X165735000Y-97028000D02*
X165862000Y-97028000D01*
D21*
%TO.N,Net-(J8-Pin_2)*%
X172975000Y-116205000D02*
X174880000Y-118110000D01*
D25*
X169164000Y-121285000D02*
X165862000Y-124587000D01*
D21*
X170815000Y-116205000D02*
X172975000Y-116205000D01*
%TD*%
M02*
