%TF.GenerationSoftware,KiCad,Pcbnew,9.0.1*%
%TF.CreationDate,2025-04-18T18:57:09+02:00*%
%TF.ProjectId,hexapod2_cli,68657861-706f-4643-925f-636c692e6b69,rev?*%
%TF.SameCoordinates,Original*%
%TF.FileFunction,Profile,NP*%
%FSLAX46Y46*%
G04 Gerber Fmt 4.6, Leading zero omitted, Abs format (unit mm)*
G04 Created by KiCad (PCBNEW 9.0.1) date 2025-04-18 18:57:09*
%MOMM*%
%LPD*%
G01*
G04 APERTURE LIST*
%TA.AperFunction,Profile*%
%ADD10C,0.100000*%
%TD*%
G04 APERTURE END LIST*
D10*
X158750000Y-69215000D02*
X163830000Y-69215000D01*
X169545000Y-69215000D01*
X169545000Y-83820000D01*
X177038000Y-83820000D01*
X177038000Y-123444000D01*
X167640000Y-123444000D01*
X167640000Y-128016000D01*
X112522000Y-128016000D01*
X112522000Y-123444000D01*
X101346000Y-123444000D01*
X101346000Y-112649000D01*
X93303671Y-112649000D01*
X92766038Y-112163764D01*
X92393457Y-110850008D01*
X92059244Y-109525972D01*
X91763681Y-108192776D01*
X91507019Y-106851547D01*
X91289475Y-105503421D01*
X91111233Y-104149538D01*
X90972444Y-102791044D01*
X90873225Y-101429087D01*
X90813660Y-100064821D01*
X90793799Y-98699400D01*
X90813660Y-97333979D01*
X90873225Y-95969713D01*
X90972444Y-94607756D01*
X91111233Y-93249262D01*
X91289475Y-91895379D01*
X91507019Y-90547253D01*
X91763681Y-89206024D01*
X92059244Y-87872828D01*
X92393457Y-86548792D01*
X92766038Y-85235036D01*
X93176671Y-84455000D01*
X101346000Y-84455000D01*
X101346000Y-70664987D01*
X101346000Y-69291200D01*
X101981000Y-68554600D01*
X102743000Y-67640200D01*
X103632000Y-66675000D01*
X104648000Y-65659000D01*
X105537000Y-64770000D01*
X106553000Y-63830200D01*
X107721400Y-62814200D01*
X110185200Y-60902248D01*
X112522000Y-59309000D01*
X158750000Y-59309000D01*
X158750000Y-69215000D01*
M02*
